<svg width="136" height="85" viewBox="0 0 136 85" fill="none" xmlns="http://www.w3.org/2000/svg">
<path d="M32.08 84.96C25.92 84.96 20.88 84.6 16.96 83.88C13.04 83.08 9.92 81.76 7.6 79.92C5.36 78.08 3.72 75.56 2.68 72.36C1.64 69.16 0.960001 65.16 0.640001 60.36C0.400001 55.48 0.280001 49.6 0.280001 42.72C0.280001 35.84 0.400001 30 0.640001 25.2C0.960001 20.32 1.64 16.28 2.68 13.08C3.72 9.88 5.36 7.35999 7.6 5.51999C9.92 3.67999 13.04 2.39999 16.96 1.67999C20.88 0.879995 25.92 0.479995 32.08 0.479995C38.16 0.479995 43.16 0.879995 47.08 1.67999C51.08 2.39999 54.2 3.67999 56.44 5.51999C58.68 7.35999 60.32 9.88 61.36 13.08C62.48 16.28 63.16 20.32 63.4 25.2C63.72 30 63.88 35.84 63.88 42.72C63.88 49.6 63.72 55.48 63.4 60.36C63.16 65.16 62.48 69.16 61.36 72.36C60.32 75.56 58.68 78.08 56.44 79.92C54.2 81.76 51.08 83.08 47.08 83.88C43.16 84.6 38.16 84.96 32.08 84.96ZM32.08 73.44C35.6 73.44 38.48 73.32 40.72 73.08C43.04 72.84 44.84 72.24 46.12 71.28C47.4 70.32 48.32 68.76 48.88 66.6C49.52 64.36 49.92 61.32 50.08 57.48C50.24 53.64 50.32 48.72 50.32 42.72C50.32 36.72 50.24 31.8 50.08 27.96C49.92 24.12 49.52 21.12 48.88 18.96C48.32 16.72 47.4 15.12 46.12 14.16C44.84 13.2 43.04 12.6 40.72 12.36C38.48 12.12 35.6 12 32.08 12C28.56 12 25.64 12.12 23.32 12.36C21.08 12.6 19.32 13.2 18.04 14.16C16.76 15.12 15.8 16.72 15.16 18.96C14.52 21.12 14.12 24.12 13.96 27.96C13.8 31.8 13.72 36.72 13.72 42.72C13.72 48.72 13.8 53.64 13.96 57.48C14.12 61.32 14.48 64.36 15.04 66.6C15.68 68.76 16.64 70.32 17.92 71.28C19.28 72.24 21.08 72.84 23.32 73.08C25.64 73.32 28.56 73.44 32.08 73.44ZM121.502 84V16.56L104.822 24.12V12.36L125.582 1.44H135.062V84H121.502Z" fill="#F4871F" fill-opacity="0.1"/>
<path d="M16.96 83.88L16.76 84.8598L16.7697 84.8618L16.7793 84.8635L16.96 83.88ZM7.6 79.92L6.96526 80.6927L6.97189 80.6982L6.97861 80.7035L7.6 79.92ZM2.68 72.36L1.72897 72.6691L2.68 72.36ZM0.64 60.36L-0.358792 60.4091L-0.358364 60.4178L-0.357785 60.4265L0.64 60.36ZM0.64 25.2L-0.357856 25.1346L-0.358364 25.1423L-0.358752 25.1501L0.64 25.2ZM2.68 13.08L1.72897 12.7709L2.68 13.08ZM7.6 5.51999L6.97861 4.7365L6.97189 4.74183L6.96526 4.74727L7.6 5.51999ZM16.96 1.67999L17.1407 2.66354L17.1503 2.66176L17.16 2.6598L16.96 1.67999ZM47.08 1.67999L46.88 2.6598L46.8914 2.66212L46.9029 2.66418L47.08 1.67999ZM56.44 5.51999L55.8053 6.29272L56.44 5.51999ZM61.36 13.08L60.409 13.3891L60.4124 13.3998L60.4161 13.4103L61.36 13.08ZM63.4 25.2L62.4012 25.2491L62.4016 25.2578L62.4022 25.2665L63.4 25.2ZM63.4 60.36L62.4021 60.2946L62.4016 60.3023L62.4013 60.3101L63.4 60.36ZM61.36 72.36L60.4161 72.0296L60.4124 72.0402L60.409 72.0509L61.36 72.36ZM56.44 79.92L57.0747 80.6927L56.44 79.92ZM47.08 83.88L47.2607 84.8635L47.2684 84.8621L47.2761 84.8606L47.08 83.88ZM40.72 73.08L40.6171 72.0853L40.6135 72.0857L40.72 73.08ZM46.12 71.28L46.72 72.08L46.12 71.28ZM48.88 66.6L47.9185 66.3253L47.9151 66.3371L47.912 66.349L48.88 66.6ZM50.08 27.96L49.0809 28.0016L50.08 27.96ZM48.88 18.96L47.9099 19.2025L47.9151 19.2234L47.9212 19.2441L48.88 18.96ZM46.12 14.16L45.52 14.96V14.96L46.12 14.16ZM40.72 12.36L40.6135 13.3543L40.6171 13.3547L40.72 12.36ZM23.32 12.36L23.2171 11.3653L23.2135 11.3657L23.32 12.36ZM18.04 14.16L18.64 14.96L18.64 14.96L18.04 14.16ZM15.16 18.96L16.1188 19.2441L16.1215 19.2347L15.16 18.96ZM13.96 27.96L14.9591 28.0016L13.96 27.96ZM13.96 57.48L14.9591 57.4384L13.96 57.48ZM15.04 66.6L14.0699 66.8425L14.0751 66.8634L14.0812 66.8841L15.04 66.6ZM17.92 71.28L17.32 72.08L17.3315 72.0887L17.3433 72.097L17.92 71.28ZM23.32 73.08L23.2135 74.0743L23.2171 74.0747L23.32 73.08ZM32.08 83.96C25.9517 83.96 20.9781 83.6013 17.1407 82.8965L16.7793 84.8635C20.7819 85.5987 25.8883 85.96 32.08 85.96V83.96ZM17.16 82.9002C13.3424 82.1211 10.3828 80.8507 8.2214 79.1365L6.97861 80.7035C9.45716 82.6693 12.7376 84.0389 16.76 84.8598L17.16 82.9002ZM8.23474 79.1473C6.16474 77.4469 4.62171 75.0991 3.63103 72.0509L1.72897 72.6691C2.81829 76.0209 4.55526 78.7131 6.96526 80.6927L8.23474 79.1473ZM3.63103 72.0509C2.62492 68.9552 1.95443 65.0431 1.63779 60.2935L-0.357785 60.4265C-0.0344272 65.2769 0.655086 69.3648 1.72897 72.6691L3.63103 72.0509ZM1.63879 60.3109C1.39985 55.4523 1.28 49.5896 1.28 42.72H-0.719999C-0.719999 49.6104 -0.599847 55.5077 -0.358792 60.4091L1.63879 60.3109ZM1.28 42.72C1.28 35.8502 1.39985 30.0279 1.63875 25.2499L-0.358752 25.1501C-0.599853 29.9721 -0.719999 35.8298 -0.719999 42.72H1.28ZM1.63786 25.2654C1.95464 20.4344 2.6254 16.4833 3.63103 13.3891L1.72897 12.7709C0.654597 16.0767 -0.0346427 20.2056 -0.357856 25.1346L1.63786 25.2654ZM3.63103 13.3891C4.62171 10.3409 6.16474 7.99308 8.23474 6.29272L6.96526 4.74727C4.55526 6.72691 2.81829 9.41913 1.72897 12.7709L3.63103 13.3891ZM8.2214 6.30349C10.3764 4.59434 13.3284 3.36375 17.1407 2.66354L16.7793 0.696447C12.7516 1.43623 9.46358 2.76565 6.97861 4.7365L8.2214 6.30349ZM17.16 2.6598C20.989 1.87837 25.9554 1.48 32.08 1.48V-0.520005C25.8847 -0.520005 20.771 -0.118378 16.76 0.70019L17.16 2.6598ZM32.08 1.48C38.1236 1.48 43.0504 1.87823 46.88 2.6598L47.28 0.70019C43.2696 -0.118245 38.1964 -0.520005 32.08 -0.520005V1.48ZM46.9029 2.66418C50.7988 3.36544 53.7397 4.59603 55.8053 6.29272L57.0747 4.74727C54.6603 2.76396 51.3612 1.43455 47.2572 0.695811L46.9029 2.66418ZM55.8053 6.29272C57.8753 7.99308 59.4183 10.3409 60.409 13.3891L62.311 12.7709C61.2217 9.41913 59.4847 6.72691 57.0747 4.74727L55.8053 6.29272ZM60.4161 13.4103C61.4938 16.4895 62.164 20.4266 62.4012 25.2491L64.3988 25.1509C64.156 20.2134 63.4662 16.0705 62.3039 12.7496L60.4161 13.4103ZM62.4022 25.2665C62.7203 30.0372 62.88 35.8536 62.88 42.72H64.88C64.88 35.8264 64.7197 29.9628 64.3978 25.1335L62.4022 25.2665ZM62.88 42.72C62.88 49.5862 62.7203 55.4431 62.4021 60.2946L64.3979 60.4254C64.7197 55.5169 64.88 49.6138 64.88 42.72H62.88ZM62.4013 60.3101C62.1642 65.0509 61.4944 68.949 60.4161 72.0296L62.3039 72.6904C63.4656 69.371 64.1558 65.2691 64.3988 60.4099L62.4013 60.3101ZM60.409 72.0509C59.4183 75.0991 57.8753 77.4469 55.8053 79.1473L57.0747 80.6927C59.4847 78.7131 61.2217 76.0209 62.311 72.6691L60.409 72.0509ZM55.8053 79.1473C53.7333 80.8493 50.7846 82.1193 46.8839 82.8994L47.2761 84.8606C51.3754 84.0407 54.6667 82.6707 57.0747 80.6927L55.8053 79.1473ZM46.8993 82.8965C43.0613 83.6014 38.1274 83.96 32.08 83.96V85.96C38.1926 85.96 43.2587 85.5986 47.2607 84.8635L46.8993 82.8965ZM32.08 74.44C35.6182 74.44 38.5373 74.3196 40.8265 74.0743L40.6135 72.0857C38.4227 72.3204 35.5818 72.44 32.08 72.44V74.44ZM40.8229 74.0747C43.2457 73.8241 45.2433 73.1875 46.72 72.08L45.52 70.48C44.4367 71.2925 42.8343 71.8559 40.6171 72.0853L40.8229 74.0747ZM46.72 72.08C48.2411 70.9392 49.2532 69.1451 49.848 66.851L47.912 66.349C47.3868 68.3749 46.5589 69.7008 45.52 70.48L46.72 72.08ZM49.8415 66.8747C50.5127 64.5258 50.9177 61.3967 51.0791 57.5216L49.0809 57.4384C48.9223 61.2433 48.5274 64.1942 47.9185 66.3253L49.8415 66.8747ZM51.0791 57.5216C51.2399 53.6623 51.32 48.7271 51.32 42.72H49.32C49.32 48.7129 49.2401 53.6176 49.0809 57.4384L51.0791 57.5216ZM51.32 42.72C51.32 36.7129 51.2399 31.7776 51.0791 27.9184L49.0809 28.0016C49.2401 31.8223 49.32 36.7271 49.32 42.72H51.32ZM51.0791 27.9184C50.9178 24.0452 50.5129 20.9509 49.8388 18.6759L47.9212 19.2441C48.5271 21.2891 48.9223 24.1948 49.0809 28.0016L51.0791 27.9184ZM49.8501 18.7175C49.2585 16.3508 48.2499 14.5074 46.72 13.36L45.52 14.96C46.5501 15.7326 47.3815 17.0891 47.9099 19.2025L49.8501 18.7175ZM46.72 13.36C45.2433 12.2525 43.2457 11.6159 40.8229 11.3653L40.6171 13.3547C42.8343 13.5841 44.4367 14.1475 45.52 14.96L46.72 13.36ZM40.8265 11.3657C38.5373 11.1204 35.6182 11 32.08 11V13C35.5818 13 38.4227 13.1196 40.6135 13.3543L40.8265 11.3657ZM32.08 11C28.541 11 25.5838 11.1205 23.2171 11.3653L23.4229 13.3547C25.6962 13.1195 28.579 13 32.08 13V11ZM23.2135 11.3657C20.8639 11.6174 18.9111 12.2566 17.44 13.36L18.64 14.96C19.7289 14.1433 21.2961 13.5826 23.4265 13.3543L23.2135 11.3657ZM17.44 13.36C15.9218 14.4987 14.8721 16.3276 14.1985 18.6853L16.1215 19.2347C16.7279 17.1124 17.5982 15.7413 18.64 14.96L17.44 13.36ZM14.2012 18.6759C13.5271 20.9509 13.1222 24.0452 12.9609 27.9184L14.9591 28.0016C15.1178 24.1948 15.5129 21.2891 16.1188 19.2441L14.2012 18.6759ZM12.9609 27.9184C12.8001 31.7776 12.72 36.7129 12.72 42.72H14.72C14.72 36.7271 14.7999 31.8223 14.9591 28.0016L12.9609 27.9184ZM12.72 42.72C12.72 48.7271 12.8001 53.6623 12.9609 57.5216L14.9591 57.4384C14.7999 53.6176 14.72 48.7129 14.72 42.72H12.72ZM12.9609 57.5216C13.1221 61.3911 13.4862 64.5078 14.0699 66.8425L16.0101 66.3575C15.4738 64.2122 15.1179 61.2489 14.9591 57.4384L12.9609 57.5216ZM14.0812 66.8841C14.758 69.1684 15.8105 70.9479 17.32 72.08L18.52 70.48C17.4695 69.6921 16.602 68.3516 15.9988 66.3159L14.0812 66.8841ZM17.3433 72.097C18.8829 73.1837 20.8615 73.8223 23.2135 74.0743L23.4265 72.0857C21.2985 71.8577 19.6771 71.2963 18.4967 70.463L17.3433 72.097ZM23.2171 74.0747C25.5838 74.3195 28.541 74.44 32.08 74.44V72.44C28.579 72.44 25.6962 72.3205 23.4229 72.0853L23.2171 74.0747ZM121.502 84H120.502V85H121.502V84ZM121.502 16.56H122.502V15.0088L121.089 15.6492L121.502 16.56ZM104.822 24.12H103.822V25.6712L105.234 25.0308L104.822 24.12ZM104.822 12.36L104.356 11.475L103.822 11.7561V12.36H104.822ZM125.582 1.44V0.439997H125.335L125.116 0.554968L125.582 1.44ZM135.062 1.44H136.062V0.439997H135.062V1.44ZM135.062 84V85H136.062V84H135.062ZM122.502 84V16.56H120.502V84H122.502ZM121.089 15.6492L104.409 23.2092L105.234 25.0308L121.914 17.4708L121.089 15.6492ZM105.822 24.12V12.36H103.822V24.12H105.822ZM105.287 13.245L126.047 2.32503L125.116 0.554968L104.356 11.475L105.287 13.245ZM125.582 2.44H135.062V0.439997H125.582V2.44ZM134.062 1.44V84H136.062V1.44H134.062ZM135.062 83H121.502V85H135.062V83Z" fill="white"/>
</svg>
