<svg width="137" height="85" viewBox="0 0 137 85" fill="none" xmlns="http://www.w3.org/2000/svg">
<path d="M32.08 84.96C25.92 84.96 20.88 84.6 16.96 83.88C13.04 83.08 9.92 81.76 7.6 79.92C5.36 78.08 3.72 75.56 2.68 72.36C1.64 69.16 0.960001 65.16 0.640001 60.36C0.400001 55.48 0.280001 49.6 0.280001 42.72C0.280001 35.84 0.400001 30 0.640001 25.2C0.960001 20.32 1.64 16.28 2.68 13.08C3.72 9.88 5.36 7.35999 7.6 5.51999C9.92 3.67999 13.04 2.39999 16.96 1.67999C20.88 0.879995 25.92 0.479995 32.08 0.479995C38.16 0.479995 43.16 0.879995 47.08 1.67999C51.08 2.39999 54.2 3.67999 56.44 5.51999C58.68 7.35999 60.32 9.88 61.36 13.08C62.48 16.28 63.16 20.32 63.4 25.2C63.72 30 63.88 35.84 63.88 42.72C63.88 49.6 63.72 55.48 63.4 60.36C63.16 65.16 62.48 69.16 61.36 72.36C60.32 75.56 58.68 78.08 56.44 79.92C54.2 81.76 51.08 83.08 47.08 83.88C43.16 84.6 38.16 84.96 32.08 84.96ZM32.08 73.44C35.6 73.44 38.48 73.32 40.72 73.08C43.04 72.84 44.84 72.24 46.12 71.28C47.4 70.32 48.32 68.76 48.88 66.6C49.52 64.36 49.92 61.32 50.08 57.48C50.24 53.64 50.32 48.72 50.32 42.72C50.32 36.72 50.24 31.8 50.08 27.96C49.92 24.12 49.52 21.12 48.88 18.96C48.32 16.72 47.4 15.12 46.12 14.16C44.84 13.2 43.04 12.6 40.72 12.36C38.48 12.12 35.6 12 32.08 12C28.56 12 25.64 12.12 23.32 12.36C21.08 12.6 19.32 13.2 18.04 14.16C16.76 15.12 15.8 16.72 15.16 18.96C14.52 21.12 14.12 24.12 13.96 27.96C13.8 31.8 13.72 36.72 13.72 42.72C13.72 48.72 13.8 53.64 13.96 57.48C14.12 61.32 14.48 64.36 15.04 66.6C15.68 68.76 16.64 70.32 17.92 71.28C19.28 72.24 21.08 72.84 23.32 73.08C25.64 73.32 28.56 73.44 32.08 73.44ZM104.196 84.96C101.556 84.96 98.6763 84.84 95.5563 84.6C92.5163 84.44 89.5163 84.2 86.5563 83.88C83.6763 83.48 81.1563 83.08 78.9963 82.68V72C81.7163 72.24 84.5563 72.48 87.5163 72.72C90.5563 72.96 93.3963 73.16 96.0363 73.32C98.7563 73.4 101.076 73.44 102.996 73.44C107.476 73.44 111.156 73.2 114.036 72.72C116.916 72.24 119.076 71.12 120.516 69.36C121.956 67.6 122.676 64.8 122.676 60.96C122.676 57.6 122.196 55 121.236 53.16C120.356 51.24 118.836 49.92 116.676 49.2C114.596 48.4 111.756 48 108.156 48H93.2763V36.48H108.156C110.876 36.48 113.236 36.16 115.236 35.52C117.316 34.88 118.916 33.72 120.036 32.04C121.156 30.28 121.716 27.72 121.716 24.36C121.716 20.52 121.076 17.76 119.796 16.08C118.596 14.32 116.556 13.2 113.676 12.72C110.796 12.24 106.836 12 101.796 12C99.5563 12 97.0763 12.08 94.3563 12.24C91.7163 12.4 89.0763 12.6 86.4363 12.84C83.7963 13 81.4763 13.24 79.4763 13.56V2.75999C81.6363 2.28 84.1563 1.88 87.0363 1.56C89.9163 1.24 92.8763 0.999996 95.9163 0.839998C98.9563 0.599996 101.756 0.479995 104.316 0.479995C110.316 0.479995 115.316 0.959996 119.316 1.92C123.316 2.8 126.476 4.16 128.796 6C131.196 7.84 132.916 10.12 133.956 12.84C134.996 15.48 135.516 18.6 135.516 22.2C135.516 28.2 134.316 32.68 131.916 35.64C129.516 38.6 125.996 40.6 121.356 41.64V42.12C124.476 42.76 127.156 43.76 129.396 45.12C131.636 46.48 133.356 48.52 134.556 51.24C135.756 53.88 136.356 57.44 136.356 61.92C136.356 65.36 135.916 68.48 135.036 71.28C134.236 74.08 132.676 76.52 130.356 78.6C128.116 80.6 124.876 82.16 120.636 83.28C116.396 84.4 110.916 84.96 104.196 84.96Z" fill="#F4871F" fill-opacity="0.1"/>
<path d="M16.96 83.88L16.76 84.8598L16.7697 84.8618L16.7793 84.8635L16.96 83.88ZM7.6 79.92L6.96526 80.6927L6.97189 80.6982L6.97861 80.7035L7.6 79.92ZM2.68 72.36L1.72897 72.6691L2.68 72.36ZM0.64 60.36L-0.358792 60.4091L-0.358364 60.4178L-0.357785 60.4265L0.64 60.36ZM0.64 25.2L-0.357856 25.1346L-0.358364 25.1423L-0.358752 25.1501L0.64 25.2ZM2.68 13.08L1.72897 12.7709L2.68 13.08ZM7.6 5.51999L6.97861 4.7365L6.97189 4.74183L6.96526 4.74727L7.6 5.51999ZM16.96 1.67999L17.1407 2.66354L17.1503 2.66176L17.16 2.6598L16.96 1.67999ZM47.08 1.67999L46.88 2.6598L46.8914 2.66212L46.9029 2.66418L47.08 1.67999ZM56.44 5.51999L55.8053 6.29272L56.44 5.51999ZM61.36 13.08L60.409 13.3891L60.4124 13.3998L60.4161 13.4103L61.36 13.08ZM63.4 25.2L62.4012 25.2491L62.4016 25.2578L62.4022 25.2665L63.4 25.2ZM63.4 60.36L62.4021 60.2946L62.4016 60.3023L62.4013 60.3101L63.4 60.36ZM61.36 72.36L60.4161 72.0296L60.4124 72.0402L60.409 72.0509L61.36 72.36ZM56.44 79.92L57.0747 80.6927L56.44 79.92ZM47.08 83.88L47.2607 84.8635L47.2684 84.8621L47.2761 84.8606L47.08 83.88ZM40.72 73.08L40.6171 72.0853L40.6135 72.0857L40.72 73.08ZM46.12 71.28L46.72 72.08L46.12 71.28ZM48.88 66.6L47.9185 66.3253L47.9151 66.3371L47.912 66.349L48.88 66.6ZM50.08 27.96L49.0809 28.0016L50.08 27.96ZM48.88 18.96L47.9099 19.2025L47.9151 19.2234L47.9212 19.2441L48.88 18.96ZM46.12 14.16L45.52 14.96V14.96L46.12 14.16ZM40.72 12.36L40.6135 13.3543L40.6171 13.3547L40.72 12.36ZM23.32 12.36L23.2171 11.3653L23.2135 11.3657L23.32 12.36ZM18.04 14.16L18.64 14.96L18.64 14.96L18.04 14.16ZM15.16 18.96L16.1188 19.2441L16.1215 19.2347L15.16 18.96ZM13.96 27.96L14.9591 28.0016L13.96 27.96ZM13.96 57.48L14.9591 57.4384L13.96 57.48ZM15.04 66.6L14.0699 66.8425L14.0751 66.8634L14.0812 66.8841L15.04 66.6ZM17.92 71.28L17.32 72.08L17.3315 72.0887L17.3433 72.097L17.92 71.28ZM23.32 73.08L23.2135 74.0743L23.2171 74.0747L23.32 73.08ZM32.08 83.96C25.9517 83.96 20.9781 83.6013 17.1407 82.8965L16.7793 84.8635C20.7819 85.5987 25.8883 85.96 32.08 85.96V83.96ZM17.16 82.9002C13.3424 82.1211 10.3828 80.8507 8.2214 79.1365L6.97861 80.7035C9.45716 82.6693 12.7376 84.0389 16.76 84.8598L17.16 82.9002ZM8.23474 79.1473C6.16474 77.4469 4.62171 75.0991 3.63103 72.0509L1.72897 72.6691C2.81829 76.0209 4.55526 78.7131 6.96526 80.6927L8.23474 79.1473ZM3.63103 72.0509C2.62492 68.9552 1.95443 65.0431 1.63779 60.2935L-0.357785 60.4265C-0.0344272 65.2769 0.655086 69.3648 1.72897 72.6691L3.63103 72.0509ZM1.63879 60.3109C1.39985 55.4523 1.28 49.5896 1.28 42.72H-0.719999C-0.719999 49.6104 -0.599847 55.5077 -0.358792 60.4091L1.63879 60.3109ZM1.28 42.72C1.28 35.8502 1.39985 30.0279 1.63875 25.2499L-0.358752 25.1501C-0.599853 29.9721 -0.719999 35.8298 -0.719999 42.72H1.28ZM1.63786 25.2654C1.95464 20.4344 2.6254 16.4833 3.63103 13.3891L1.72897 12.7709C0.654597 16.0767 -0.0346427 20.2056 -0.357856 25.1346L1.63786 25.2654ZM3.63103 13.3891C4.62171 10.3409 6.16474 7.99308 8.23474 6.29272L6.96526 4.74727C4.55526 6.72691 2.81829 9.41913 1.72897 12.7709L3.63103 13.3891ZM8.2214 6.30349C10.3764 4.59434 13.3284 3.36375 17.1407 2.66354L16.7793 0.696447C12.7516 1.43623 9.46358 2.76565 6.97861 4.7365L8.2214 6.30349ZM17.16 2.6598C20.989 1.87837 25.9554 1.48 32.08 1.48V-0.520005C25.8847 -0.520005 20.771 -0.118378 16.76 0.70019L17.16 2.6598ZM32.08 1.48C38.1236 1.48 43.0504 1.87823 46.88 2.6598L47.28 0.70019C43.2696 -0.118245 38.1964 -0.520005 32.08 -0.520005V1.48ZM46.9029 2.66418C50.7988 3.36544 53.7397 4.59603 55.8053 6.29272L57.0747 4.74727C54.6603 2.76396 51.3612 1.43455 47.2572 0.695811L46.9029 2.66418ZM55.8053 6.29272C57.8753 7.99308 59.4183 10.3409 60.409 13.3891L62.311 12.7709C61.2217 9.41913 59.4847 6.72691 57.0747 4.74727L55.8053 6.29272ZM60.4161 13.4103C61.4938 16.4895 62.164 20.4266 62.4012 25.2491L64.3988 25.1509C64.156 20.2134 63.4662 16.0705 62.3039 12.7496L60.4161 13.4103ZM62.4022 25.2665C62.7203 30.0372 62.88 35.8536 62.88 42.72H64.88C64.88 35.8264 64.7197 29.9628 64.3978 25.1335L62.4022 25.2665ZM62.88 42.72C62.88 49.5862 62.7203 55.4431 62.4021 60.2946L64.3979 60.4254C64.7197 55.5169 64.88 49.6138 64.88 42.72H62.88ZM62.4013 60.3101C62.1642 65.0509 61.4944 68.949 60.4161 72.0296L62.3039 72.6904C63.4656 69.371 64.1558 65.2691 64.3988 60.4099L62.4013 60.3101ZM60.409 72.0509C59.4183 75.0991 57.8753 77.4469 55.8053 79.1473L57.0747 80.6927C59.4847 78.7131 61.2217 76.0209 62.311 72.6691L60.409 72.0509ZM55.8053 79.1473C53.7333 80.8493 50.7846 82.1193 46.8839 82.8994L47.2761 84.8606C51.3754 84.0407 54.6667 82.6707 57.0747 80.6927L55.8053 79.1473ZM46.8993 82.8965C43.0613 83.6014 38.1274 83.96 32.08 83.96V85.96C38.1926 85.96 43.2587 85.5986 47.2607 84.8635L46.8993 82.8965ZM32.08 74.44C35.6182 74.44 38.5373 74.3196 40.8265 74.0743L40.6135 72.0857C38.4227 72.3204 35.5818 72.44 32.08 72.44V74.44ZM40.8229 74.0747C43.2457 73.8241 45.2433 73.1875 46.72 72.08L45.52 70.48C44.4367 71.2925 42.8343 71.8559 40.6171 72.0853L40.8229 74.0747ZM46.72 72.08C48.2411 70.9392 49.2532 69.1451 49.848 66.851L47.912 66.349C47.3868 68.3749 46.5589 69.7008 45.52 70.48L46.72 72.08ZM49.8415 66.8747C50.5127 64.5258 50.9177 61.3967 51.0791 57.5216L49.0809 57.4384C48.9223 61.2433 48.5274 64.1942 47.9185 66.3253L49.8415 66.8747ZM51.0791 57.5216C51.2399 53.6623 51.32 48.7271 51.32 42.72H49.32C49.32 48.7129 49.2401 53.6176 49.0809 57.4384L51.0791 57.5216ZM51.32 42.72C51.32 36.7129 51.2399 31.7776 51.0791 27.9184L49.0809 28.0016C49.2401 31.8223 49.32 36.7271 49.32 42.72H51.32ZM51.0791 27.9184C50.9178 24.0452 50.5129 20.9509 49.8388 18.6759L47.9212 19.2441C48.5271 21.2891 48.9223 24.1948 49.0809 28.0016L51.0791 27.9184ZM49.8501 18.7175C49.2585 16.3508 48.2499 14.5074 46.72 13.36L45.52 14.96C46.5501 15.7326 47.3815 17.0891 47.9099 19.2025L49.8501 18.7175ZM46.72 13.36C45.2433 12.2525 43.2457 11.6159 40.8229 11.3653L40.6171 13.3547C42.8343 13.5841 44.4367 14.1475 45.52 14.96L46.72 13.36ZM40.8265 11.3657C38.5373 11.1204 35.6182 11 32.08 11V13C35.5818 13 38.4227 13.1196 40.6135 13.3543L40.8265 11.3657ZM32.08 11C28.541 11 25.5838 11.1205 23.2171 11.3653L23.4229 13.3547C25.6962 13.1195 28.579 13 32.08 13V11ZM23.2135 11.3657C20.8639 11.6174 18.9111 12.2566 17.44 13.36L18.64 14.96C19.7289 14.1433 21.2961 13.5826 23.4265 13.3543L23.2135 11.3657ZM17.44 13.36C15.9218 14.4987 14.8721 16.3276 14.1985 18.6853L16.1215 19.2347C16.7279 17.1124 17.5982 15.7413 18.64 14.96L17.44 13.36ZM14.2012 18.6759C13.5271 20.9509 13.1222 24.0452 12.9609 27.9184L14.9591 28.0016C15.1178 24.1948 15.5129 21.2891 16.1188 19.2441L14.2012 18.6759ZM12.9609 27.9184C12.8001 31.7776 12.72 36.7129 12.72 42.72H14.72C14.72 36.7271 14.7999 31.8223 14.9591 28.0016L12.9609 27.9184ZM12.72 42.72C12.72 48.7271 12.8001 53.6623 12.9609 57.5216L14.9591 57.4384C14.7999 53.6176 14.72 48.7129 14.72 42.72H12.72ZM12.9609 57.5216C13.1221 61.3911 13.4862 64.5078 14.0699 66.8425L16.0101 66.3575C15.4738 64.2122 15.1179 61.2489 14.9591 57.4384L12.9609 57.5216ZM14.0812 66.8841C14.758 69.1684 15.8105 70.9479 17.32 72.08L18.52 70.48C17.4695 69.6921 16.602 68.3516 15.9988 66.3159L14.0812 66.8841ZM17.3433 72.097C18.8829 73.1837 20.8615 73.8223 23.2135 74.0743L23.4265 72.0857C21.2985 71.8577 19.6771 71.2963 18.4967 70.463L17.3433 72.097ZM23.2171 74.0747C25.5838 74.3195 28.541 74.44 32.08 74.44V72.44C28.579 72.44 25.6962 72.3205 23.4229 72.0853L23.2171 74.0747ZM95.5563 84.6L95.6329 83.6029L95.6209 83.602L95.6088 83.6014L95.5563 84.6ZM86.5563 83.88L86.4187 84.8705L86.4337 84.8726L86.4488 84.8742L86.5563 83.88ZM78.9963 82.68H77.9963V83.5118L78.8142 83.6633L78.9963 82.68ZM78.9963 72L79.0841 71.0039L77.9963 70.9079V72H78.9963ZM87.5163 72.72L87.4354 73.7167L87.4375 73.7169L87.5163 72.72ZM96.0363 73.32L95.9758 74.3182L95.9913 74.3191L96.0069 74.3196L96.0363 73.32ZM114.036 72.72L113.872 71.7336L114.036 72.72ZM120.516 69.36L119.742 68.7268L120.516 69.36ZM121.236 53.16L120.327 53.5767L120.338 53.5999L120.35 53.6226L121.236 53.16ZM116.676 49.2L116.317 50.1333L116.338 50.1415L116.36 50.1487L116.676 49.2ZM93.2763 48H92.2763V49H93.2763V48ZM93.2763 36.48V35.48H92.2763V36.48H93.2763ZM115.236 35.52L114.942 34.5642L114.931 34.5676L115.236 35.52ZM120.036 32.04L120.868 32.5947L120.874 32.5858L120.88 32.5769L120.036 32.04ZM119.796 16.08L118.97 16.6433L118.985 16.6651L119.001 16.686L119.796 16.08ZM113.676 12.72L113.841 11.7336V11.7336L113.676 12.72ZM94.3562 12.24L94.2975 11.2417L94.2958 11.2418L94.3562 12.24ZM86.4362 12.84L86.4967 13.8382L86.5118 13.8373L86.5268 13.8359L86.4362 12.84ZM79.4762 13.56H78.4762V14.7327L79.6342 14.5474L79.4762 13.56ZM79.4762 2.75999L79.2593 1.78381L78.4762 1.95782V2.75999H79.4762ZM87.0362 1.56L86.9258 0.566112L87.0362 1.56ZM95.9163 0.839998L95.9688 1.83862L95.9819 1.83793L95.995 1.8369L95.9163 0.839998ZM119.316 1.92L119.083 2.89239L119.092 2.8946L119.101 2.89664L119.316 1.92ZM128.796 6L128.175 6.78349L128.181 6.7886L128.188 6.7936L128.796 6ZM133.956 12.84L133.022 13.1971L133.026 13.2065L133.956 12.84ZM131.916 35.64L132.693 36.2698L131.916 35.64ZM121.356 41.64L121.138 40.6642L120.356 40.8393V41.64H121.356ZM121.356 42.12H120.356V42.9357L121.155 43.0996L121.356 42.12ZM129.396 45.12L128.877 45.9748L129.396 45.12ZM134.556 51.24L133.641 51.6437L133.646 51.6538L134.556 51.24ZM135.036 71.28L134.082 70.9802L134.078 70.9927L134.075 71.0053L135.036 71.28ZM130.356 78.6L131.022 79.3459L131.024 79.3446L130.356 78.6ZM120.636 83.28L120.892 84.2468L120.636 83.28ZM104.196 83.96C101.586 83.96 98.7319 83.8413 95.6329 83.6029L95.4796 85.5971C98.6206 85.8387 101.526 85.96 104.196 85.96V83.96ZM95.6088 83.6014C92.5867 83.4423 89.6051 83.2038 86.6637 82.8858L86.4488 84.8742C89.4274 85.1962 92.4458 85.4377 95.5037 85.5986L95.6088 83.6014ZM86.6938 82.8895C83.8243 82.491 81.3197 82.0933 79.1783 81.6967L78.8142 83.6633C80.9928 84.0667 83.5282 84.469 86.4187 84.8705L86.6938 82.8895ZM79.9963 82.68V72H77.9963V82.68H79.9963ZM78.9084 72.9961C81.6309 73.2364 84.4733 73.4766 87.4354 73.7167L87.5971 71.7233C84.6392 71.4834 81.8016 71.2436 79.0841 71.0039L78.9084 72.9961ZM87.4375 73.7169C90.4827 73.9573 93.3288 74.1578 95.9758 74.3182L96.0967 72.3218C93.4637 72.1622 90.6298 71.9627 87.595 71.7231L87.4375 73.7169ZM96.0069 74.3196C98.733 74.3997 101.063 74.44 102.996 74.44V72.44C101.089 72.44 98.7795 72.4003 96.0657 72.3204L96.0069 74.3196ZM102.996 74.44C107.506 74.44 111.246 74.1989 114.201 73.7064L113.872 71.7336C111.067 72.2011 107.447 72.44 102.996 72.44V74.44ZM114.201 73.7064C117.25 73.1981 119.657 71.9893 121.29 69.9932L119.742 68.7268C118.495 70.2507 116.582 71.2819 113.872 71.7336L114.201 73.7064ZM121.29 69.9932C122.948 67.9676 123.676 64.8855 123.676 60.96H121.676C121.676 64.7145 120.965 67.2324 119.742 68.7268L121.29 69.9932ZM123.676 60.96C123.676 57.5277 123.19 54.7423 122.123 52.6974L120.35 53.6226C121.203 55.2577 121.676 57.6723 121.676 60.96H123.676ZM122.145 52.7433C121.14 50.5504 119.392 49.0513 116.992 48.2513L116.36 50.1487C118.28 50.7887 119.572 51.9296 120.327 53.5767L122.145 52.7433ZM117.035 48.2667C114.792 47.4038 111.813 47 108.156 47V49C111.7 49 114.401 49.3962 116.317 50.1333L117.035 48.2667ZM108.156 47H93.2763V49H108.156V47ZM94.2763 48V36.48H92.2763V48H94.2763ZM93.2763 37.48H108.156V35.48H93.2763V37.48ZM108.156 37.48C110.951 37.48 113.418 37.1517 115.541 36.4724L114.931 34.5676C113.054 35.1683 110.802 35.48 108.156 35.48V37.48ZM115.53 36.4758C117.812 35.7737 119.61 34.4818 120.868 32.5947L119.204 31.4853C118.222 32.9582 116.82 33.9863 114.942 34.5642L115.53 36.4758ZM120.88 32.5769C122.147 30.5861 122.716 27.8048 122.716 24.36H120.716C120.716 27.6352 120.166 29.9739 119.193 31.5031L120.88 32.5769ZM122.716 24.36C122.716 20.4582 122.076 17.4215 120.592 15.474L119.001 16.686C120.077 18.0985 120.716 20.5818 120.716 24.36H122.716ZM120.622 15.5167C119.219 13.4577 116.887 12.2413 113.841 11.7336L113.512 13.7064C116.225 14.1587 117.974 15.1823 118.97 16.6433L120.622 15.5167ZM113.841 11.7336C110.881 11.2403 106.858 11 101.796 11V13C106.815 13 110.711 13.2396 113.512 13.7064L113.841 11.7336ZM101.796 11C99.533 11 97.0331 11.0808 94.2975 11.2417L94.415 13.2383C97.1194 13.0792 99.5795 13 101.796 13V11ZM94.2958 11.2418C91.6457 11.4024 88.9957 11.6032 86.3457 11.8441L86.5268 13.8359C89.1568 13.5968 91.7868 13.3976 94.4167 13.2382L94.2958 11.2418ZM86.3758 11.8418C83.7123 12.0032 81.3586 12.2461 79.3183 12.5726L79.6342 14.5474C81.5939 14.2339 83.8801 13.9967 86.4967 13.8382L86.3758 11.8418ZM80.4762 13.56V2.75999H78.4762V13.56H80.4762ZM79.6932 3.73618C81.8092 3.26595 84.2922 2.87104 87.1467 2.55388L86.9258 0.566112C84.0203 0.888949 81.4633 1.29404 79.2593 1.78381L79.6932 3.73618ZM87.1467 2.55388C90.0065 2.23612 92.9472 1.99765 95.9688 1.83862L95.8637 -0.15862C92.8053 0.00234461 89.826 0.243869 86.9258 0.566112L87.1467 2.55388ZM95.995 1.8369C99.0135 1.59858 101.787 1.48 104.316 1.48V-0.520005C101.726 -0.520005 98.899 -0.398592 95.8375 -0.1569L95.995 1.8369ZM104.316 1.48C110.27 1.48 115.185 1.957 119.083 2.89239L119.55 0.947611C115.447 -0.0370042 110.362 -0.520005 104.316 -0.520005V1.48ZM119.101 2.89664C123.007 3.75577 126.011 5.06695 128.175 6.78349L129.418 5.2165C126.942 3.25304 123.626 1.84422 119.531 0.943354L119.101 2.89664ZM128.188 6.7936C130.447 8.52558 132.051 10.6568 133.022 13.1971L134.89 12.4829C133.782 9.58319 131.946 7.15441 129.405 5.20639L128.188 6.7936ZM133.026 13.2065C134.009 15.7031 134.516 18.6931 134.516 22.2H136.516C136.516 18.5069 135.983 15.2569 134.887 12.4735L133.026 13.2065ZM134.516 22.2C134.516 28.0947 133.333 32.3053 131.139 35.0102L132.693 36.2698C135.3 33.0547 136.516 28.3053 136.516 22.2H134.516ZM131.139 35.0102C128.913 37.7557 125.614 39.661 121.138 40.6642L121.575 42.6158C126.379 41.539 130.119 39.4443 132.693 36.2698L131.139 35.0102ZM120.356 41.64V42.12H122.356V41.64H120.356ZM121.155 43.0996C124.186 43.7214 126.754 44.6856 128.877 45.9748L129.915 44.2652C127.559 42.8344 124.766 41.7986 121.557 41.1404L121.155 43.0996ZM128.877 45.9748C130.919 47.2146 132.512 49.0849 133.641 51.6436L135.471 50.8364C134.2 47.9551 132.353 45.7454 129.915 44.2652L128.877 45.9748ZM133.646 51.6538C134.763 54.1125 135.356 57.5128 135.356 61.92H137.356C137.356 57.3672 136.749 53.6475 135.467 50.8262L133.646 51.6538ZM135.356 61.92C135.356 65.2753 134.927 68.2922 134.082 70.9802L135.99 71.5798C136.905 68.6678 137.356 65.4447 137.356 61.92H135.356ZM134.075 71.0053C133.33 73.6113 131.879 75.892 129.689 77.8554L131.024 79.3446C133.474 77.148 135.142 74.5487 135.998 71.5547L134.075 71.0053ZM129.69 77.8541C127.609 79.712 124.533 81.2162 120.381 82.3132L120.892 84.2468C125.219 83.1038 128.623 81.488 131.022 79.3459L129.69 77.8541ZM120.381 82.3132C116.256 83.4028 110.871 83.96 104.196 83.96V85.96C110.962 85.96 116.537 85.3972 120.892 84.2468L120.381 82.3132Z" fill="white"/>
</svg>
