<svg width="119" height="87" viewBox="0 0 119 87" fill="none" xmlns="http://www.w3.org/2000/svg">
<g filter="url(#filter0_d_0_3321)">
<path d="M28.926 62L28.7417 62.9829L28.7533 62.985L28.7649 62.9869L28.926 62ZM23.91 59.954L23.2783 60.7292L23.2852 60.7348L23.2922 60.7403L23.91 59.954ZM21.27 55.928L20.3122 56.2153L20.3165 56.2299L20.3213 56.2442L21.27 55.928ZM20.214 49.262L19.2152 49.3103L19.2156 49.3189L19.2161 49.3274L20.214 49.262ZM20.214 29.396L19.2161 29.3316L19.2156 29.3392L19.2152 29.3469L20.214 29.396ZM21.27 22.73L20.319 22.4209L20.3165 22.4284L20.3142 22.4359L21.27 22.73ZM23.91 18.638L23.2922 17.8517L23.2852 17.8572L23.2783 17.8628L23.91 18.638ZM28.926 16.658L29.0904 17.6444L29.0985 17.643L29.1067 17.6415L28.926 16.658ZM45.228 16.658L45.0437 17.6409L45.0553 17.643L45.0669 17.6449L45.228 16.658ZM50.244 18.638L49.6123 19.4132L49.6192 19.4188L49.6262 19.4243L50.244 18.638ZM52.95 22.73L51.9989 23.0391L52.0013 23.0462L52.95 22.73ZM54.006 29.396L53.0072 29.4443L53.0072 29.4451L54.006 29.396ZM54.006 49.262L55.0048 49.3111L55.0048 49.3103L54.006 49.262ZM52.95 55.928L53.8987 56.2442L53.901 56.2371L52.95 55.928ZM50.244 59.954L49.6262 59.1677L49.6192 59.1732L49.6123 59.1788L50.244 59.954ZM45.228 62L45.3924 62.9864L45.4005 62.985L45.4087 62.9835L45.228 62ZM42.588 57.446L42.6813 58.4416L42.6967 58.4402L42.712 58.4383L42.588 57.446ZM45.888 56.324L45.3233 55.4987L45.3128 55.5059L45.3025 55.5133L45.888 56.324ZM47.67 53.486L46.7122 53.1987L46.7077 53.2134L46.7038 53.2283L47.67 53.486ZM48.396 48.074L47.3977 48.0164L47.3971 48.026L47.3967 48.0356L48.396 48.074ZM48.396 30.518L47.3967 30.5564L47.3971 30.566L47.3977 30.5756L48.396 30.518ZM47.67 25.106L46.7038 25.3637L46.7077 25.3786L46.7122 25.3933L47.67 25.106ZM45.888 22.268L45.3025 23.0787L45.3128 23.0861L45.3233 23.0933L45.888 22.268ZM42.588 21.212L42.464 22.2043L42.4793 22.2062L42.4947 22.2076L42.588 21.212ZM31.698 21.212L31.7885 22.2079L31.8035 22.2065L31.8183 22.2047L31.698 21.212ZM28.266 22.268L27.7013 21.4427L27.6908 21.4499L27.6805 21.4573L28.266 22.268ZM26.484 25.106L25.5262 24.8187L25.5217 24.8334L25.5178 24.8483L26.484 25.106ZM26.484 53.486L25.5178 53.7437L25.5217 53.7586L25.5262 53.7733L26.484 53.486ZM28.266 56.324L27.6805 57.1347L27.6908 57.1421L27.7013 57.1493L28.266 56.324ZM31.632 57.446L31.508 58.4383L31.5247 58.4404L31.5415 58.4419L31.632 57.446ZM37.11 61.528C33.8397 61.528 31.1703 61.3532 29.0871 61.0131L28.7649 62.9869C30.9937 63.3508 33.7803 63.528 37.11 63.528V61.528ZM29.1103 61.0171C27.1007 60.6403 25.5951 60.0062 24.5278 59.1677L23.2922 60.7403C24.6889 61.8378 26.5273 62.5677 28.7417 62.9829L29.1103 61.0171ZM24.5417 59.1788C23.5255 58.3508 22.7417 57.1807 22.2187 55.6118L20.3213 56.2442C20.9423 58.1073 21.9185 59.6212 23.2783 60.7292L24.5417 59.1788ZM22.2278 55.6407C21.729 53.9777 21.385 51.8366 21.2119 49.1966L19.2161 49.3274C19.395 52.0554 19.755 54.3583 20.3122 56.2153L22.2278 55.6407ZM21.2128 49.2137C21.0819 46.507 21.016 43.2021 21.016 39.296H19.016C19.016 43.2219 19.0821 46.561 19.2152 49.3103L21.2128 49.2137ZM21.016 39.296C21.016 35.3897 21.0819 32.1072 21.2128 29.4451L19.2152 29.3469C19.0821 32.0528 19.016 35.3703 19.016 39.296H21.016ZM21.2119 29.4604C21.3852 26.7743 21.7294 24.6374 22.2258 23.0241L20.3142 22.4359C19.7546 24.2546 19.3948 26.5617 19.2161 29.3316L21.2119 29.4604ZM22.221 23.0391C22.7461 21.4236 23.5312 20.2366 24.5417 19.4132L23.2783 17.8628C21.9128 18.9754 20.9379 20.5164 20.319 22.4209L22.221 23.0391ZM24.5278 19.4243C25.5883 18.5911 27.086 17.9785 29.0904 17.6444L28.7616 15.6716C26.542 16.0415 24.6957 16.7489 23.2922 17.8517L24.5278 19.4243ZM29.1067 17.6415C31.1813 17.2605 33.8435 17.064 37.11 17.064V15.064C33.7765 15.064 30.9827 15.2635 28.7453 15.6745L29.1067 17.6415ZM37.11 17.064C40.3772 17.064 43.0156 17.2606 45.0437 17.6409L45.4123 15.6751C43.2164 15.2634 40.4428 15.064 37.11 15.064V17.064ZM45.0669 17.6449C47.1195 17.9801 48.6056 18.593 49.6123 19.4132L50.8757 17.8628C49.5064 16.747 47.6485 16.0399 45.3891 15.6711L45.0669 17.6449ZM49.6262 19.4243C50.6757 20.249 51.4769 21.4328 51.999 23.0391L53.901 22.4209C53.2791 20.5072 52.2763 18.963 50.8618 17.8517L49.6262 19.4243ZM52.0013 23.0462C52.5338 24.6436 52.8776 26.7661 53.0072 29.4443L55.0048 29.3477C54.8704 26.5699 54.5102 24.2484 53.8987 22.4138L52.0013 23.0462ZM53.0072 29.4451C53.1381 32.1072 53.204 35.3897 53.204 39.296H55.204C55.204 35.3703 55.1379 32.0528 55.0048 29.3469L53.0072 29.4451ZM53.204 39.296C53.204 43.2021 53.1381 46.507 53.0072 49.2137L55.0048 49.3103C55.1379 46.561 55.204 43.2219 55.204 39.296H53.204ZM53.0072 49.2129C52.8778 51.8446 52.5343 53.9716 51.999 55.6189L53.901 56.2371C54.5097 54.3644 54.8702 52.0475 55.0048 49.3111L53.0072 49.2129ZM52.0013 55.6118C51.4814 57.1715 50.6816 58.3385 49.6262 59.1677L50.8618 60.7403C52.2704 59.6335 53.2746 58.1165 53.8987 56.2442L52.0013 55.6118ZM49.6123 59.1788C48.5989 60.0045 47.1047 60.6386 45.0473 61.0165L45.4087 62.9835C47.6633 62.5694 49.5131 61.8395 50.8757 60.7292L49.6123 59.1788ZM45.0636 61.0136C43.0267 61.3531 40.381 61.528 37.11 61.528V63.528C40.439 63.528 43.2053 63.3509 45.3924 62.9864L45.0636 61.0136ZM37.11 58.644C39.3694 58.644 41.2298 58.5777 42.6813 58.4416L42.4947 56.4504C41.1302 56.5783 39.3386 56.644 37.11 56.644V58.644ZM42.712 58.4383C44.2163 58.2502 45.4976 57.8395 46.4735 57.1347L45.3025 55.5133C44.6944 55.9525 43.7757 56.2898 42.464 56.4537L42.712 58.4383ZM46.4527 57.1493C47.5458 56.4014 48.2442 55.2137 48.6362 53.7437L46.7038 53.2283C46.3918 54.3983 45.9022 55.1026 45.3233 55.4987L46.4527 57.1493ZM48.6278 53.7733C49.0588 52.3368 49.3059 50.4371 49.3953 48.1124L47.3967 48.0356C47.3102 50.2869 47.0732 51.9952 46.7122 53.1987L48.6278 53.7733ZM49.3943 48.1316C49.5279 45.817 49.594 42.87 49.594 39.296H47.594C47.594 42.85 47.5281 45.755 47.3977 48.0164L49.3943 48.1316ZM49.594 39.296C49.594 35.722 49.5279 32.775 49.3943 30.4604L47.3977 30.5756C47.5281 32.837 47.594 35.742 47.594 39.296H49.594ZM49.3953 30.4796C49.3059 28.1549 49.0588 26.2552 48.6278 24.8187L46.7122 25.3933C47.0732 26.5968 47.3102 28.3051 47.3967 30.5564L49.3953 30.4796ZM48.6362 24.8483C48.2442 23.3783 47.5458 22.1906 46.4527 21.4427L45.3233 23.0933C45.9022 23.4894 46.3918 24.1937 46.7038 25.3637L48.6362 24.8483ZM46.4735 21.4573C45.4862 20.7443 44.1922 20.358 42.6813 20.2164L42.4947 22.2076C43.7998 22.33 44.7058 22.6477 45.3025 23.0787L46.4735 21.4573ZM42.712 20.2197C41.2464 20.0365 39.3746 19.948 37.11 19.948V21.948C39.3334 21.948 41.1136 22.0355 42.464 22.2043L42.712 20.2197ZM37.11 19.948C34.9307 19.948 33.0835 20.0367 31.5777 20.2193L31.8183 22.2047C33.2165 22.0353 34.9773 21.948 37.11 21.948V19.948ZM31.6075 20.2161C30.0555 20.3572 28.7267 20.7411 27.7013 21.4427L28.8307 23.0933C29.4773 22.6509 30.4365 22.3308 31.7885 22.2079L31.6075 20.2161ZM27.6805 21.4573C26.65 22.2016 25.9601 23.3724 25.5262 24.8187L27.4418 25.3933C27.7999 24.1996 28.298 23.4784 28.8515 23.0787L27.6805 21.4573ZM25.5178 24.8483C25.1382 26.2719 24.914 28.16 24.8247 30.4796L26.8233 30.5564C26.91 28.3 27.1258 26.5801 27.4502 25.3637L25.5178 24.8483ZM24.8247 30.4796C24.7361 32.7853 24.692 35.7254 24.692 39.296H26.692C26.692 35.7386 26.7359 32.8267 26.8233 30.5564L24.8247 30.4796ZM24.692 39.296C24.692 42.8666 24.7361 45.8067 24.8247 48.1124L26.8233 48.0356C26.7359 45.7653 26.692 42.8534 26.692 39.296H24.692ZM24.8247 48.1124C24.914 50.432 25.1382 52.3201 25.5178 53.7437L27.4502 53.2283C27.1258 52.0119 26.91 50.292 26.8233 48.0356L24.8247 48.1124ZM25.5262 53.7733C25.9601 55.2196 26.65 56.3904 27.6805 57.1347L28.8515 55.5133C28.298 55.1136 27.7999 54.3924 27.4418 53.1987L25.5262 53.7733ZM27.7013 57.1493C28.7108 57.84 30.0015 58.25 31.508 58.4383L31.756 56.4537C30.4465 56.29 29.4932 55.952 28.8307 55.4987L27.7013 57.1493ZM31.5415 58.4419C33.0346 58.5776 34.8933 58.644 37.11 58.644V56.644C34.9267 56.644 33.1334 56.5784 31.7225 56.4501L31.5415 58.4419ZM74.3933 62.066L74.5347 61.076L74.526 61.0748L74.5173 61.0737L74.3933 62.066ZM69.1133 60.284L68.5345 61.0995L68.5494 61.1101L68.5646 61.12L69.1133 60.284ZM65.9453 55.862L66.8808 55.5086L66.8721 55.4857L66.8624 55.4633L65.9453 55.862ZM64.9553 52.1L63.9659 52.2455L64.9553 52.1ZM64.4273 46.82L63.4282 46.8625L63.4287 46.8738L63.4294 46.8851L64.4273 46.82ZM64.4273 33.158L63.4295 33.0915L63.4288 33.1025L63.4283 33.1136L64.4273 33.158ZM64.9553 27.878L63.9697 27.709L63.9673 27.7228L63.9653 27.7366L64.9553 27.878ZM65.9453 23.786L65.0049 23.4459L65.0006 23.4578L64.9966 23.4698L65.9453 23.786ZM69.1793 19.034L69.7949 19.822V19.822L69.1793 19.034ZM86.6033 16.262L86.5154 17.2581L86.5308 17.2595L86.5462 17.2604L86.6033 16.262ZM91.3553 16.658L91.2478 17.6522L91.2506 17.6525L91.3553 16.658ZM96.1073 17.252H97.1073V16.3883L96.2528 16.2626L96.1073 17.252ZM96.1073 21.806L95.9793 22.7978L97.1073 22.9433V21.806H96.1073ZM91.7513 21.41L91.6634 22.4061L91.6788 22.4075L91.6943 22.4084L91.7513 21.41ZM87.3953 21.08L87.3309 22.0779L87.3329 22.0781L87.3953 21.08ZM76.4393 21.608L76.2077 20.6352L76.2023 20.6365L76.4393 21.608ZM72.3473 24.05L73.1367 24.6639L72.3473 24.05ZM70.4993 29.264L71.49 29.4L71.4904 29.3974L70.4993 29.264ZM70.0373 38.174H69.0373V39.174H70.0373V38.174ZM70.4333 38.174V39.174H70.8732L71.1705 38.8497L70.4333 38.174ZM72.4793 36.656L72.9612 37.5322L72.9777 37.5232L72.9938 37.5135L72.4793 36.656ZM76.3073 35.402L76.4885 36.3855L76.4984 36.3836L76.5082 36.3816L76.3073 35.402ZM95.1173 37.118L94.5361 37.9317V37.9317L95.1173 37.118ZM97.7573 40.946L96.8037 41.2471L96.8073 41.2585L96.8111 41.2697L97.7573 40.946ZM97.9553 54.872L96.9802 54.6504L96.9778 54.661L96.9756 54.6716L97.9553 54.872ZM95.5793 59.426L96.2587 60.1598L95.5793 59.426ZM90.5633 61.802L90.7823 62.7777L90.5633 61.802ZM87.3293 57.38L87.2125 56.3868L87.3293 57.38ZM90.8273 56.258L91.392 57.0833L91.4064 57.0734L91.4205 57.0631L90.8273 56.258ZM92.5433 53.618L91.5777 53.358L92.5433 53.618ZM92.5433 43.85L91.5732 44.0925V44.0925L92.5433 43.85ZM90.8933 41.144L90.2794 41.9334L90.2934 41.9443L90.3078 41.9547L90.8933 41.144ZM87.4613 40.022L87.3445 41.0152L87.3589 41.0169L87.3734 41.0181L87.4613 40.022ZM75.4493 40.154L75.2803 39.1684L75.4493 40.154ZM72.0173 41.474L72.6479 42.2501L72.653 42.2459L72.0173 41.474ZM70.5653 43.718L69.6038 43.4433L69.5977 43.4647L69.5925 43.4864L70.5653 43.718ZM70.7633 52.826L69.7932 53.0685L69.7967 53.0827L69.8006 53.0967L70.7633 52.826ZM72.6113 55.994L71.9672 56.7589L71.9768 56.767L71.9866 56.7749L72.6113 55.994ZM76.1093 57.38L75.9595 58.3687L75.9742 58.3709L75.989 58.3727L76.1093 57.38ZM82.1813 61.528C79.1757 61.528 76.6297 61.3753 74.5347 61.076L74.2519 63.056C76.4689 63.3727 79.1149 63.528 82.1813 63.528V61.528ZM74.5173 61.0737C72.5181 60.8238 70.913 60.269 69.662 59.448L68.5646 61.12C70.1295 62.147 72.0445 62.7802 74.2693 63.0583L74.5173 61.0737ZM69.692 59.4685C68.5285 58.6428 67.5771 57.3518 66.8808 55.5086L65.0098 56.2154C65.8095 58.3322 66.9701 59.9892 68.5345 61.0995L69.692 59.4685ZM66.8624 55.4633C66.4678 54.5557 66.1562 53.393 65.9447 51.9545L63.9659 52.2455C64.1944 53.799 64.5428 55.1443 65.0282 56.2607L66.8624 55.4633ZM65.9447 51.9545C65.7296 50.4924 65.556 48.7604 65.4252 46.7549L63.4294 46.8851C63.5626 48.9276 63.741 50.7156 63.9659 52.2455L65.9447 51.9545ZM65.4264 46.7775C65.3391 44.7269 65.2953 42.3875 65.2953 39.758H63.2953C63.2953 42.4085 63.3395 44.7771 63.4282 46.8625L65.4264 46.7775ZM65.2953 39.758C65.2953 37.3497 65.3391 35.1648 65.4263 33.2024L63.4283 33.1136C63.3395 35.1112 63.2953 37.3263 63.2953 39.758H65.2953ZM65.4251 33.2245C65.5558 31.2631 65.7296 29.5289 65.9452 28.0194L63.9653 27.7366C63.741 29.3071 63.5628 31.0929 63.4295 33.0915L65.4251 33.2245ZM65.9409 28.047C66.1984 26.5452 66.5174 25.2321 66.894 24.1022L64.9966 23.4698C64.5812 24.7159 64.2402 26.1307 63.9697 27.709L65.9409 28.047ZM66.8857 24.1261C67.5845 22.1941 68.566 20.7821 69.7949 19.822L68.5637 18.246C66.9766 19.4859 65.8021 21.2418 65.0049 23.4459L66.8857 24.1261ZM69.7949 19.822C71.0527 18.8394 72.7022 18.1216 74.7874 17.7046L74.3952 15.7434C72.0804 16.2064 70.1219 17.0286 68.5637 18.246L69.7949 19.822ZM74.7874 17.7046C76.9025 17.2816 79.5166 17.064 82.6433 17.064V15.064C79.434 15.064 76.6801 15.2864 74.3952 15.7434L74.7874 17.7046ZM82.6433 17.064C83.7505 17.064 85.0402 17.128 86.5154 17.2581L86.6912 15.2659C85.1744 15.132 83.8241 15.064 82.6433 15.064V17.064ZM86.5462 17.2604C88.0684 17.3473 89.6356 17.4779 91.2478 17.6522L91.4628 15.6638C89.819 15.4861 88.2182 15.3526 86.6603 15.2636L86.5462 17.2604ZM91.2506 17.6525C92.9105 17.8272 94.4808 18.0236 95.9618 18.2414L96.2528 16.2626C94.7418 16.0404 93.1441 15.8408 91.46 15.6635L91.2506 17.6525ZM95.1073 17.252V21.806H97.1073V17.252H95.1073ZM96.2353 20.8142C94.8451 20.6348 93.3693 20.5008 91.8083 20.4116L91.6943 22.4084C93.2133 22.4952 94.6415 22.6252 95.9793 22.7978L96.2353 20.8142ZM91.8392 20.4139C90.3352 20.2812 88.8747 20.1705 87.4577 20.0819L87.3329 22.0781C88.7319 22.1655 90.1754 22.2748 91.6634 22.4061L91.8392 20.4139ZM87.4597 20.0821C86.0811 19.9931 84.8707 19.948 83.8313 19.948V21.948C84.8159 21.948 85.9815 21.9909 87.3309 22.0779L87.4597 20.0821ZM83.8313 19.948C80.7151 19.948 78.1636 20.1695 76.2077 20.6352L76.6709 22.5808C78.411 22.1665 80.7875 21.948 83.8313 21.948V19.948ZM76.2023 20.6365C74.2317 21.1171 72.6504 22.0315 71.5579 23.4361L73.1367 24.6639C73.8922 23.6925 75.0389 22.9789 76.6763 22.5795L76.2023 20.6365ZM71.5579 23.4361C70.4823 24.819 69.8283 26.7533 69.5082 29.1306L71.4904 29.3974C71.7863 27.1987 72.3643 25.657 73.1367 24.6639L71.5579 23.4361ZM69.5086 29.128C69.1918 31.4362 69.0373 34.4571 69.0373 38.174H71.0373C71.0373 34.4989 71.1908 31.5798 71.49 29.4L69.5086 29.128ZM70.0373 39.174H70.4333V37.174H70.0373V39.174ZM71.1705 38.8497C71.5578 38.4271 72.1413 37.9832 72.9612 37.5322L71.9974 35.7798C71.0573 36.2968 70.2768 36.8649 69.6961 37.4983L71.1705 38.8497ZM72.9938 37.5135C73.7256 37.0744 74.8673 36.6841 76.4885 36.3855L76.1261 34.4185C74.4033 34.7359 72.993 35.1816 71.9648 35.7985L72.9938 37.5135ZM76.5082 36.3816C78.13 36.0489 80.3422 35.874 83.1713 35.874V33.874C80.2804 33.874 77.9166 34.0511 76.1064 34.4224L76.5082 36.3816ZM83.1713 35.874C85.9098 35.874 88.2316 36.0264 90.1456 36.3241L90.453 34.3479C88.407 34.0296 85.9768 33.874 83.1713 33.874V35.874ZM90.1456 36.3241C92.0192 36.6156 93.4653 37.1669 94.5361 37.9317L95.6985 36.3043C94.3053 35.3091 92.5393 34.6724 90.453 34.3479L90.1456 36.3241ZM94.5361 37.9317C95.5647 38.6665 96.3303 39.7478 96.8037 41.2471L98.7109 40.6449C98.1283 38.8002 97.1339 37.3295 95.6985 36.3043L94.5361 37.9317ZM96.8111 41.2697C97.3332 42.7956 97.6153 44.8949 97.6153 47.612H99.6153C99.6153 44.7851 99.3254 42.4404 98.7035 40.6223L96.8111 41.2697ZM97.6153 47.612C97.6153 50.4724 97.398 52.8121 96.9802 54.6504L98.9304 55.0936C99.3926 53.0599 99.6153 50.5596 99.6153 47.612H97.6153ZM96.9756 54.6716C96.6121 56.4488 95.9033 57.7631 94.8999 58.6922L96.2587 60.1598C97.6313 58.8889 98.5065 57.1672 98.935 55.0724L96.9756 54.6716ZM94.8999 58.6922C93.8801 59.6365 92.3884 60.3674 90.3443 60.8263L90.7823 62.7777C93.0502 62.2686 94.9025 61.4155 96.2587 60.1598L94.8999 58.6922ZM90.3443 60.8263C88.2882 61.2879 85.5753 61.528 82.1813 61.528V63.528C85.6513 63.528 88.5264 63.2841 90.7823 62.7777L90.3443 60.8263ZM81.6533 58.644C83.9626 58.644 85.897 58.5554 87.4461 58.3731L87.2125 56.3868C85.7696 56.5566 83.92 56.644 81.6533 56.644V58.644ZM87.4461 58.3731C89.0307 58.1867 90.3732 57.7804 91.392 57.0833L90.2626 55.4327C89.6094 55.8796 88.6199 56.2213 87.2125 56.3868L87.4461 58.3731ZM91.4205 57.0631C92.4641 56.2941 93.1508 55.2082 93.5089 53.878L91.5777 53.358C91.3198 54.3158 90.8625 54.9899 90.2341 55.4529L91.4205 57.0631ZM93.5089 53.878C93.8502 52.6102 94.0053 50.9252 94.0053 48.866H92.0053C92.0053 50.8548 91.8523 52.3378 91.5777 53.358L93.5089 53.878ZM94.0053 48.866C94.0053 46.7185 93.85 44.9537 93.5134 43.6075L91.5732 44.0925C91.8526 45.2103 92.0053 46.7895 92.0053 48.866H94.0053ZM93.5134 43.6075C93.1657 42.2164 92.5132 41.0804 91.4788 40.3333L90.3078 41.9547C90.8574 42.3516 91.3049 43.0196 91.5732 44.0925L93.5134 43.6075ZM91.5072 40.3546C90.5056 39.5756 89.1477 39.1669 87.5492 39.0259L87.3734 41.0181C88.7669 41.1411 89.697 41.4804 90.2794 41.9334L91.5072 40.3546ZM87.5781 39.0288C86.0279 38.8465 84.0488 38.758 81.6533 38.758V40.758C84.0098 40.758 85.9027 40.8455 87.3445 41.0152L87.5781 39.0288ZM81.6533 38.758C79.0325 38.758 76.9006 38.8906 75.2803 39.1684L75.6183 41.1396C77.078 40.8894 79.0821 40.758 81.6533 40.758V38.758ZM75.2803 39.1684C73.6632 39.4456 72.3223 39.9273 71.3816 40.7021L72.653 42.2459C73.2082 41.7887 74.1554 41.3904 75.6183 41.1396L75.2803 39.1684ZM71.3867 40.6979C70.5139 41.407 69.9205 42.3346 69.6038 43.4433L71.5268 43.9927C71.738 43.2534 72.1127 42.685 72.6479 42.2501L71.3867 40.6979ZM69.5925 43.4864C69.349 44.5092 69.2353 45.7138 69.2353 47.084H71.2353C71.2353 45.8142 71.3416 44.7748 71.5381 43.9496L69.5925 43.4864ZM69.2353 47.084C69.2353 49.5392 69.4125 51.5461 69.7932 53.0685L71.7334 52.5835C71.41 51.2899 71.2353 49.4688 71.2353 47.084H69.2353ZM69.8006 53.0967C70.2329 54.6337 70.9339 55.8888 71.9672 56.7589L73.2554 55.2291C72.6167 54.6912 72.0857 53.8343 71.7259 52.5553L69.8006 53.0967ZM71.9866 56.7749C73.0394 57.6171 74.385 58.1302 75.9595 58.3687L76.2591 56.3913C74.9296 56.1898 73.9432 55.7789 73.236 55.2131L71.9866 56.7749ZM75.989 58.3727C77.496 58.5554 79.3879 58.644 81.6533 58.644V56.644C79.4307 56.644 77.6266 56.5566 76.2296 56.3873L75.989 58.3727Z" fill="#F4871F"/>
</g>
<defs>
<filter id="filter0_d_0_3321" x="0.0159912" y="0.0639954" width="118.599" height="86.464" filterUnits="userSpaceOnUse" color-interpolation-filters="sRGB">
<feFlood flood-opacity="0" result="BackgroundImageFix"/>
<feColorMatrix in="SourceAlpha" type="matrix" values="0 0 0 0 0 0 0 0 0 0 0 0 0 0 0 0 0 0 127 0" result="hardAlpha"/>
<feOffset dy="4"/>
<feGaussianBlur stdDeviation="10"/>
<feComposite in2="hardAlpha" operator="out"/>
<feColorMatrix type="matrix" values="0 0 0 0 0.956863 0 0 0 0 0.529412 0 0 0 0 0.121569 0 0 0 1 0"/>
<feBlend mode="normal" in2="BackgroundImageFix" result="effect1_dropShadow_0_3321"/>
<feBlend mode="normal" in="SourceGraphic" in2="effect1_dropShadow_0_3321" result="shape"/>
</filter>
</defs>
</svg>
