<svg width="120" height="87" viewBox="0 0 120 87" fill="none" xmlns="http://www.w3.org/2000/svg">
<g filter="url(#filter0_d_0_3329)">
<path d="M28.926 62L28.7417 62.9829L28.7533 62.985L28.7649 62.9869L28.926 62ZM23.91 59.954L23.2783 60.7292L23.2852 60.7348L23.2922 60.7403L23.91 59.954ZM21.27 55.928L20.3122 56.2153L20.3165 56.2299L20.3213 56.2442L21.27 55.928ZM20.214 49.262L19.2152 49.3103L19.2156 49.3189L19.2161 49.3274L20.214 49.262ZM20.214 29.396L19.2161 29.3316L19.2156 29.3392L19.2152 29.3469L20.214 29.396ZM21.27 22.73L20.319 22.4209L20.3165 22.4284L20.3142 22.4359L21.27 22.73ZM23.91 18.638L23.2922 17.8517L23.2852 17.8572L23.2783 17.8628L23.91 18.638ZM28.926 16.658L29.0904 17.6444L29.0985 17.643L29.1067 17.6415L28.926 16.658ZM45.228 16.658L45.0437 17.6409L45.0553 17.643L45.0669 17.6449L45.228 16.658ZM50.244 18.638L49.6123 19.4132L49.6192 19.4188L49.6262 19.4243L50.244 18.638ZM52.95 22.73L51.9989 23.0391L52.0013 23.0462L52.95 22.73ZM54.006 29.396L53.0072 29.4443L53.0072 29.4451L54.006 29.396ZM54.006 49.262L55.0048 49.3111L55.0048 49.3103L54.006 49.262ZM52.95 55.928L53.8987 56.2442L53.901 56.2371L52.95 55.928ZM50.244 59.954L49.6262 59.1677L49.6192 59.1732L49.6123 59.1788L50.244 59.954ZM45.228 62L45.3924 62.9864L45.4005 62.985L45.4087 62.9835L45.228 62ZM42.588 57.446L42.6813 58.4416L42.6967 58.4402L42.712 58.4383L42.588 57.446ZM45.888 56.324L45.3233 55.4987L45.3128 55.5059L45.3025 55.5133L45.888 56.324ZM47.67 53.486L46.7122 53.1987L46.7077 53.2134L46.7038 53.2283L47.67 53.486ZM48.396 48.074L47.3977 48.0164L47.3971 48.026L47.3967 48.0356L48.396 48.074ZM48.396 30.518L47.3967 30.5564L47.3971 30.566L47.3977 30.5756L48.396 30.518ZM47.67 25.106L46.7038 25.3637L46.7077 25.3786L46.7122 25.3933L47.67 25.106ZM45.888 22.268L45.3025 23.0787L45.3128 23.0861L45.3233 23.0933L45.888 22.268ZM42.588 21.212L42.464 22.2043L42.4793 22.2062L42.4947 22.2076L42.588 21.212ZM31.698 21.212L31.7885 22.2079L31.8035 22.2065L31.8183 22.2047L31.698 21.212ZM28.266 22.268L27.7013 21.4427L27.6908 21.4499L27.6805 21.4573L28.266 22.268ZM26.484 25.106L25.5262 24.8187L25.5217 24.8334L25.5178 24.8483L26.484 25.106ZM26.484 53.486L25.5178 53.7437L25.5217 53.7586L25.5262 53.7733L26.484 53.486ZM28.266 56.324L27.6805 57.1347L27.6908 57.1421L27.7013 57.1493L28.266 56.324ZM31.632 57.446L31.508 58.4383L31.5247 58.4404L31.5415 58.4419L31.632 57.446ZM37.11 61.528C33.8397 61.528 31.1703 61.3532 29.0871 61.0131L28.7649 62.9869C30.9937 63.3508 33.7803 63.528 37.11 63.528V61.528ZM29.1103 61.0171C27.1007 60.6403 25.5951 60.0062 24.5278 59.1677L23.2922 60.7403C24.6889 61.8378 26.5273 62.5677 28.7417 62.9829L29.1103 61.0171ZM24.5417 59.1788C23.5255 58.3508 22.7417 57.1807 22.2187 55.6118L20.3213 56.2442C20.9423 58.1073 21.9185 59.6212 23.2783 60.7292L24.5417 59.1788ZM22.2278 55.6407C21.729 53.9777 21.385 51.8366 21.2119 49.1966L19.2161 49.3274C19.395 52.0554 19.755 54.3583 20.3122 56.2153L22.2278 55.6407ZM21.2128 49.2137C21.0819 46.507 21.016 43.2021 21.016 39.296H19.016C19.016 43.2219 19.0821 46.561 19.2152 49.3103L21.2128 49.2137ZM21.016 39.296C21.016 35.3897 21.0819 32.1072 21.2128 29.4451L19.2152 29.3469C19.0821 32.0528 19.016 35.3703 19.016 39.296H21.016ZM21.2119 29.4604C21.3852 26.7743 21.7294 24.6374 22.2258 23.0241L20.3142 22.4359C19.7546 24.2546 19.3948 26.5617 19.2161 29.3316L21.2119 29.4604ZM22.221 23.0391C22.7461 21.4236 23.5312 20.2366 24.5417 19.4132L23.2783 17.8628C21.9128 18.9754 20.9379 20.5164 20.319 22.4209L22.221 23.0391ZM24.5278 19.4243C25.5883 18.5911 27.086 17.9785 29.0904 17.6444L28.7616 15.6716C26.542 16.0415 24.6957 16.7489 23.2922 17.8517L24.5278 19.4243ZM29.1067 17.6415C31.1813 17.2605 33.8435 17.064 37.11 17.064V15.064C33.7765 15.064 30.9827 15.2635 28.7453 15.6745L29.1067 17.6415ZM37.11 17.064C40.3772 17.064 43.0156 17.2606 45.0437 17.6409L45.4123 15.6751C43.2164 15.2634 40.4428 15.064 37.11 15.064V17.064ZM45.0669 17.6449C47.1195 17.9801 48.6056 18.593 49.6123 19.4132L50.8757 17.8628C49.5064 16.747 47.6485 16.0399 45.3891 15.6711L45.0669 17.6449ZM49.6262 19.4243C50.6757 20.249 51.4769 21.4328 51.999 23.0391L53.901 22.4209C53.2791 20.5072 52.2763 18.963 50.8618 17.8517L49.6262 19.4243ZM52.0013 23.0462C52.5338 24.6436 52.8776 26.7661 53.0072 29.4443L55.0048 29.3477C54.8704 26.5699 54.5102 24.2484 53.8987 22.4138L52.0013 23.0462ZM53.0072 29.4451C53.1381 32.1072 53.204 35.3897 53.204 39.296H55.204C55.204 35.3703 55.1379 32.0528 55.0048 29.3469L53.0072 29.4451ZM53.204 39.296C53.204 43.2021 53.1381 46.507 53.0072 49.2137L55.0048 49.3103C55.1379 46.561 55.204 43.2219 55.204 39.296H53.204ZM53.0072 49.2129C52.8778 51.8446 52.5343 53.9716 51.999 55.6189L53.901 56.2371C54.5097 54.3644 54.8702 52.0475 55.0048 49.3111L53.0072 49.2129ZM52.0013 55.6118C51.4814 57.1715 50.6816 58.3385 49.6262 59.1677L50.8618 60.7403C52.2704 59.6335 53.2746 58.1165 53.8987 56.2442L52.0013 55.6118ZM49.6123 59.1788C48.5989 60.0045 47.1047 60.6386 45.0473 61.0165L45.4087 62.9835C47.6633 62.5694 49.5131 61.8395 50.8757 60.7292L49.6123 59.1788ZM45.0636 61.0136C43.0267 61.3531 40.381 61.528 37.11 61.528V63.528C40.439 63.528 43.2053 63.3509 45.3924 62.9864L45.0636 61.0136ZM37.11 58.644C39.3694 58.644 41.2298 58.5777 42.6813 58.4416L42.4947 56.4504C41.1302 56.5783 39.3386 56.644 37.11 56.644V58.644ZM42.712 58.4383C44.2163 58.2502 45.4976 57.8395 46.4735 57.1347L45.3025 55.5133C44.6944 55.9525 43.7757 56.2898 42.464 56.4537L42.712 58.4383ZM46.4527 57.1493C47.5458 56.4014 48.2442 55.2137 48.6362 53.7437L46.7038 53.2283C46.3918 54.3983 45.9022 55.1026 45.3233 55.4987L46.4527 57.1493ZM48.6278 53.7733C49.0588 52.3368 49.3059 50.4371 49.3953 48.1124L47.3967 48.0356C47.3102 50.2869 47.0732 51.9952 46.7122 53.1987L48.6278 53.7733ZM49.3943 48.1316C49.5279 45.817 49.594 42.87 49.594 39.296H47.594C47.594 42.85 47.5281 45.755 47.3977 48.0164L49.3943 48.1316ZM49.594 39.296C49.594 35.722 49.5279 32.775 49.3943 30.4604L47.3977 30.5756C47.5281 32.837 47.594 35.742 47.594 39.296H49.594ZM49.3953 30.4796C49.3059 28.1549 49.0588 26.2552 48.6278 24.8187L46.7122 25.3933C47.0732 26.5968 47.3102 28.3051 47.3967 30.5564L49.3953 30.4796ZM48.6362 24.8483C48.2442 23.3783 47.5458 22.1906 46.4527 21.4427L45.3233 23.0933C45.9022 23.4894 46.3918 24.1937 46.7038 25.3637L48.6362 24.8483ZM46.4735 21.4573C45.4862 20.7443 44.1922 20.358 42.6813 20.2164L42.4947 22.2076C43.7998 22.33 44.7058 22.6477 45.3025 23.0787L46.4735 21.4573ZM42.712 20.2197C41.2464 20.0365 39.3746 19.948 37.11 19.948V21.948C39.3334 21.948 41.1136 22.0355 42.464 22.2043L42.712 20.2197ZM37.11 19.948C34.9307 19.948 33.0835 20.0367 31.5777 20.2193L31.8183 22.2047C33.2165 22.0353 34.9773 21.948 37.11 21.948V19.948ZM31.6075 20.2161C30.0555 20.3572 28.7267 20.7411 27.7013 21.4427L28.8307 23.0933C29.4773 22.6509 30.4365 22.3308 31.7885 22.2079L31.6075 20.2161ZM27.6805 21.4573C26.65 22.2016 25.9601 23.3724 25.5262 24.8187L27.4418 25.3933C27.7999 24.1996 28.298 23.4784 28.8515 23.0787L27.6805 21.4573ZM25.5178 24.8483C25.1382 26.2719 24.914 28.16 24.8247 30.4796L26.8233 30.5564C26.91 28.3 27.1258 26.5801 27.4502 25.3637L25.5178 24.8483ZM24.8247 30.4796C24.7361 32.7853 24.692 35.7254 24.692 39.296H26.692C26.692 35.7386 26.7359 32.8267 26.8233 30.5564L24.8247 30.4796ZM24.692 39.296C24.692 42.8666 24.7361 45.8067 24.8247 48.1124L26.8233 48.0356C26.7359 45.7653 26.692 42.8534 26.692 39.296H24.692ZM24.8247 48.1124C24.914 50.432 25.1382 52.3201 25.5178 53.7437L27.4502 53.2283C27.1258 52.0119 26.91 50.292 26.8233 48.0356L24.8247 48.1124ZM25.5262 53.7733C25.9601 55.2196 26.65 56.3904 27.6805 57.1347L28.8515 55.5133C28.298 55.1136 27.7999 54.3924 27.4418 53.1987L25.5262 53.7733ZM27.7013 57.1493C28.7108 57.84 30.0015 58.25 31.508 58.4383L31.756 56.4537C30.4465 56.29 29.4932 55.952 28.8307 55.4987L27.7013 57.1493ZM31.5415 58.4419C33.0346 58.5776 34.8933 58.644 37.11 58.644V56.644C34.9267 56.644 33.1334 56.5784 31.7225 56.4501L31.5415 58.4419ZM72.7433 61.736L72.5051 62.7072L72.5138 62.7093L72.5225 62.7113L72.7433 61.736ZM67.3973 59.294L66.7313 60.0399L66.7388 60.0467L66.7465 60.0533L67.3973 59.294ZM64.8233 55.334L63.8598 55.6016L63.8643 55.6178L63.8693 55.6338L64.8233 55.334ZM65.0873 43.85L64.1769 43.4362L64.174 43.4427L64.1711 43.4492L65.0873 43.85ZM67.9253 40.616L68.4214 41.4842L67.9253 40.616ZM72.4133 38.966L72.6328 39.9416L73.4133 39.766V38.966H72.4133ZM72.4133 38.702H73.4133V37.8796L72.6063 37.7208L72.4133 38.702ZM66.4733 35.468L65.6783 36.0747L65.6862 36.0849L66.4733 35.468ZM65.3513 22.73L66.2943 23.0628L65.3513 22.73ZM68.0573 19.034L68.6617 19.8307L68.6703 19.8242L68.6787 19.8175L68.0573 19.034ZM73.3373 16.79L73.1265 15.8125V15.8125L73.3373 16.79ZM90.2333 16.79L90.4441 15.8125V15.8125L90.2333 16.79ZM95.5133 19.034L94.8919 19.8175L94.9003 19.8242L94.9089 19.8307L95.5133 19.034ZM97.0973 35.468L97.8844 36.0849L97.8923 36.0747L97.0973 35.468ZM91.1573 38.702L90.9643 37.7208L90.1573 37.8796V38.702H91.1573ZM91.1573 38.966H90.1573V39.7703L90.9429 39.9427L91.1573 38.966ZM95.6453 40.616L95.1355 41.4763L95.1423 41.4803L95.1492 41.4842L95.6453 40.616ZM98.4173 43.85L97.4967 44.2405L97.504 44.2576L97.5118 44.2744L98.4173 43.85ZM98.6813 55.334L97.7249 55.0418L97.7223 55.0505L97.7198 55.0593L98.6813 55.334ZM96.1073 59.294L96.7581 60.0533L96.7602 60.0514L96.1073 59.294ZM90.8273 61.736L91.0522 62.7104L91.061 62.7083L91.0698 62.7061L90.8273 61.736ZM88.9133 57.116L89.1142 58.0956L89.1262 58.0931L89.1382 58.0904L88.9133 57.116ZM92.5433 54.806L91.7063 54.2588L91.6988 54.2702L91.6916 54.2819L92.5433 54.806ZM93.1373 45.368L92.1848 45.6728L92.1886 45.6842L93.1373 45.368ZM91.2893 42.86L90.7246 43.6853L90.7344 43.692L90.7443 43.6984L91.2893 42.86ZM75.8453 41.738L75.9588 42.7315L75.8453 41.738ZM72.2153 42.86L71.6703 42.0216L71.6604 42.028L71.6506 42.0347L72.2153 42.86ZM70.4333 45.368L69.4809 45.0632L69.4769 45.0756L69.4733 45.088L70.4333 45.368ZM74.6573 57.116L74.4324 58.0904L74.4444 58.0931L74.4564 58.0956L74.6573 57.116ZM88.9133 35.996L89.1497 36.9677L89.162 36.9647L89.1742 36.9614L88.9133 35.996ZM92.2793 33.686L91.413 33.1862L91.4068 33.1974L92.2793 33.686ZM92.3453 23.984L91.4509 24.4312L91.4613 24.4522L91.4728 24.4726L92.3453 23.984ZM88.9793 21.608L88.7184 22.5734L88.7248 22.5751L88.9793 21.608ZM74.5253 21.608L74.2708 20.6409L74.2644 20.6426L74.5253 21.608ZM71.2253 23.984L72.1125 24.4453L72.1162 24.4383L72.1197 24.4312L71.2253 23.984ZM71.2913 33.686L70.4108 34.1601L70.4147 34.1674L70.4188 34.1746L71.2913 33.686ZM74.6573 35.996L74.3964 36.9614L74.4115 36.9655L74.4268 36.9691L74.6573 35.996ZM81.7853 61.528C78.128 61.528 75.1957 61.2659 72.9641 60.7607L72.5225 62.7113C74.9549 63.2621 78.0506 63.528 81.7853 63.528V61.528ZM72.9815 60.7648C70.7345 60.2136 69.1178 59.4516 68.0481 58.5347L66.7465 60.0533C68.1408 61.2484 70.0881 62.1144 72.5051 62.7072L72.9815 60.7648ZM68.0633 58.5481C66.9625 57.5652 66.206 56.3981 65.7773 55.0342L63.8693 55.6338C64.4086 57.3499 65.3681 58.8228 66.7313 60.0399L68.0633 58.5481ZM65.7868 55.0664C65.3763 53.5885 65.1633 51.8557 65.1633 49.856H63.1633C63.1633 51.9923 63.3903 53.9115 63.8598 55.6016L65.7868 55.0664ZM65.1633 49.856C65.1633 47.3157 65.4682 45.4742 66.0035 44.2508L64.1711 43.4492C63.4744 45.0418 63.1633 47.2043 63.1633 49.856H65.1633ZM65.9977 44.2638C66.582 42.9783 67.3941 42.0713 68.4214 41.4842L67.4292 39.7478C65.9925 40.5687 64.9126 41.8177 64.1769 43.4362L65.9977 44.2638ZM68.4214 41.4842C69.5474 40.8409 70.9449 40.3214 72.6328 39.9416L72.1938 37.9904C70.3617 38.4026 68.7672 38.9831 67.4292 39.7478L68.4214 41.4842ZM73.4133 38.966V38.702H71.4133V38.966H73.4133ZM72.6063 37.7208C70.0807 37.224 68.3463 36.2367 67.2604 34.8511L65.6862 36.0849C67.1523 37.9553 69.3779 39.124 72.2203 39.6832L72.6063 37.7208ZM67.2682 34.8613C66.1819 33.4379 65.5593 31.2074 65.5593 28.01H63.5593C63.5593 31.4125 64.2127 34.1541 65.6783 36.0747L67.2682 34.8613ZM65.5593 28.01C65.5593 26.0696 65.8128 24.427 66.2943 23.0628L64.4083 22.3972C63.8338 24.025 63.5593 25.9024 63.5593 28.01H65.5593ZM66.2943 23.0628C66.7565 21.7531 67.5399 20.6817 68.6617 19.8307L67.4529 18.2373C66.0227 19.3223 65.0021 20.7149 64.4083 22.3972L66.2943 23.0628ZM68.6787 19.8175C69.7957 18.9316 71.3966 18.2316 73.5481 17.7675L73.1265 15.8125C70.79 16.3164 68.8709 17.1124 67.4359 18.2505L68.6787 19.8175ZM73.5481 17.7675C75.6986 17.3037 78.4381 17.064 81.7853 17.064V15.064C78.3565 15.064 75.464 15.3083 73.1265 15.8125L73.5481 17.7675ZM81.7853 17.064C85.1325 17.064 87.872 17.3037 90.0225 17.7675L90.4441 15.8125C88.1066 15.3083 85.2141 15.064 81.7853 15.064V17.064ZM90.0225 17.7675C92.174 18.2316 93.7749 18.9316 94.8919 19.8175L96.1347 18.2505C94.6997 17.1124 92.7806 16.3164 90.4441 15.8125L90.0225 17.7675ZM94.9089 19.8307C96.0307 20.6817 96.814 21.7531 97.2763 23.0628L99.1623 22.3972C98.5685 20.7149 97.5479 19.3223 96.1177 18.2373L94.9089 19.8307ZM97.2763 23.0628C97.7578 24.427 98.0113 26.0696 98.0113 28.01H100.011C100.011 25.9024 99.7368 24.025 99.1623 22.3972L97.2763 23.0628ZM98.0113 28.01C98.0113 31.2074 97.3887 33.4379 96.3023 34.8613L97.8923 36.0747C99.3579 34.1541 100.011 31.4125 100.011 28.01H98.0113ZM96.3102 34.8511C95.2243 36.2367 93.4899 37.224 90.9643 37.7208L91.3503 39.6832C94.1927 39.124 96.4183 37.9553 97.8844 36.0849L96.3102 34.8511ZM90.1573 38.702V38.966H92.1573V38.702H90.1573ZM90.9429 39.9427C92.6757 40.3231 94.0641 40.8414 95.1355 41.4763L96.1551 39.7557C94.8504 38.9826 93.2469 38.4009 91.3717 37.9893L90.9429 39.9427ZM95.1492 41.4842C96.1701 42.0676 96.9561 42.9662 97.4967 44.2405L99.3379 43.4594C98.6465 41.8298 97.5845 40.5724 96.1414 39.7478L95.1492 41.4842ZM97.5118 44.2744C98.0813 45.4893 98.4073 47.321 98.4073 49.856H100.407C100.407 47.199 100.073 45.0267 99.3228 43.4256L97.5118 44.2744ZM98.4073 49.856C98.4073 51.8485 98.1739 53.5726 97.7249 55.0418L99.6376 55.6262C100.157 53.9274 100.407 51.9995 100.407 49.856H98.4073ZM97.7198 55.0593C97.3362 56.4017 96.5907 57.557 95.4544 58.5366L96.7602 60.0514C98.1759 58.831 99.1464 57.3463 99.6428 55.6087L97.7198 55.0593ZM95.4565 58.5347C94.3835 59.4544 92.7854 60.2157 90.5848 60.7659L91.0698 62.7061C93.4452 62.1123 95.3671 61.2456 96.7581 60.0533L95.4565 58.5347ZM90.6024 60.7616C88.4183 61.2656 85.4885 61.528 81.7853 61.528V63.528C85.5621 63.528 88.6603 63.2624 91.0522 62.7104L90.6024 60.7616ZM81.7853 58.644C84.8474 58.644 87.3012 58.4675 89.1142 58.0956L88.7124 56.1364C87.0934 56.4685 84.7952 56.644 81.7853 56.644V58.644ZM89.1382 58.0904C91.0304 57.6537 92.511 56.7666 93.395 55.3301L91.6916 54.2819C91.1676 55.1334 90.2281 55.7863 88.6884 56.1416L89.1382 58.0904ZM93.3803 55.3532C94.2845 53.9703 94.6653 52.0231 94.6653 49.658H92.6653C92.6653 51.8689 92.2981 53.3537 91.7063 54.2588L93.3803 55.3532ZM94.6653 49.658C94.6653 47.8045 94.4864 46.2531 94.086 45.0518L92.1886 45.6842C92.4922 46.5949 92.6653 47.9035 92.6653 49.658H94.6653ZM94.0897 45.0632C93.675 43.7672 92.9273 42.732 91.8343 42.0216L90.7443 43.6984C91.4113 44.132 91.8956 44.7688 92.1849 45.6728L94.0897 45.0632ZM91.854 42.0347C90.8309 41.3347 89.4624 40.93 87.8388 40.7445L87.6118 42.7315C89.0682 42.898 90.0757 43.2413 90.7246 43.6853L91.854 42.0347ZM87.8388 40.7445C86.2464 40.5625 84.2247 40.474 81.7853 40.474V42.474C84.1859 42.474 86.1242 42.5615 87.6118 42.7315L87.8388 40.7445ZM81.7853 40.474C79.3458 40.474 77.3242 40.5625 75.7318 40.7445L75.9588 42.7315C77.4464 42.5615 79.3847 42.474 81.7853 42.474V40.474ZM75.7318 40.7445C74.1054 40.9303 72.7272 41.3346 71.6703 42.0216L72.7603 43.6984C73.4634 43.2414 74.5052 42.8977 75.9588 42.7315L75.7318 40.7445ZM71.6506 42.0347C70.6058 42.7496 69.8907 43.7826 69.4809 45.0632L71.3857 45.6728C71.6799 44.7534 72.1528 44.1144 72.78 43.6853L71.6506 42.0347ZM69.4733 45.088C69.1273 46.2743 68.9713 47.8115 68.9713 49.658H70.9713C70.9713 47.8965 71.1233 46.5737 71.3933 45.648L69.4733 45.088ZM68.9713 49.658C68.9713 52.0161 69.3282 53.9531 70.1756 55.3301L71.879 54.2819C71.3184 53.3709 70.9713 51.8759 70.9713 49.658H68.9713ZM70.1756 55.3301C71.0596 56.7666 72.5401 57.6537 74.4324 58.0904L74.8822 56.1416C73.3424 55.7863 72.403 55.1334 71.879 54.2819L70.1756 55.3301ZM74.4564 58.0956C76.2694 58.4675 78.7232 58.644 81.7853 58.644V56.644C78.7754 56.644 76.4772 56.4685 74.8582 56.1364L74.4564 58.0956ZM81.7853 37.59C84.9331 37.59 87.4042 37.3922 89.1497 36.9677L88.6769 35.0243C87.1664 35.3918 84.8855 35.59 81.7853 35.59V37.59ZM89.1742 36.9614C90.9711 36.4757 92.3646 35.5803 93.1518 34.1746L91.4068 33.1974C90.962 33.9917 90.1115 34.6363 88.6524 35.0306L89.1742 36.9614ZM93.1455 34.1857C93.9307 32.8246 94.2693 30.9946 94.2693 28.802H92.2693C92.2693 30.8334 91.9478 32.2594 91.4131 33.1863L93.1455 34.1857ZM94.2693 28.802C94.2693 26.6209 93.9561 24.8137 93.2178 23.4954L91.4728 24.4726C91.9665 25.3543 92.2693 26.7591 92.2693 28.802H94.2693ZM93.2397 23.5368C92.4982 22.0538 91.0812 21.1271 89.2338 20.6409L88.7248 22.5751C90.2214 22.9689 91.0484 23.6262 91.4509 24.4312L93.2397 23.5368ZM89.2402 20.6426C87.4826 20.1676 84.9787 19.948 81.7853 19.948V21.948C84.9279 21.948 87.22 22.1684 88.7184 22.5734L89.2402 20.6426ZM81.7853 19.948C78.59 19.948 76.068 20.168 74.2708 20.6409L74.7798 22.5751C76.3266 22.168 78.6446 21.948 81.7853 21.948V19.948ZM74.2644 20.6426C72.4537 21.132 71.0679 22.0627 70.3309 23.5368L72.1197 24.4312C72.5267 23.6172 73.3409 22.964 74.7862 22.5734L74.2644 20.6426ZM70.3381 23.5226C69.657 24.8324 69.3673 26.6279 69.3673 28.802H71.3673C71.3673 26.7521 71.6496 25.3356 72.1125 24.4453L70.3381 23.5226ZM69.3673 28.802C69.3673 30.9872 69.6819 32.8064 70.4108 34.1601L72.1718 33.2119C71.6687 32.2776 71.3673 30.8408 71.3673 28.802H69.3673ZM70.4188 34.1746C71.206 35.5803 72.5995 36.4757 74.3964 36.9614L74.9182 35.0306C73.4591 34.6363 72.6086 33.9917 72.1638 33.1974L70.4188 34.1746ZM74.4268 36.9691C76.2115 37.3918 78.6785 37.59 81.7853 37.59V35.59C78.7321 35.59 76.4471 35.3922 74.8878 35.0229L74.4268 36.9691Z" fill="#F4871F"/>
</g>
<defs>
<filter id="filter0_d_0_3329" x="0.0160065" y="0.0639954" width="119.391" height="86.464" filterUnits="userSpaceOnUse" color-interpolation-filters="sRGB">
<feFlood flood-opacity="0" result="BackgroundImageFix"/>
<feColorMatrix in="SourceAlpha" type="matrix" values="0 0 0 0 0 0 0 0 0 0 0 0 0 0 0 0 0 0 127 0" result="hardAlpha"/>
<feOffset dy="4"/>
<feGaussianBlur stdDeviation="10"/>
<feComposite in2="hardAlpha" operator="out"/>
<feColorMatrix type="matrix" values="0 0 0 0 0.956863 0 0 0 0 0.529412 0 0 0 0 0.121569 0 0 0 1 0"/>
<feBlend mode="normal" in2="BackgroundImageFix" result="effect1_dropShadow_0_3329"/>
<feBlend mode="normal" in="SourceGraphic" in2="effect1_dropShadow_0_3329" result="shape"/>
</filter>
</defs>
</svg>
