<svg width="103" height="87" viewBox="0 0 103 87" fill="none" xmlns="http://www.w3.org/2000/svg">
<g filter="url(#filter0_d_0_3337)">
<path d="M29.88 62H28.88V63H29.88V62ZM29.88 23.06H30.88V21.4623L29.443 22.1606L29.88 23.06ZM20.508 27.614H19.508V29.2117L20.9451 28.5134L20.508 27.614ZM20.508 22.532L20.0336 21.6517L19.508 21.9349V22.532H20.508ZM31.53 16.592V15.592H31.2777L31.0556 15.7117L31.53 16.592ZM35.556 16.592H36.556V15.592H35.556V16.592ZM35.556 62V63H36.556V62H35.556ZM30.88 62V23.06H28.88V62H30.88ZM29.443 22.1606L20.0709 26.7146L20.9451 28.5134L30.3171 23.9594L29.443 22.1606ZM21.508 27.614V22.532H19.508V27.614H21.508ZM20.9824 23.4123L32.0044 17.4723L31.0556 15.7117L20.0336 21.6517L20.9824 23.4123ZM31.53 17.592H35.556V15.592H31.53V17.592ZM34.556 16.592V62H36.556V16.592H34.556ZM35.556 61H29.88V63H35.556V61ZM56.7405 62L56.5562 62.9829L56.5677 62.985L56.5793 62.9869L56.7405 62ZM51.7245 59.954L51.0928 60.7292L51.0997 60.7348L51.1066 60.7403L51.7245 59.954ZM49.0845 55.928L48.1266 56.2153L48.131 56.2299L48.1358 56.2442L49.0845 55.928ZM48.0285 49.262L47.0296 49.3103L47.03 49.3189L47.0306 49.3274L48.0285 49.262ZM48.0285 29.396L47.0305 29.3316L47.03 29.3392L47.0297 29.3469L48.0285 29.396ZM49.0845 22.73L48.1334 22.4209L48.131 22.4284L48.1287 22.4359L49.0845 22.73ZM51.7245 18.638L51.1066 17.8517L51.0997 17.8572L51.0928 17.8628L51.7245 18.638ZM56.7405 16.658L56.9049 17.6444L56.913 17.643L56.9211 17.6415L56.7405 16.658ZM73.0425 16.658L72.8582 17.6409L72.8697 17.643L72.8813 17.6449L73.0425 16.658ZM78.0585 18.638L77.4268 19.4132L77.4337 19.4188L77.4406 19.4243L78.0585 18.638ZM80.7645 22.73L79.8134 23.0391L79.8158 23.0462L80.7645 22.73ZM81.8205 29.396L80.8216 29.4443L80.8217 29.4451L81.8205 29.396ZM81.8205 49.262L82.8192 49.3111L82.8193 49.3103L81.8205 49.262ZM80.7645 55.928L81.7132 56.2442L81.7155 56.2371L80.7645 55.928ZM78.0585 59.954L77.4406 59.1677L77.4337 59.1732L77.4268 59.1788L78.0585 59.954ZM73.0425 62L73.2069 62.9864L73.215 62.985L73.2231 62.9835L73.0425 62ZM70.4025 57.446L70.4958 58.4416L70.5112 58.4402L70.5265 58.4383L70.4025 57.446ZM73.7025 56.324L73.1378 55.4987L73.1273 55.5059L73.117 55.5133L73.7025 56.324ZM75.4845 53.486L74.5266 53.1987L74.5222 53.2134L74.5182 53.2283L75.4845 53.486ZM76.2105 48.074L75.2121 48.0164L75.2116 48.026L75.2112 48.0356L76.2105 48.074ZM76.2105 30.518L75.2112 30.5564L75.2116 30.566L75.2121 30.5756L76.2105 30.518ZM75.4845 25.106L74.5182 25.3637L74.5222 25.3786L74.5266 25.3933L75.4845 25.106ZM73.7025 22.268L73.117 23.0787L73.1273 23.0861L73.1378 23.0933L73.7025 22.268ZM70.4025 21.212L70.2784 22.2043L70.2937 22.2062L70.3091 22.2076L70.4025 21.212ZM59.5125 21.212L59.603 22.2079L59.6179 22.2065L59.6328 22.2047L59.5125 21.212ZM56.0805 22.268L55.5158 21.4427L55.5053 21.4499L55.495 21.4573L56.0805 22.268ZM54.2985 25.106L53.3406 24.8187L53.3362 24.8334L53.3322 24.8483L54.2985 25.106ZM54.2985 53.486L53.3322 53.7437L53.3362 53.7586L53.3406 53.7733L54.2985 53.486ZM56.0805 56.324L55.495 57.1347L55.5053 57.1421L55.5158 57.1493L56.0805 56.324ZM59.4465 57.446L59.3224 58.4383L59.3391 58.4404L59.3559 58.4419L59.4465 57.446ZM64.9245 61.528C61.6541 61.528 58.9848 61.3532 56.9016 61.0131L56.5793 62.9869C58.8082 63.3508 61.5948 63.528 64.9245 63.528V61.528ZM56.9247 61.0171C54.9152 60.6403 53.4095 60.0062 52.3423 59.1677L51.1066 60.7403C52.5034 61.8378 54.3417 62.5677 56.5562 62.9829L56.9247 61.0171ZM52.3561 59.1788C51.34 58.3508 50.5561 57.1807 50.0331 55.6118L48.1358 56.2442C48.7568 58.1073 49.7329 59.6212 51.0928 60.7292L52.3561 59.1788ZM50.0423 55.6407C49.5434 53.9777 49.1994 51.8366 49.0263 49.1966L47.0306 49.3274C47.2095 52.0554 47.5695 54.3583 48.1266 56.2153L50.0423 55.6407ZM49.0273 49.2137C48.8963 46.507 48.8305 43.2021 48.8305 39.296H46.8305C46.8305 43.2219 46.8966 46.561 47.0296 49.3103L49.0273 49.2137ZM48.8305 39.296C48.8305 35.3897 48.8963 32.1072 49.0272 29.4451L47.0297 29.3469C46.8966 32.0528 46.8305 35.3703 46.8305 39.296H48.8305ZM49.0264 29.4604C49.1997 26.7743 49.5438 24.6374 50.0402 23.0241L48.1287 22.4359C47.5691 24.2546 47.2092 26.5617 47.0305 29.3316L49.0264 29.4604ZM50.0355 23.0391C50.5605 21.4236 51.3456 20.2366 52.3561 19.4132L51.0928 17.8628C49.7273 18.9754 48.7524 20.5164 48.1334 22.4209L50.0355 23.0391ZM52.3423 19.4243C53.4028 18.5911 54.9005 17.9785 56.9049 17.6444L56.5761 15.6716C54.3564 16.0415 52.5101 16.7489 51.1066 17.8517L52.3423 19.4243ZM56.9211 17.6415C58.9958 17.2605 61.658 17.064 64.9245 17.064V15.064C61.5909 15.064 58.7971 15.2635 56.5598 15.6745L56.9211 17.6415ZM64.9245 17.064C68.1917 17.064 70.83 17.2606 72.8582 17.6409L73.2267 15.6751C71.0309 15.2634 68.2572 15.064 64.9245 15.064V17.064ZM72.8813 17.6449C74.934 17.9801 76.4201 18.593 77.4268 19.4132L78.6901 17.8628C77.3208 16.747 75.4629 16.0399 73.2036 15.6711L72.8813 17.6449ZM77.4406 19.4243C78.4902 20.249 79.2914 21.4328 79.8134 23.0391L81.7155 22.4209C81.0935 20.5072 80.0907 18.963 78.6763 17.8517L77.4406 19.4243ZM79.8158 23.0462C80.3482 24.6436 80.692 26.7661 80.8216 29.4443L82.8193 29.3477C82.6849 26.5699 82.3247 24.2484 81.7131 22.4138L79.8158 23.0462ZM80.8217 29.4451C80.9526 32.1072 81.0185 35.3897 81.0185 39.296H83.0185C83.0185 35.3703 82.9523 32.0528 82.8192 29.3469L80.8217 29.4451ZM81.0185 39.296C81.0185 43.2021 80.9526 46.507 80.8216 49.2137L82.8193 49.3103C82.9523 46.561 83.0185 43.2219 83.0185 39.296H81.0185ZM80.8217 49.2129C80.6922 51.8446 80.3488 53.9716 79.8134 55.6189L81.7155 56.2371C82.3241 54.3644 82.6847 52.0475 82.8192 49.3111L80.8217 49.2129ZM79.8158 55.6118C79.2959 57.1715 78.496 58.3385 77.4406 59.1677L78.6763 60.7403C80.0849 59.6335 81.089 58.1165 81.7131 56.2442L79.8158 55.6118ZM77.4268 59.1788C76.4133 60.0045 74.9192 60.6386 72.8618 61.0165L73.2231 62.9835C75.4777 62.5694 77.3276 61.8395 78.6901 60.7292L77.4268 59.1788ZM72.8781 61.0136C70.8412 61.3531 68.1955 61.528 64.9245 61.528V63.528C68.2534 63.528 71.0197 63.3509 73.2069 62.9864L72.8781 61.0136ZM64.9245 58.644C67.1838 58.644 69.0443 58.5777 70.4958 58.4416L70.3091 56.4504C68.9446 56.5783 67.1531 56.644 64.9245 56.644V58.644ZM70.5265 58.4383C72.0308 58.2502 73.312 57.8395 74.2879 57.1347L73.117 55.5133C72.5089 55.9525 71.5901 56.2898 70.2784 56.4537L70.5265 58.4383ZM74.2671 57.1493C75.3603 56.4014 76.0587 55.2137 76.4507 53.7437L74.5182 53.2283C74.2062 54.3983 73.7166 55.1026 73.1378 55.4987L74.2671 57.1493ZM76.4423 53.7733C76.8732 52.3368 77.1203 50.4371 77.2097 48.1124L75.2112 48.0356C75.1246 50.2869 74.8877 51.9952 74.5266 53.1987L76.4423 53.7733ZM77.2088 48.1316C77.3423 45.817 77.4085 42.87 77.4085 39.296H75.4085C75.4085 42.85 75.3426 45.755 75.2121 48.0164L77.2088 48.1316ZM77.4085 39.296C77.4085 35.722 77.3423 32.775 77.2088 30.4604L75.2121 30.5756C75.3426 32.837 75.4085 35.742 75.4085 39.296H77.4085ZM77.2097 30.4796C77.1203 28.1549 76.8732 26.2552 76.4423 24.8187L74.5266 25.3933C74.8877 26.5968 75.1246 28.3051 75.2112 30.5564L77.2097 30.4796ZM76.4507 24.8483C76.0587 23.3783 75.3603 22.1906 74.2671 21.4427L73.1378 23.0933C73.7166 23.4894 74.2062 24.1937 74.5182 25.3637L76.4507 24.8483ZM74.2879 21.4573C73.3007 20.7443 72.0067 20.358 70.4958 20.2164L70.3091 22.2076C71.6142 22.33 72.5202 22.6477 73.117 23.0787L74.2879 21.4573ZM70.5265 20.2197C69.0608 20.0365 67.1891 19.948 64.9245 19.948V21.948C67.1478 21.948 68.9281 22.0355 70.2784 22.2043L70.5265 20.2197ZM64.9245 19.948C62.7452 19.948 60.8979 20.0367 59.3921 20.2193L59.6328 22.2047C61.031 22.0353 62.7917 21.948 64.9245 21.948V19.948ZM59.4219 20.2161C57.87 20.3572 56.5411 20.7411 55.5158 21.4427L56.6451 23.0933C57.2918 22.6509 58.251 22.3308 59.603 22.2079L59.4219 20.2161ZM55.495 21.4573C54.4645 22.2016 53.7745 23.3724 53.3406 24.8187L55.2563 25.3933C55.6144 24.1996 56.1124 23.4784 56.6659 23.0787L55.495 21.4573ZM53.3322 24.8483C52.9526 26.2719 52.7284 28.16 52.6392 30.4796L54.6377 30.5564C54.7245 28.3 54.9403 26.5801 55.2647 25.3637L53.3322 24.8483ZM52.6392 30.4796C52.5505 32.7853 52.5065 35.7254 52.5065 39.296H54.5065C54.5065 35.7386 54.5504 32.8267 54.6377 30.5564L52.6392 30.4796ZM52.5065 39.296C52.5065 42.8666 52.5505 45.8067 52.6392 48.1124L54.6377 48.0356C54.5504 45.7653 54.5065 42.8534 54.5065 39.296H52.5065ZM52.6392 48.1124C52.7284 50.432 52.9526 52.3201 53.3322 53.7437L55.2647 53.2283C54.9403 52.0119 54.7245 50.292 54.6377 48.0356L52.6392 48.1124ZM53.3406 53.7733C53.7745 55.2196 54.4645 56.3904 55.495 57.1347L56.6659 55.5133C56.1124 55.1136 55.6144 54.3924 55.2563 53.1987L53.3406 53.7733ZM55.5158 57.1493C56.5252 57.84 57.816 58.25 59.3224 58.4383L59.5705 56.4537C58.2609 56.29 57.3077 55.952 56.6451 55.4987L55.5158 57.1493ZM59.3559 58.4419C60.849 58.5776 62.7078 58.644 64.9245 58.644V56.644C62.7412 56.644 60.9479 56.5784 59.537 56.4501L59.3559 58.4419Z" fill="#F4871F"/>
</g>
<defs>
<filter id="filter0_d_0_3337" x="0.507996" y="0.0639954" width="101.51" height="86.464" filterUnits="userSpaceOnUse" color-interpolation-filters="sRGB">
<feFlood flood-opacity="0" result="BackgroundImageFix"/>
<feColorMatrix in="SourceAlpha" type="matrix" values="0 0 0 0 0 0 0 0 0 0 0 0 0 0 0 0 0 0 127 0" result="hardAlpha"/>
<feOffset dy="4"/>
<feGaussianBlur stdDeviation="10"/>
<feComposite in2="hardAlpha" operator="out"/>
<feColorMatrix type="matrix" values="0 0 0 0 0.956863 0 0 0 0 0.529412 0 0 0 0 0.121569 0 0 0 1 0"/>
<feBlend mode="normal" in2="BackgroundImageFix" result="effect1_dropShadow_0_3337"/>
<feBlend mode="normal" in="SourceGraphic" in2="effect1_dropShadow_0_3337" result="shape"/>
</filter>
</defs>
</svg>
