<svg width="115" height="87" viewBox="0 0 115 87" fill="none" xmlns="http://www.w3.org/2000/svg">
<g filter="url(#filter0_d_0_3305)">
<path d="M28.926 62L28.7417 62.9829L28.7533 62.985L28.7649 62.9869L28.926 62ZM23.91 59.954L23.2783 60.7292L23.2852 60.7348L23.2922 60.7403L23.91 59.954ZM21.27 55.928L20.3122 56.2153L20.3165 56.2299L20.3213 56.2442L21.27 55.928ZM20.214 49.262L19.2152 49.3103L19.2156 49.3189L19.2161 49.3274L20.214 49.262ZM20.214 29.396L19.2161 29.3316L19.2156 29.3392L19.2152 29.3469L20.214 29.396ZM21.27 22.73L20.319 22.4209L20.3165 22.4284L20.3142 22.4359L21.27 22.73ZM23.91 18.638L23.2922 17.8517L23.2852 17.8572L23.2783 17.8628L23.91 18.638ZM28.926 16.658L29.0904 17.6444L29.0985 17.643L29.1067 17.6415L28.926 16.658ZM45.228 16.658L45.0437 17.6409L45.0553 17.643L45.0669 17.6449L45.228 16.658ZM50.244 18.638L49.6123 19.4132L49.6192 19.4188L49.6262 19.4243L50.244 18.638ZM52.95 22.73L51.9989 23.0391L52.0013 23.0462L52.95 22.73ZM54.006 29.396L53.0072 29.4443L53.0072 29.4451L54.006 29.396ZM54.006 49.262L55.0048 49.3111L55.0048 49.3103L54.006 49.262ZM52.95 55.928L53.8987 56.2442L53.901 56.2371L52.95 55.928ZM50.244 59.954L49.6262 59.1677L49.6192 59.1732L49.6123 59.1788L50.244 59.954ZM45.228 62L45.3924 62.9864L45.4005 62.985L45.4087 62.9835L45.228 62ZM42.588 57.446L42.6813 58.4416L42.6967 58.4402L42.712 58.4383L42.588 57.446ZM45.888 56.324L45.3233 55.4987L45.3128 55.5059L45.3025 55.5133L45.888 56.324ZM47.67 53.486L46.7122 53.1987L46.7077 53.2134L46.7038 53.2283L47.67 53.486ZM48.396 48.074L47.3977 48.0164L47.3971 48.026L47.3967 48.0356L48.396 48.074ZM48.396 30.518L47.3967 30.5564L47.3971 30.566L47.3977 30.5756L48.396 30.518ZM47.67 25.106L46.7038 25.3637L46.7077 25.3786L46.7122 25.3933L47.67 25.106ZM45.888 22.268L45.3025 23.0787L45.3128 23.0861L45.3233 23.0933L45.888 22.268ZM42.588 21.212L42.464 22.2043L42.4793 22.2062L42.4947 22.2076L42.588 21.212ZM31.698 21.212L31.7885 22.2079L31.8035 22.2065L31.8183 22.2047L31.698 21.212ZM28.266 22.268L27.7013 21.4427L27.6908 21.4499L27.6805 21.4573L28.266 22.268ZM26.484 25.106L25.5262 24.8187L25.5217 24.8334L25.5178 24.8483L26.484 25.106ZM26.484 53.486L25.5178 53.7437L25.5217 53.7586L25.5262 53.7733L26.484 53.486ZM28.266 56.324L27.6805 57.1347L27.6908 57.1421L27.7013 57.1493L28.266 56.324ZM31.632 57.446L31.508 58.4383L31.5247 58.4404L31.5415 58.4419L31.632 57.446ZM37.11 61.528C33.8397 61.528 31.1703 61.3532 29.0871 61.0131L28.7649 62.9869C30.9937 63.3508 33.7803 63.528 37.11 63.528V61.528ZM29.1103 61.0171C27.1007 60.6403 25.5951 60.0062 24.5278 59.1677L23.2922 60.7403C24.6889 61.8378 26.5273 62.5677 28.7417 62.9829L29.1103 61.0171ZM24.5417 59.1788C23.5255 58.3508 22.7417 57.1807 22.2187 55.6118L20.3213 56.2442C20.9423 58.1073 21.9185 59.6212 23.2783 60.7292L24.5417 59.1788ZM22.2278 55.6407C21.729 53.9777 21.385 51.8366 21.2119 49.1966L19.2161 49.3274C19.395 52.0554 19.755 54.3583 20.3122 56.2153L22.2278 55.6407ZM21.2128 49.2137C21.0819 46.507 21.016 43.2021 21.016 39.296H19.016C19.016 43.2219 19.0821 46.561 19.2152 49.3103L21.2128 49.2137ZM21.016 39.296C21.016 35.3897 21.0819 32.1072 21.2128 29.4451L19.2152 29.3469C19.0821 32.0528 19.016 35.3703 19.016 39.296H21.016ZM21.2119 29.4604C21.3852 26.7743 21.7294 24.6374 22.2258 23.0241L20.3142 22.4359C19.7546 24.2546 19.3948 26.5617 19.2161 29.3316L21.2119 29.4604ZM22.221 23.0391C22.7461 21.4236 23.5312 20.2366 24.5417 19.4132L23.2783 17.8628C21.9128 18.9754 20.9379 20.5164 20.319 22.4209L22.221 23.0391ZM24.5278 19.4243C25.5883 18.5911 27.086 17.9785 29.0904 17.6444L28.7616 15.6716C26.542 16.0415 24.6957 16.7489 23.2922 17.8517L24.5278 19.4243ZM29.1067 17.6415C31.1813 17.2605 33.8435 17.064 37.11 17.064V15.064C33.7765 15.064 30.9827 15.2635 28.7453 15.6745L29.1067 17.6415ZM37.11 17.064C40.3772 17.064 43.0156 17.2606 45.0437 17.6409L45.4123 15.6751C43.2164 15.2634 40.4428 15.064 37.11 15.064V17.064ZM45.0669 17.6449C47.1195 17.9801 48.6056 18.593 49.6123 19.4132L50.8757 17.8628C49.5064 16.747 47.6485 16.0399 45.3891 15.6711L45.0669 17.6449ZM49.6262 19.4243C50.6757 20.249 51.4769 21.4328 51.999 23.0391L53.901 22.4209C53.2791 20.5072 52.2763 18.963 50.8618 17.8517L49.6262 19.4243ZM52.0013 23.0462C52.5338 24.6436 52.8776 26.7661 53.0072 29.4443L55.0048 29.3477C54.8704 26.5699 54.5102 24.2484 53.8987 22.4138L52.0013 23.0462ZM53.0072 29.4451C53.1381 32.1072 53.204 35.3897 53.204 39.296H55.204C55.204 35.3703 55.1379 32.0528 55.0048 29.3469L53.0072 29.4451ZM53.204 39.296C53.204 43.2021 53.1381 46.507 53.0072 49.2137L55.0048 49.3103C55.1379 46.561 55.204 43.2219 55.204 39.296H53.204ZM53.0072 49.2129C52.8778 51.8446 52.5343 53.9716 51.999 55.6189L53.901 56.2371C54.5097 54.3644 54.8702 52.0475 55.0048 49.3111L53.0072 49.2129ZM52.0013 55.6118C51.4814 57.1715 50.6816 58.3385 49.6262 59.1677L50.8618 60.7403C52.2704 59.6335 53.2746 58.1165 53.8987 56.2442L52.0013 55.6118ZM49.6123 59.1788C48.5989 60.0045 47.1047 60.6386 45.0473 61.0165L45.4087 62.9835C47.6633 62.5694 49.5131 61.8395 50.8757 60.7292L49.6123 59.1788ZM45.0636 61.0136C43.0267 61.3531 40.381 61.528 37.11 61.528V63.528C40.439 63.528 43.2053 63.3509 45.3924 62.9864L45.0636 61.0136ZM37.11 58.644C39.3694 58.644 41.2298 58.5777 42.6813 58.4416L42.4947 56.4504C41.1302 56.5783 39.3386 56.644 37.11 56.644V58.644ZM42.712 58.4383C44.2163 58.2502 45.4976 57.8395 46.4735 57.1347L45.3025 55.5133C44.6944 55.9525 43.7757 56.2898 42.464 56.4537L42.712 58.4383ZM46.4527 57.1493C47.5458 56.4014 48.2442 55.2137 48.6362 53.7437L46.7038 53.2283C46.3918 54.3983 45.9022 55.1026 45.3233 55.4987L46.4527 57.1493ZM48.6278 53.7733C49.0588 52.3368 49.3059 50.4371 49.3953 48.1124L47.3967 48.0356C47.3102 50.2869 47.0732 51.9952 46.7122 53.1987L48.6278 53.7733ZM49.3943 48.1316C49.5279 45.817 49.594 42.87 49.594 39.296H47.594C47.594 42.85 47.5281 45.755 47.3977 48.0164L49.3943 48.1316ZM49.594 39.296C49.594 35.722 49.5279 32.775 49.3943 30.4604L47.3977 30.5756C47.5281 32.837 47.594 35.742 47.594 39.296H49.594ZM49.3953 30.4796C49.3059 28.1549 49.0588 26.2552 48.6278 24.8187L46.7122 25.3933C47.0732 26.5968 47.3102 28.3051 47.3967 30.5564L49.3953 30.4796ZM48.6362 24.8483C48.2442 23.3783 47.5458 22.1906 46.4527 21.4427L45.3233 23.0933C45.9022 23.4894 46.3918 24.1937 46.7038 25.3637L48.6362 24.8483ZM46.4735 21.4573C45.4862 20.7443 44.1922 20.358 42.6813 20.2164L42.4947 22.2076C43.7998 22.33 44.7058 22.6477 45.3025 23.0787L46.4735 21.4573ZM42.712 20.2197C41.2464 20.0365 39.3746 19.948 37.11 19.948V21.948C39.3334 21.948 41.1136 22.0355 42.464 22.2043L42.712 20.2197ZM37.11 19.948C34.9307 19.948 33.0835 20.0367 31.5777 20.2193L31.8183 22.2047C33.2165 22.0353 34.9773 21.948 37.11 21.948V19.948ZM31.6075 20.2161C30.0555 20.3572 28.7267 20.7411 27.7013 21.4427L28.8307 23.0933C29.4773 22.6509 30.4365 22.3308 31.7885 22.2079L31.6075 20.2161ZM27.6805 21.4573C26.65 22.2016 25.9601 23.3724 25.5262 24.8187L27.4418 25.3933C27.7999 24.1996 28.298 23.4784 28.8515 23.0787L27.6805 21.4573ZM25.5178 24.8483C25.1382 26.2719 24.914 28.16 24.8247 30.4796L26.8233 30.5564C26.91 28.3 27.1258 26.5801 27.4502 25.3637L25.5178 24.8483ZM24.8247 30.4796C24.7361 32.7853 24.692 35.7254 24.692 39.296H26.692C26.692 35.7386 26.7359 32.8267 26.8233 30.5564L24.8247 30.4796ZM24.692 39.296C24.692 42.8666 24.7361 45.8067 24.8247 48.1124L26.8233 48.0356C26.7359 45.7653 26.692 42.8534 26.692 39.296H24.692ZM24.8247 48.1124C24.914 50.432 25.1382 52.3201 25.5178 53.7437L27.4502 53.2283C27.1258 52.0119 26.91 50.292 26.8233 48.0356L24.8247 48.1124ZM25.5262 53.7733C25.9601 55.2196 26.65 56.3904 27.6805 57.1347L28.8515 55.5133C28.298 55.1136 27.7999 54.3924 27.4418 53.1987L25.5262 53.7733ZM27.7013 57.1493C28.7108 57.84 30.0015 58.25 31.508 58.4383L31.756 56.4537C30.4465 56.29 29.4932 55.952 28.8307 55.4987L27.7013 57.1493ZM31.5415 58.4419C33.0346 58.5776 34.8933 58.644 37.11 58.644V56.644C34.9267 56.644 33.1334 56.5784 31.7225 56.4501L31.5415 58.4419ZM63.8993 62H62.8993V63H63.8993V62ZM64.0313 50.45L63.0342 50.3733L63.0333 50.3854L63.0327 50.3974L64.0313 50.45ZM67.1993 43.388L66.5993 42.588L66.5911 42.5942L66.583 42.6005L67.1993 43.388ZM71.6213 41.012L72.0074 41.9345L72.0128 41.9322L71.6213 41.012ZM83.5673 35.93L83.9588 36.8502L83.9661 36.8471L83.9734 36.8438L83.5673 35.93ZM88.7153 31.706L87.7714 31.3756L87.764 31.397L87.7575 31.4187L88.7153 31.706ZM88.1873 23.522L87.3235 24.0259L87.3361 24.0474L87.3497 24.0683L88.1873 23.522ZM84.8213 21.476L84.6044 22.4522L84.6198 22.4556L84.6354 22.4586L84.8213 21.476ZM74.1293 21.08L74.0722 20.0816L74.0706 20.0817L74.1293 21.08ZM69.4433 21.41L69.4973 22.4085L69.5107 22.4078L69.5241 22.4067L69.4433 21.41ZM64.8233 21.806H63.8233V22.9345L64.9436 22.7987L64.8233 21.806ZM64.8233 17.186L64.6534 16.2005L63.8233 16.3437V17.186H64.8233ZM69.2453 16.658L69.324 17.6549L69.3357 17.654L69.3473 17.6528L69.2453 16.658ZM74.5253 16.262L74.574 17.2608L74.5853 17.2603L74.5965 17.2595L74.5253 16.262ZM90.4313 17.846L90.9005 16.9629V16.9629L90.4313 17.846ZM93.6653 21.344L92.761 21.771L92.7683 21.7863L92.776 21.8013L93.6653 21.344ZM93.9953 33.95L93.0547 33.6104L93.052 33.618L93.0494 33.6257L93.9953 33.95ZM91.3553 37.712L91.9692 38.5014L91.9731 38.4983L91.3553 37.712ZM86.6033 40.352L86.2143 39.4307L86.2142 39.4308L86.6033 40.352ZM73.0073 46.094L72.6182 45.1728L72.6177 45.173L73.0073 46.094ZM70.4993 47.744L69.74 47.0932L69.7262 47.1094L69.713 47.1262L70.4993 47.744ZM69.5753 50.186L70.5661 50.3211L70.5669 50.3153L69.5753 50.186ZM69.3773 57.05H68.3773V58.05H69.3773V57.05ZM94.8533 57.05H95.8533V56.05H94.8533V57.05ZM94.8533 62V63H95.8533V62H94.8533ZM64.8993 62V56.72H62.8993V62H64.8993ZM64.8993 56.72C64.8993 54.2218 64.9432 52.1508 65.0299 50.5026L63.0327 50.3974C62.9434 52.0932 62.8993 54.2022 62.8993 56.72H64.8993ZM65.0284 50.5267C65.1551 48.8788 65.4471 47.5913 65.8706 46.6287L64.04 45.8233C63.4955 47.0607 63.1715 48.5892 63.0342 50.3733L65.0284 50.5267ZM65.8706 46.6287C66.2836 45.6901 66.9242 44.8731 67.8156 44.1755L66.583 42.6005C65.4504 43.4869 64.595 44.5619 64.04 45.8233L65.8706 46.6287ZM67.7993 44.188C68.7635 43.4648 70.1545 42.7101 72.0074 41.9344L71.2352 40.0896C69.3041 40.8979 67.7471 41.7272 66.5993 42.588L67.7993 44.188ZM72.0128 41.9322L83.9588 36.8502L83.1758 35.0098L71.2298 40.0918L72.0128 41.9322ZM83.9734 36.8438C85.5862 36.127 86.8594 35.4284 87.7452 34.7394L86.5174 33.1606C85.8192 33.7036 84.7164 34.325 83.1612 35.0162L83.9734 36.8438ZM87.7452 34.7394C88.6854 34.0081 89.3439 33.0908 89.6731 31.9933L87.7575 31.4187C87.5587 32.0812 87.1612 32.6599 86.5174 33.1606L87.7452 34.7394ZM89.6592 32.0363C90.0191 31.0081 90.1773 29.717 90.1773 28.208H88.1773C88.1773 29.603 88.0275 30.6439 87.7714 31.3756L89.6592 32.0363ZM90.1773 28.208C90.1773 26.0295 89.8438 24.2314 89.0249 22.9757L87.3497 24.0683C87.8508 24.8366 88.1773 26.1625 88.1773 28.208H90.1773ZM89.0511 23.0181C88.2423 21.6316 86.8136 20.8352 85.0072 20.4934L84.6354 22.4586C86.085 22.7328 86.9003 23.3004 87.3235 24.0259L89.0511 23.0181ZM85.0382 20.4998C83.3474 20.1241 80.9954 19.948 78.0233 19.948V21.948C80.9472 21.948 83.1272 22.1239 84.6044 22.4522L85.0382 20.4998ZM78.0233 19.948C76.9418 19.948 75.6235 19.993 74.0722 20.0816L74.1863 22.0784C75.7151 21.991 76.9928 21.948 78.0233 21.948V19.948ZM74.0706 20.0817C72.5666 20.1702 70.9972 20.2807 69.3625 20.4133L69.5241 22.4067C71.1454 22.2753 72.7 22.1658 74.188 22.0783L74.0706 20.0817ZM69.3893 20.4115C67.7416 20.5005 66.1793 20.6343 64.703 20.8133L64.9436 22.7987C66.3713 22.6257 67.889 22.4955 69.4973 22.4085L69.3893 20.4115ZM65.8233 21.806V17.186H63.8233V21.806H65.8233ZM64.9932 18.1715C66.2317 17.9579 67.6742 17.7851 69.324 17.6549L69.1666 15.6611C67.4724 15.7949 65.9669 15.9741 64.6534 16.2005L64.9932 18.1715ZM69.3473 17.6528C71.0448 17.4787 72.787 17.348 74.574 17.2608L74.4766 15.2632C72.6556 15.352 70.8778 15.4853 69.1433 15.6632L69.3473 17.6528ZM74.5965 17.2595C76.424 17.1289 78.138 17.064 79.7393 17.064V15.064C78.0846 15.064 76.3226 15.1311 74.454 15.2645L74.5965 17.2595ZM79.7393 17.064C81.8171 17.064 83.7342 17.1723 85.4922 17.3866L85.7344 15.4014C83.8844 15.1757 81.8854 15.064 79.7393 15.064V17.064ZM85.4922 17.3866C87.1913 17.5938 88.6765 18.0461 89.9621 18.7291L90.9005 16.9629C89.3701 16.1499 87.6433 15.6341 85.7344 15.4014L85.4922 17.3866ZM89.9621 18.7291C91.1608 19.3659 92.0955 20.3617 92.761 21.771L94.5695 20.917C93.7391 19.1583 92.5178 17.8221 90.9005 16.9629L89.9621 18.7291ZM92.776 21.8013C93.467 23.145 93.8533 25.057 93.8533 27.614H95.8533C95.8533 24.891 95.4476 22.623 94.5546 20.8866L92.776 21.8013ZM93.8533 27.614C93.8533 30.1963 93.5716 32.1791 93.0547 33.6104L94.9359 34.2896C95.563 32.5529 95.8533 30.3117 95.8533 27.614H93.8533ZM93.0494 33.6257C92.5813 34.9908 91.8117 36.0816 90.7375 36.9257L91.9731 38.4983C93.3629 37.4064 94.3533 35.9892 94.9412 34.2743L93.0494 33.6257ZM90.7414 36.9226C89.6447 37.7756 88.1451 38.6155 86.2143 39.4307L86.9923 41.2732C89.0214 40.4165 90.6899 39.4964 91.9692 38.5014L90.7414 36.9226ZM86.2142 39.4308L72.6182 45.1728L73.3964 47.0152L86.9924 41.2732L86.2142 39.4308ZM72.6177 45.173C71.3999 45.6882 70.408 46.3139 69.74 47.0932L71.2586 48.3948C71.6466 47.9421 72.3267 47.4678 73.3969 47.015L72.6177 45.173ZM69.713 47.1262C69.0891 47.9203 68.7321 48.9191 68.5837 50.0567L70.5669 50.3153C70.6825 49.4289 70.9415 48.7997 71.2856 48.3618L69.713 47.1262ZM68.5845 50.0509C68.4439 51.0815 68.3773 52.3854 68.3773 53.948H70.3773C70.3773 52.4306 70.4427 51.2265 70.5661 50.3211L68.5845 50.0509ZM68.3773 53.948V57.05H70.3773V53.948H68.3773ZM69.3773 58.05H94.8533V56.05H69.3773V58.05ZM93.8533 57.05V62H95.8533V57.05H93.8533ZM94.8533 61H63.8993V63H94.8533V61Z" fill="#F4871F"/>
</g>
<defs>
<filter id="filter0_d_0_3305" x="0.0159912" y="0.0639963" width="114.837" height="86.464" filterUnits="userSpaceOnUse" color-interpolation-filters="sRGB">
<feFlood flood-opacity="0" result="BackgroundImageFix"/>
<feColorMatrix in="SourceAlpha" type="matrix" values="0 0 0 0 0 0 0 0 0 0 0 0 0 0 0 0 0 0 127 0" result="hardAlpha"/>
<feOffset dy="4"/>
<feGaussianBlur stdDeviation="10"/>
<feComposite in2="hardAlpha" operator="out"/>
<feColorMatrix type="matrix" values="0 0 0 0 0.956863 0 0 0 0 0.529412 0 0 0 0 0.121569 0 0 0 1 0"/>
<feBlend mode="normal" in2="BackgroundImageFix" result="effect1_dropShadow_0_3305"/>
<feBlend mode="normal" in="SourceGraphic" in2="effect1_dropShadow_0_3305" result="shape"/>
</filter>
</defs>
</svg>
