<svg width="115" height="87" viewBox="0 0 115 87" fill="none" xmlns="http://www.w3.org/2000/svg">
<g filter="url(#filter0_d_0_3309)">
<path d="M28.926 62L28.7417 62.9829L28.7533 62.985L28.7649 62.9869L28.926 62ZM23.91 59.954L23.2783 60.7292L23.2852 60.7348L23.2922 60.7403L23.91 59.954ZM21.27 55.928L20.3122 56.2153L20.3165 56.2299L20.3213 56.2442L21.27 55.928ZM20.214 49.262L19.2152 49.3103L19.2156 49.3189L19.2161 49.3274L20.214 49.262ZM20.214 29.396L19.2161 29.3316L19.2156 29.3392L19.2152 29.3469L20.214 29.396ZM21.27 22.73L20.319 22.4209L20.3165 22.4284L20.3142 22.4359L21.27 22.73ZM23.91 18.638L23.2922 17.8517L23.2852 17.8572L23.2783 17.8628L23.91 18.638ZM28.926 16.658L29.0904 17.6444L29.0985 17.643L29.1067 17.6415L28.926 16.658ZM45.228 16.658L45.0437 17.6409L45.0553 17.643L45.0669 17.6449L45.228 16.658ZM50.244 18.638L49.6123 19.4132L49.6192 19.4188L49.6262 19.4243L50.244 18.638ZM52.95 22.73L51.9989 23.0391L52.0013 23.0462L52.95 22.73ZM54.006 29.396L53.0072 29.4443L53.0072 29.4451L54.006 29.396ZM54.006 49.262L55.0048 49.3111L55.0048 49.3103L54.006 49.262ZM52.95 55.928L53.8987 56.2442L53.901 56.2371L52.95 55.928ZM50.244 59.954L49.6262 59.1677L49.6192 59.1732L49.6123 59.1788L50.244 59.954ZM45.228 62L45.3924 62.9864L45.4005 62.985L45.4087 62.9835L45.228 62ZM42.588 57.446L42.6813 58.4416L42.6967 58.4402L42.712 58.4383L42.588 57.446ZM45.888 56.324L45.3233 55.4987L45.3128 55.5059L45.3025 55.5133L45.888 56.324ZM47.67 53.486L46.7122 53.1987L46.7077 53.2134L46.7038 53.2283L47.67 53.486ZM48.396 48.074L47.3977 48.0164L47.3971 48.026L47.3967 48.0356L48.396 48.074ZM48.396 30.518L47.3967 30.5564L47.3971 30.566L47.3977 30.5756L48.396 30.518ZM47.67 25.106L46.7038 25.3637L46.7077 25.3786L46.7122 25.3933L47.67 25.106ZM45.888 22.268L45.3025 23.0787L45.3128 23.0861L45.3233 23.0933L45.888 22.268ZM42.588 21.212L42.464 22.2043L42.4793 22.2062L42.4947 22.2076L42.588 21.212ZM31.698 21.212L31.7885 22.2079L31.8035 22.2065L31.8183 22.2047L31.698 21.212ZM28.266 22.268L27.7013 21.4427L27.6908 21.4499L27.6805 21.4573L28.266 22.268ZM26.484 25.106L25.5262 24.8187L25.5217 24.8334L25.5178 24.8483L26.484 25.106ZM26.484 53.486L25.5178 53.7437L25.5217 53.7586L25.5262 53.7733L26.484 53.486ZM28.266 56.324L27.6805 57.1347L27.6908 57.1421L27.7013 57.1493L28.266 56.324ZM31.632 57.446L31.508 58.4383L31.5247 58.4404L31.5415 58.4419L31.632 57.446ZM37.11 61.528C33.8397 61.528 31.1703 61.3532 29.0871 61.0131L28.7649 62.9869C30.9937 63.3508 33.7803 63.528 37.11 63.528V61.528ZM29.1103 61.0171C27.1007 60.6403 25.5951 60.0062 24.5278 59.1677L23.2922 60.7403C24.6889 61.8378 26.5273 62.5677 28.7417 62.9829L29.1103 61.0171ZM24.5417 59.1788C23.5255 58.3508 22.7417 57.1807 22.2187 55.6118L20.3213 56.2442C20.9423 58.1073 21.9185 59.6212 23.2783 60.7292L24.5417 59.1788ZM22.2278 55.6407C21.729 53.9777 21.385 51.8366 21.2119 49.1966L19.2161 49.3274C19.395 52.0554 19.755 54.3583 20.3122 56.2153L22.2278 55.6407ZM21.2128 49.2137C21.0819 46.507 21.016 43.2021 21.016 39.296H19.016C19.016 43.2219 19.0821 46.561 19.2152 49.3103L21.2128 49.2137ZM21.016 39.296C21.016 35.3897 21.0819 32.1072 21.2128 29.4451L19.2152 29.3469C19.0821 32.0528 19.016 35.3703 19.016 39.296H21.016ZM21.2119 29.4604C21.3852 26.7743 21.7294 24.6374 22.2258 23.0241L20.3142 22.4359C19.7546 24.2546 19.3948 26.5617 19.2161 29.3316L21.2119 29.4604ZM22.221 23.0391C22.7461 21.4236 23.5312 20.2366 24.5417 19.4132L23.2783 17.8628C21.9128 18.9754 20.9379 20.5164 20.319 22.4209L22.221 23.0391ZM24.5278 19.4243C25.5883 18.5911 27.086 17.9785 29.0904 17.6444L28.7616 15.6716C26.542 16.0415 24.6957 16.7489 23.2922 17.8517L24.5278 19.4243ZM29.1067 17.6415C31.1813 17.2605 33.8435 17.064 37.11 17.064V15.064C33.7765 15.064 30.9827 15.2635 28.7453 15.6745L29.1067 17.6415ZM37.11 17.064C40.3772 17.064 43.0156 17.2606 45.0437 17.6409L45.4123 15.6751C43.2164 15.2634 40.4428 15.064 37.11 15.064V17.064ZM45.0669 17.6449C47.1195 17.9801 48.6056 18.593 49.6123 19.4132L50.8757 17.8628C49.5064 16.747 47.6485 16.0399 45.3891 15.6711L45.0669 17.6449ZM49.6262 19.4243C50.6757 20.249 51.4769 21.4328 51.999 23.0391L53.901 22.4209C53.2791 20.5072 52.2763 18.963 50.8618 17.8517L49.6262 19.4243ZM52.0013 23.0462C52.5338 24.6436 52.8776 26.7661 53.0072 29.4443L55.0048 29.3477C54.8704 26.5699 54.5102 24.2484 53.8987 22.4138L52.0013 23.0462ZM53.0072 29.4451C53.1381 32.1072 53.204 35.3897 53.204 39.296H55.204C55.204 35.3703 55.1379 32.0528 55.0048 29.3469L53.0072 29.4451ZM53.204 39.296C53.204 43.2021 53.1381 46.507 53.0072 49.2137L55.0048 49.3103C55.1379 46.561 55.204 43.2219 55.204 39.296H53.204ZM53.0072 49.2129C52.8778 51.8446 52.5343 53.9716 51.999 55.6189L53.901 56.2371C54.5097 54.3644 54.8702 52.0475 55.0048 49.3111L53.0072 49.2129ZM52.0013 55.6118C51.4814 57.1715 50.6816 58.3385 49.6262 59.1677L50.8618 60.7403C52.2704 59.6335 53.2746 58.1165 53.8987 56.2442L52.0013 55.6118ZM49.6123 59.1788C48.5989 60.0045 47.1047 60.6386 45.0473 61.0165L45.4087 62.9835C47.6633 62.5694 49.5131 61.8395 50.8757 60.7292L49.6123 59.1788ZM45.0636 61.0136C43.0267 61.3531 40.381 61.528 37.11 61.528V63.528C40.439 63.528 43.2053 63.3509 45.3924 62.9864L45.0636 61.0136ZM37.11 58.644C39.3694 58.644 41.2298 58.5777 42.6813 58.4416L42.4947 56.4504C41.1302 56.5783 39.3386 56.644 37.11 56.644V58.644ZM42.712 58.4383C44.2163 58.2502 45.4976 57.8395 46.4735 57.1347L45.3025 55.5133C44.6944 55.9525 43.7757 56.2898 42.464 56.4537L42.712 58.4383ZM46.4527 57.1493C47.5458 56.4014 48.2442 55.2137 48.6362 53.7437L46.7038 53.2283C46.3918 54.3983 45.9022 55.1026 45.3233 55.4987L46.4527 57.1493ZM48.6278 53.7733C49.0588 52.3368 49.3059 50.4371 49.3953 48.1124L47.3967 48.0356C47.3102 50.2869 47.0732 51.9952 46.7122 53.1987L48.6278 53.7733ZM49.3943 48.1316C49.5279 45.817 49.594 42.87 49.594 39.296H47.594C47.594 42.85 47.5281 45.755 47.3977 48.0164L49.3943 48.1316ZM49.594 39.296C49.594 35.722 49.5279 32.775 49.3943 30.4604L47.3977 30.5756C47.5281 32.837 47.594 35.742 47.594 39.296H49.594ZM49.3953 30.4796C49.3059 28.1549 49.0588 26.2552 48.6278 24.8187L46.7122 25.3933C47.0732 26.5968 47.3102 28.3051 47.3967 30.5564L49.3953 30.4796ZM48.6362 24.8483C48.2442 23.3783 47.5458 22.1906 46.4527 21.4427L45.3233 23.0933C45.9022 23.4894 46.3918 24.1937 46.7038 25.3637L48.6362 24.8483ZM46.4735 21.4573C45.4862 20.7443 44.1922 20.358 42.6813 20.2164L42.4947 22.2076C43.7998 22.33 44.7058 22.6477 45.3025 23.0787L46.4735 21.4573ZM42.712 20.2197C41.2464 20.0365 39.3746 19.948 37.11 19.948V21.948C39.3334 21.948 41.1136 22.0355 42.464 22.2043L42.712 20.2197ZM37.11 19.948C34.9307 19.948 33.0835 20.0367 31.5777 20.2193L31.8183 22.2047C33.2165 22.0353 34.9773 21.948 37.11 21.948V19.948ZM31.6075 20.2161C30.0555 20.3572 28.7267 20.7411 27.7013 21.4427L28.8307 23.0933C29.4773 22.6509 30.4365 22.3308 31.7885 22.2079L31.6075 20.2161ZM27.6805 21.4573C26.65 22.2016 25.9601 23.3724 25.5262 24.8187L27.4418 25.3933C27.7999 24.1996 28.298 23.4784 28.8515 23.0787L27.6805 21.4573ZM25.5178 24.8483C25.1382 26.2719 24.914 28.16 24.8247 30.4796L26.8233 30.5564C26.91 28.3 27.1258 26.5801 27.4502 25.3637L25.5178 24.8483ZM24.8247 30.4796C24.7361 32.7853 24.692 35.7254 24.692 39.296H26.692C26.692 35.7386 26.7359 32.8267 26.8233 30.5564L24.8247 30.4796ZM24.692 39.296C24.692 42.8666 24.7361 45.8067 24.8247 48.1124L26.8233 48.0356C26.7359 45.7653 26.692 42.8534 26.692 39.296H24.692ZM24.8247 48.1124C24.914 50.432 25.1382 52.3201 25.5178 53.7437L27.4502 53.2283C27.1258 52.0119 26.91 50.292 26.8233 48.0356L24.8247 48.1124ZM25.5262 53.7733C25.9601 55.2196 26.65 56.3904 27.6805 57.1347L28.8515 55.5133C28.298 55.1136 27.7999 54.3924 27.4418 53.1987L25.5262 53.7733ZM27.7013 57.1493C28.7108 57.84 30.0015 58.25 31.508 58.4383L31.756 56.4537C30.4465 56.29 29.4932 55.952 28.8307 55.4987L27.7013 57.1493ZM31.5415 58.4419C33.0346 58.5776 34.8933 58.644 37.11 58.644V56.644C34.9267 56.644 33.1334 56.5784 31.7225 56.4501L31.5415 58.4419ZM72.1493 62.33L72.228 61.3331L72.2156 61.3321L72.2033 61.3315L72.1493 62.33ZM67.3313 61.934L67.2178 62.9275L67.2209 62.9279L67.3313 61.934ZM63.2393 61.406H62.2393V62.2688L63.0927 62.3952L63.2393 61.406ZM63.2393 56.852L63.3272 55.8559L62.2393 55.7599V56.852H63.2393ZM67.9253 57.248L68.0061 56.2513L67.9253 57.248ZM72.5453 57.578L72.4848 58.5762L72.4999 58.5771L72.515 58.5775L72.5453 57.578ZM82.9073 57.182L83.0756 58.1677L83.0872 58.1657L83.0988 58.1635L82.9073 57.182ZM86.9333 55.004L86.1553 54.3757L86.1524 54.3793L86.9333 55.004ZM87.4613 44.84L86.5542 45.2612L86.5603 45.2738L87.4613 44.84ZM84.6893 42.266L84.3069 43.19L84.3207 43.1957L84.3346 43.201L84.6893 42.266ZM71.0933 41.474H70.0933V42.474H71.0933V41.474ZM71.0933 36.524V35.524H70.0933V36.524H71.0933ZM83.6993 35.93L83.3933 34.978L83.6993 35.93ZM86.6033 23.588L85.7918 24.1723L86.6033 23.588ZM82.7093 21.476L82.5132 22.4566L82.5271 22.4594L82.541 22.4617L82.7093 21.476ZM71.6873 21.08L71.7478 22.0782H71.7478L71.6873 21.08ZM67.3313 21.41L67.3937 22.4081L67.4078 22.4072L67.4218 22.4059L67.3313 21.41ZM63.5033 21.806H62.5033V22.9716L63.6554 22.7944L63.5033 21.806ZM63.5033 17.186L63.3212 16.2027L62.5033 16.3542V17.186H63.5033ZM67.5953 16.658L67.6807 17.6543L67.6948 17.6531L67.7088 17.6515L67.5953 16.658ZM72.3473 16.262L72.4013 17.2605L72.4147 17.2598L72.4281 17.2587L72.3473 16.262ZM84.8213 16.79L85.0403 15.8143V15.8143L84.8213 16.79ZM89.9693 18.968L89.3649 19.7647V19.7647L89.9693 18.968ZM92.6753 22.664L91.7323 22.9968L91.7366 23.009L91.7412 23.0211L92.6753 22.664ZM91.4873 35.402L90.7208 34.7598L90.7156 34.7659L90.7105 34.7722L91.4873 35.402ZM85.8113 38.702L85.5852 37.7279L84.8113 37.9076V38.702H85.8113ZM85.8113 38.966H84.8113V39.7986L85.6301 39.9495L85.8113 38.966ZM93.0053 43.916L92.0904 44.3196L92.0953 44.3308L92.1005 44.3418L93.0053 43.916ZM93.3353 55.136L92.3789 54.8438L92.3763 54.8525L92.3738 54.8613L93.3353 55.136ZM90.8273 59.096L90.1613 58.3501L90.8273 59.096ZM85.5473 61.67L85.7943 62.6391L85.8073 62.6356L85.5473 61.67ZM76.7033 61.528C75.3707 61.528 73.8795 61.4635 72.228 61.3331L72.0706 63.3269C73.7631 63.4605 75.3079 63.528 76.7033 63.528V61.528ZM72.2033 61.3315C70.5937 61.2445 69.0065 61.114 67.4417 60.9401L67.2209 62.9279C68.8241 63.106 70.4489 63.2395 72.0953 63.3285L72.2033 61.3315ZM67.4448 60.9405C65.9129 60.7654 64.5603 60.5908 63.3858 60.4168L63.0927 62.3952C64.2943 62.5732 65.6697 62.7506 67.2178 62.9275L67.4448 60.9405ZM64.2393 61.406V56.852H62.2393V61.406H64.2393ZM63.1514 57.8481C64.65 57.9804 66.2143 58.1126 67.8445 58.2447L68.0061 56.2513C66.3803 56.1194 64.8206 55.9876 63.3272 55.8559L63.1514 57.8481ZM67.8445 58.2447C69.4784 58.3772 71.0253 58.4877 72.4848 58.5762L72.6058 56.5798C71.1613 56.4923 69.6282 56.3828 68.0061 56.2513L67.8445 58.2447ZM72.515 58.5775C73.9737 58.6217 75.2383 58.644 76.3073 58.644V56.644C75.2643 56.644 74.0209 56.6223 72.5756 56.5785L72.515 58.5775ZM76.3073 58.644C78.9384 58.644 81.1983 58.4882 83.0756 58.1677L82.739 56.1963C81.0083 56.4918 78.8682 56.644 76.3073 56.644V58.644ZM83.0988 58.1635C85.0633 57.7802 86.646 56.9639 87.7142 55.6287L86.1524 54.3793C85.4606 55.2441 84.3593 55.8798 82.7158 56.2005L83.0988 58.1635ZM87.7112 55.6323C88.846 54.2274 89.3193 52.1704 89.3193 49.658H87.3193C87.3193 51.9856 86.8686 53.4926 86.1554 54.3757L87.7112 55.6323ZM89.3193 49.658C89.3193 47.5565 89.025 45.7825 88.3623 44.4062L86.5603 45.2738C87.0416 46.2735 87.3193 47.7115 87.3193 49.658H89.3193ZM88.3683 44.4189C87.6858 42.9488 86.5628 41.9071 85.044 41.331L84.3346 43.201C85.3678 43.5929 86.0928 44.2672 86.5543 45.2611L88.3683 44.4189ZM85.0716 41.342C83.6277 40.7445 81.7881 40.474 79.6073 40.474V42.474C81.6505 42.474 83.1989 42.7315 84.3069 43.19L85.0716 41.342ZM79.6073 40.474H71.0933V42.474H79.6073V40.474ZM72.0933 41.474V36.524H70.0933V41.474H72.0933ZM71.0933 37.524H79.6073V35.524H71.0933V37.524ZM79.6073 37.524C81.1913 37.524 82.6604 37.3143 84.0053 36.882L83.3933 34.978C82.2742 35.3377 81.0153 35.524 79.6073 35.524V37.524ZM84.0053 36.882C85.4558 36.4158 86.6267 35.5271 87.4962 34.2483L85.8424 33.1237C85.2159 34.0449 84.4068 34.6522 83.3933 34.978L84.0053 36.882ZM87.4962 34.2483C88.4073 32.9085 88.7913 31.0451 88.7913 28.802H86.7913C86.7913 30.8709 86.4273 32.2635 85.8424 33.1237L87.4962 34.2483ZM88.7913 28.802C88.7913 26.3562 88.3915 24.3602 87.4148 23.0037L85.7918 24.1723C86.3991 25.0158 86.7913 26.4958 86.7913 28.802H88.7913ZM87.4148 23.0037C86.422 21.6247 84.8474 20.8266 82.8776 20.4903L82.541 22.4617C84.1792 22.7414 85.2006 23.3513 85.7918 24.1723L87.4148 23.0037ZM82.9054 20.4954C81.0531 20.1249 78.625 19.948 75.6473 19.948V21.948C78.5656 21.948 80.8455 22.123 82.5132 22.4566L82.9054 20.4954ZM75.6473 19.948C74.4352 19.948 73.0947 19.9929 71.6268 20.0818L71.7478 22.0782C73.1839 21.9911 74.4833 21.948 75.6473 21.948V19.948ZM71.6268 20.0818C70.1648 20.1704 68.7027 20.2812 67.2408 20.4141L67.4218 22.4059C68.8639 22.2748 70.3058 22.1656 71.7478 22.0782L71.6268 20.0818ZM67.2689 20.4119C65.8371 20.5014 64.5306 20.6362 63.3512 20.8176L63.6554 22.7944C64.764 22.6238 66.0095 22.4946 67.3937 22.4081L67.2689 20.4119ZM64.5033 21.806V17.186H62.5033V21.806H64.5033ZM63.6854 18.1693C64.834 17.9566 66.1647 17.7843 67.6807 17.6543L67.5099 15.6617C65.9459 15.7957 64.5486 15.9754 63.3212 16.2027L63.6854 18.1693ZM67.7088 17.6515C69.2281 17.4779 70.7922 17.3475 72.4013 17.2605L72.2933 15.2635C70.6464 15.3525 69.0425 15.4861 67.4818 15.6645L67.7088 17.6515ZM72.4281 17.2587C74.0352 17.1284 75.4817 17.064 76.7693 17.064V15.064C75.4169 15.064 73.9154 15.1316 72.2665 15.2653L72.4281 17.2587ZM76.7693 17.064C79.9376 17.064 82.5425 17.3033 84.6023 17.7657L85.0403 15.8143C82.7881 15.3087 80.0249 15.064 76.7693 15.064V17.064ZM84.6023 17.7657C86.6683 18.2295 88.2377 18.9096 89.3649 19.7647L90.5737 18.1713C89.1489 17.0904 87.2863 16.3185 85.0403 15.8143L84.6023 17.7657ZM89.3649 19.7647C90.4867 20.6157 91.2701 21.6871 91.7323 22.9968L93.6183 22.3312C93.0245 20.6489 92.0039 19.2563 90.5737 18.1713L89.3649 19.7647ZM91.7412 23.0211C92.259 24.3753 92.5333 26.0302 92.5333 28.01H94.5333C94.5333 25.8538 94.2356 23.9447 93.6094 22.3069L91.7412 23.0211ZM92.5333 28.01C92.5333 31.1987 91.8701 33.388 90.7208 34.7598L92.2538 36.0442C93.8325 34.16 94.5333 31.4213 94.5333 28.01H92.5333ZM90.7105 34.7722C89.5579 36.1938 87.8787 37.1955 85.5852 37.7279L86.0374 39.6761C88.6719 39.0645 90.7767 37.8662 92.2641 36.0318L90.7105 34.7722ZM84.8113 38.702V38.966H86.8113V38.702H84.8113ZM85.6301 39.9495C87.2037 40.2393 88.537 40.7301 89.6483 41.4048L90.6863 39.6952C89.3336 38.8739 87.7629 38.3087 85.9925 37.9825L85.6301 39.9495ZM89.6483 41.4048C90.6823 42.0326 91.5015 42.9849 92.0904 44.3196L93.9202 43.5124C93.1891 41.8551 92.1163 40.5634 90.6863 39.6952L89.6483 41.4048ZM92.1005 44.3418C92.7187 45.6556 93.0613 47.4732 93.0613 49.856H95.0613C95.0613 47.3108 94.6999 45.1684 93.9101 43.4902L92.1005 44.3418ZM93.0613 49.856C93.0613 51.7093 92.8296 53.3689 92.3789 54.8438L94.2916 55.4282C94.809 53.7351 95.0613 51.8747 95.0613 49.856H93.0613ZM92.3738 54.8613C91.9874 56.2135 91.2568 57.3719 90.1613 58.3501L91.4933 59.8419C92.8618 58.6201 93.8032 57.1385 94.2968 55.4107L92.3738 54.8613ZM90.1613 58.3501C89.085 59.311 87.4857 60.1125 85.2873 60.7044L85.8073 62.6356C88.1849 61.9955 90.1056 61.081 91.4933 59.8419L90.1613 58.3501ZM85.3003 60.701C83.1695 61.2441 80.3139 61.528 76.7033 61.528V63.528C80.3966 63.528 83.4371 63.2399 85.7943 62.639L85.3003 60.701Z" fill="#F4871F"/>
</g>
<defs>
<filter id="filter0_d_0_3309" x="0.0160065" y="0.0639963" width="114.045" height="86.464" filterUnits="userSpaceOnUse" color-interpolation-filters="sRGB">
<feFlood flood-opacity="0" result="BackgroundImageFix"/>
<feColorMatrix in="SourceAlpha" type="matrix" values="0 0 0 0 0 0 0 0 0 0 0 0 0 0 0 0 0 0 127 0" result="hardAlpha"/>
<feOffset dy="4"/>
<feGaussianBlur stdDeviation="10"/>
<feComposite in2="hardAlpha" operator="out"/>
<feColorMatrix type="matrix" values="0 0 0 0 0.956863 0 0 0 0 0.529412 0 0 0 0 0.121569 0 0 0 1 0"/>
<feBlend mode="normal" in2="BackgroundImageFix" result="effect1_dropShadow_0_3309"/>
<feBlend mode="normal" in="SourceGraphic" in2="effect1_dropShadow_0_3309" result="shape"/>
</filter>
</defs>
</svg>
