<svg width="118" height="87" viewBox="0 0 118 87" fill="none" xmlns="http://www.w3.org/2000/svg">
<g filter="url(#filter0_d_0_3333)">
<path d="M28.926 62L28.7417 62.9829L28.7533 62.985L28.7649 62.9869L28.926 62ZM23.91 59.954L23.2783 60.7292L23.2852 60.7348L23.2922 60.7403L23.91 59.954ZM21.27 55.928L20.3122 56.2153L20.3165 56.2299L20.3213 56.2442L21.27 55.928ZM20.214 49.262L19.2152 49.3103L19.2156 49.3189L19.2161 49.3274L20.214 49.262ZM20.214 29.396L19.2161 29.3316L19.2156 29.3392L19.2152 29.3469L20.214 29.396ZM21.27 22.73L20.319 22.4209L20.3165 22.4284L20.3142 22.4359L21.27 22.73ZM23.91 18.638L23.2922 17.8517L23.2852 17.8572L23.2783 17.8628L23.91 18.638ZM28.926 16.658L29.0904 17.6444L29.0985 17.643L29.1067 17.6415L28.926 16.658ZM45.228 16.658L45.0437 17.6409L45.0553 17.643L45.0669 17.6449L45.228 16.658ZM50.244 18.638L49.6123 19.4132L49.6192 19.4188L49.6262 19.4243L50.244 18.638ZM52.95 22.73L51.9989 23.0391L52.0013 23.0462L52.95 22.73ZM54.006 29.396L53.0072 29.4443L53.0072 29.4451L54.006 29.396ZM54.006 49.262L55.0048 49.3111L55.0048 49.3103L54.006 49.262ZM52.95 55.928L53.8987 56.2442L53.901 56.2371L52.95 55.928ZM50.244 59.954L49.6262 59.1677L49.6192 59.1732L49.6123 59.1788L50.244 59.954ZM45.228 62L45.3924 62.9864L45.4005 62.985L45.4087 62.9835L45.228 62ZM42.588 57.446L42.6813 58.4416L42.6967 58.4402L42.712 58.4383L42.588 57.446ZM45.888 56.324L45.3233 55.4987L45.3128 55.5059L45.3025 55.5133L45.888 56.324ZM47.67 53.486L46.7122 53.1987L46.7077 53.2134L46.7038 53.2283L47.67 53.486ZM48.396 48.074L47.3977 48.0164L47.3971 48.026L47.3967 48.0356L48.396 48.074ZM48.396 30.518L47.3967 30.5564L47.3971 30.566L47.3977 30.5756L48.396 30.518ZM47.67 25.106L46.7038 25.3637L46.7077 25.3786L46.7122 25.3933L47.67 25.106ZM45.888 22.268L45.3025 23.0787L45.3128 23.0861L45.3233 23.0933L45.888 22.268ZM42.588 21.212L42.464 22.2043L42.4793 22.2062L42.4947 22.2076L42.588 21.212ZM31.698 21.212L31.7885 22.2079L31.8035 22.2065L31.8183 22.2047L31.698 21.212ZM28.266 22.268L27.7013 21.4427L27.6908 21.4499L27.6805 21.4573L28.266 22.268ZM26.484 25.106L25.5262 24.8187L25.5217 24.8334L25.5178 24.8483L26.484 25.106ZM26.484 53.486L25.5178 53.7437L25.5217 53.7586L25.5262 53.7733L26.484 53.486ZM28.266 56.324L27.6805 57.1347L27.6908 57.1421L27.7013 57.1493L28.266 56.324ZM31.632 57.446L31.508 58.4383L31.5247 58.4404L31.5415 58.4419L31.632 57.446ZM37.11 61.528C33.8397 61.528 31.1703 61.3532 29.0871 61.0131L28.7649 62.9869C30.9937 63.3508 33.7803 63.528 37.11 63.528V61.528ZM29.1103 61.0171C27.1007 60.6403 25.5951 60.0062 24.5278 59.1677L23.2922 60.7403C24.6889 61.8378 26.5273 62.5677 28.7417 62.9829L29.1103 61.0171ZM24.5417 59.1788C23.5255 58.3508 22.7417 57.1807 22.2187 55.6118L20.3213 56.2442C20.9423 58.1073 21.9185 59.6212 23.2783 60.7292L24.5417 59.1788ZM22.2278 55.6407C21.729 53.9777 21.385 51.8366 21.2119 49.1966L19.2161 49.3274C19.395 52.0554 19.755 54.3583 20.3122 56.2153L22.2278 55.6407ZM21.2128 49.2137C21.0819 46.507 21.016 43.2021 21.016 39.296H19.016C19.016 43.2219 19.0821 46.561 19.2152 49.3103L21.2128 49.2137ZM21.016 39.296C21.016 35.3897 21.0819 32.1072 21.2128 29.4451L19.2152 29.3469C19.0821 32.0528 19.016 35.3703 19.016 39.296H21.016ZM21.2119 29.4604C21.3852 26.7743 21.7294 24.6374 22.2258 23.0241L20.3142 22.4359C19.7546 24.2546 19.3948 26.5617 19.2161 29.3316L21.2119 29.4604ZM22.221 23.0391C22.7461 21.4236 23.5312 20.2366 24.5417 19.4132L23.2783 17.8628C21.9128 18.9754 20.9379 20.5164 20.319 22.4209L22.221 23.0391ZM24.5278 19.4243C25.5883 18.5911 27.086 17.9785 29.0904 17.6444L28.7616 15.6716C26.542 16.0415 24.6957 16.7489 23.2922 17.8517L24.5278 19.4243ZM29.1067 17.6415C31.1813 17.2605 33.8435 17.064 37.11 17.064V15.064C33.7765 15.064 30.9827 15.2635 28.7453 15.6745L29.1067 17.6415ZM37.11 17.064C40.3772 17.064 43.0156 17.2606 45.0437 17.6409L45.4123 15.6751C43.2164 15.2634 40.4428 15.064 37.11 15.064V17.064ZM45.0669 17.6449C47.1195 17.9801 48.6056 18.593 49.6123 19.4132L50.8757 17.8628C49.5064 16.747 47.6485 16.0399 45.3891 15.6711L45.0669 17.6449ZM49.6262 19.4243C50.6757 20.249 51.4769 21.4328 51.999 23.0391L53.901 22.4209C53.2791 20.5072 52.2763 18.963 50.8618 17.8517L49.6262 19.4243ZM52.0013 23.0462C52.5338 24.6436 52.8776 26.7661 53.0072 29.4443L55.0048 29.3477C54.8704 26.5699 54.5102 24.2484 53.8987 22.4138L52.0013 23.0462ZM53.0072 29.4451C53.1381 32.1072 53.204 35.3897 53.204 39.296H55.204C55.204 35.3703 55.1379 32.0528 55.0048 29.3469L53.0072 29.4451ZM53.204 39.296C53.204 43.2021 53.1381 46.507 53.0072 49.2137L55.0048 49.3103C55.1379 46.561 55.204 43.2219 55.204 39.296H53.204ZM53.0072 49.2129C52.8778 51.8446 52.5343 53.9716 51.999 55.6189L53.901 56.2371C54.5097 54.3644 54.8702 52.0475 55.0048 49.3111L53.0072 49.2129ZM52.0013 55.6118C51.4814 57.1715 50.6816 58.3385 49.6262 59.1677L50.8618 60.7403C52.2704 59.6335 53.2746 58.1165 53.8987 56.2442L52.0013 55.6118ZM49.6123 59.1788C48.5989 60.0045 47.1047 60.6386 45.0473 61.0165L45.4087 62.9835C47.6633 62.5694 49.5131 61.8395 50.8757 60.7292L49.6123 59.1788ZM45.0636 61.0136C43.0267 61.3531 40.381 61.528 37.11 61.528V63.528C40.439 63.528 43.2053 63.3509 45.3924 62.9864L45.0636 61.0136ZM37.11 58.644C39.3694 58.644 41.2298 58.5777 42.6813 58.4416L42.4947 56.4504C41.1302 56.5783 39.3386 56.644 37.11 56.644V58.644ZM42.712 58.4383C44.2163 58.2502 45.4976 57.8395 46.4735 57.1347L45.3025 55.5133C44.6944 55.9525 43.7757 56.2898 42.464 56.4537L42.712 58.4383ZM46.4527 57.1493C47.5458 56.4014 48.2442 55.2137 48.6362 53.7437L46.7038 53.2283C46.3918 54.3983 45.9022 55.1026 45.3233 55.4987L46.4527 57.1493ZM48.6278 53.7733C49.0588 52.3368 49.3059 50.4371 49.3953 48.1124L47.3967 48.0356C47.3102 50.2869 47.0732 51.9952 46.7122 53.1987L48.6278 53.7733ZM49.3943 48.1316C49.5279 45.817 49.594 42.87 49.594 39.296H47.594C47.594 42.85 47.5281 45.755 47.3977 48.0164L49.3943 48.1316ZM49.594 39.296C49.594 35.722 49.5279 32.775 49.3943 30.4604L47.3977 30.5756C47.5281 32.837 47.594 35.742 47.594 39.296H49.594ZM49.3953 30.4796C49.3059 28.1549 49.0588 26.2552 48.6278 24.8187L46.7122 25.3933C47.0732 26.5968 47.3102 28.3051 47.3967 30.5564L49.3953 30.4796ZM48.6362 24.8483C48.2442 23.3783 47.5458 22.1906 46.4527 21.4427L45.3233 23.0933C45.9022 23.4894 46.3918 24.1937 46.7038 25.3637L48.6362 24.8483ZM46.4735 21.4573C45.4862 20.7443 44.1922 20.358 42.6813 20.2164L42.4947 22.2076C43.7998 22.33 44.7058 22.6477 45.3025 23.0787L46.4735 21.4573ZM42.712 20.2197C41.2464 20.0365 39.3746 19.948 37.11 19.948V21.948C39.3334 21.948 41.1136 22.0355 42.464 22.2043L42.712 20.2197ZM37.11 19.948C34.9307 19.948 33.0835 20.0367 31.5777 20.2193L31.8183 22.2047C33.2165 22.0353 34.9773 21.948 37.11 21.948V19.948ZM31.6075 20.2161C30.0555 20.3572 28.7267 20.7411 27.7013 21.4427L28.8307 23.0933C29.4773 22.6509 30.4365 22.3308 31.7885 22.2079L31.6075 20.2161ZM27.6805 21.4573C26.65 22.2016 25.9601 23.3724 25.5262 24.8187L27.4418 25.3933C27.7999 24.1996 28.298 23.4784 28.8515 23.0787L27.6805 21.4573ZM25.5178 24.8483C25.1382 26.2719 24.914 28.16 24.8247 30.4796L26.8233 30.5564C26.91 28.3 27.1258 26.5801 27.4502 25.3637L25.5178 24.8483ZM24.8247 30.4796C24.7361 32.7853 24.692 35.7254 24.692 39.296H26.692C26.692 35.7386 26.7359 32.8267 26.8233 30.5564L24.8247 30.4796ZM24.692 39.296C24.692 42.8666 24.7361 45.8067 24.8247 48.1124L26.8233 48.0356C26.7359 45.7653 26.692 42.8534 26.692 39.296H24.692ZM24.8247 48.1124C24.914 50.432 25.1382 52.3201 25.5178 53.7437L27.4502 53.2283C27.1258 52.0119 26.91 50.292 26.8233 48.0356L24.8247 48.1124ZM25.5262 53.7733C25.9601 55.2196 26.65 56.3904 27.6805 57.1347L28.8515 55.5133C28.298 55.1136 27.7999 54.3924 27.4418 53.1987L25.5262 53.7733ZM27.7013 57.1493C28.7108 57.84 30.0015 58.25 31.508 58.4383L31.756 56.4537C30.4465 56.29 29.4932 55.952 28.8307 55.4987L27.7013 57.1493ZM31.5415 58.4419C33.0346 58.5776 34.8933 58.644 37.11 58.644V56.644C34.9267 56.644 33.1334 56.5784 31.7225 56.4501L31.5415 58.4419ZM75.1853 62.33L75.2707 61.3337L75.2565 61.3324L75.2423 61.3316L75.1853 62.33ZM70.4333 61.934L70.5408 60.9398L70.4333 61.934ZM65.8133 61.34H64.8133V62.1999L65.6635 62.3287L65.8133 61.34ZM65.8133 56.786L65.9096 55.7906L64.8133 55.6846V56.786H65.8133ZM70.1033 57.182L70.1912 56.1859L70.1033 57.182ZM74.4593 57.512L74.5217 56.5139L74.4593 57.512ZM85.4153 56.984L85.1837 56.0112L85.1783 56.0125L85.4153 56.984ZM89.5733 54.542L88.7839 53.9281L89.5733 54.542ZM91.3553 49.394L90.3642 49.2606L90.3631 49.2689L90.3622 49.2772L91.3553 49.394ZM91.8173 40.418H92.8173V39.418H91.8173V40.418ZM91.4213 40.418V39.418H90.9529L90.6531 39.7778L91.4213 40.418ZM89.4413 42.002L89.9232 42.8782L89.9397 42.8692L89.9558 42.8595L89.4413 42.002ZM85.5473 43.256L85.724 44.2403L85.7361 44.2381L85.7482 44.2356L85.5473 43.256ZM71.5553 43.256L71.3982 44.2436L71.4016 44.2441L71.5553 43.256ZM66.8033 41.474L67.3845 40.6603L66.8033 41.474ZM64.0973 37.646L63.1437 37.9471L63.1473 37.9585L63.1511 37.9697L64.0973 37.646ZM63.8993 23.72L62.9242 23.4984L62.9218 23.509L62.9196 23.5196L63.8993 23.72ZM66.2753 19.166L65.5959 18.4322L65.589 18.4386L65.5822 18.4452L66.2753 19.166ZM71.2913 16.79L71.0723 15.8143V15.8143L71.2913 16.79ZM87.7913 16.526L87.6526 17.5163V17.5163L87.7913 16.526ZM93.1373 18.506L92.5415 19.3091L92.5499 19.3154L92.5585 19.3215L93.1373 18.506ZM96.1733 23.126L95.2188 23.4243L95.2228 23.437L95.2271 23.4497L96.1733 23.126ZM97.2953 29.528L96.2976 29.5956L96.2977 29.5968L97.2953 29.528ZM97.3613 45.764L96.3633 45.7003L96.3627 45.7109L96.3622 45.7215L97.3613 45.764ZM96.7673 51.308L95.7847 51.1221L95.7827 51.1328L95.7809 51.1436L96.7673 51.308ZM95.5793 55.598L96.503 55.981L96.5033 55.9804L95.5793 55.598ZM92.3453 59.822L91.7617 59.01L91.7555 59.0144L91.7495 59.0189L92.3453 59.822ZM87.0653 61.934L86.8846 60.9504L86.881 60.9511L87.0653 61.934ZM86.4713 38.438L86.3023 37.4524L86.4713 38.438ZM89.8373 37.184L90.4679 37.9601L90.473 37.9559L89.8373 37.184ZM91.0253 25.766L90.0552 26.0085L90.0587 26.0227L90.0626 26.0367L91.0253 25.766ZM89.2433 22.598L88.5992 23.3629L88.5992 23.3629L89.2433 22.598ZM85.7453 21.278L85.5955 22.2667L85.6119 22.2692L85.6285 22.2711L85.7453 21.278ZM74.5253 21.212L74.4085 20.2188L74.405 20.2193L74.5253 21.212ZM71.0933 22.4L71.658 23.2253L71.6724 23.2154L71.6865 23.2051L71.0933 22.4ZM69.3113 24.974L68.3555 24.6799L68.3503 24.6969L68.3457 24.714L69.3113 24.974ZM69.3113 34.742L68.3412 34.9845L68.3452 35.0007L68.3498 35.0167L69.3113 34.742ZM71.0273 37.514L70.4134 38.3034L70.4274 38.3143L70.4418 38.3247L71.0273 37.514ZM74.4593 38.636L74.3425 39.6292L74.3569 39.6308L74.3714 39.6321L74.4593 38.636ZM79.2773 61.528C78.1248 61.528 76.7902 61.4639 75.2707 61.3337L75.0999 63.3263C76.6604 63.4601 78.0538 63.528 79.2773 63.528V61.528ZM75.2423 61.3316C73.7202 61.2446 72.153 61.1141 70.5408 60.9398L70.3258 62.9282C71.9696 63.1059 73.5704 63.2394 75.1282 63.3284L75.2423 61.3316ZM70.5408 60.9398C68.9253 60.7652 67.3995 60.5689 65.9631 60.3513L65.6635 62.3287C67.131 62.5511 68.6852 62.7508 70.3258 62.9282L70.5408 60.9398ZM66.8133 61.34V56.786H64.8133V61.34H66.8133ZM65.717 57.7813C67.084 57.9136 68.5169 58.0459 70.0154 58.1781L70.1912 56.1859C68.6977 56.0541 67.2706 55.9224 65.9096 55.7906L65.717 57.7813ZM70.0154 58.1781C71.5194 58.3108 72.9799 58.4215 74.3969 58.5101L74.5217 56.5139C73.1227 56.4265 71.6792 56.3172 70.1912 56.1859L70.0154 58.1781ZM74.3969 58.5101C75.8183 58.5989 77.0502 58.644 78.0893 58.644V56.644C77.1044 56.644 75.9163 56.6011 74.5217 56.5139L74.3969 58.5101ZM78.0893 58.644C81.2042 58.644 83.7367 58.4227 85.6523 57.9555L85.1783 56.0125C83.4859 56.4253 81.1344 56.644 78.0893 56.644V58.644ZM85.6469 57.9568C87.657 57.4782 89.2657 56.5663 90.3626 55.1559L88.7839 53.9281C88.0329 54.8937 86.8696 55.6098 85.1837 56.0112L85.6469 57.9568ZM90.3626 55.1559C91.4413 53.7691 92.0731 51.8516 92.3484 49.5108L90.3622 49.2772C90.1095 51.4244 89.5533 52.9389 88.7839 53.9281L90.3626 55.1559ZM92.3464 49.5274C92.6628 47.1771 92.8173 44.1355 92.8173 40.418H90.8173C90.8173 44.0925 90.6638 47.0349 90.3642 49.2606L92.3464 49.5274ZM91.8173 39.418H91.4213V41.418H91.8173V39.418ZM90.6531 39.7778C90.311 40.1883 89.7533 40.6486 88.9268 41.1445L89.9558 42.8595C90.8893 42.2994 91.6516 41.7037 92.1895 41.0582L90.6531 39.7778ZM88.9594 41.1258C88.2092 41.5384 87.0256 41.9319 85.3464 42.2764L85.7482 44.2356C87.501 43.8761 88.9134 43.4336 89.9232 42.8782L88.9594 41.1258ZM85.3706 42.2717C83.7379 42.5648 81.5165 42.718 78.6833 42.718V44.718C81.5701 44.718 83.9247 44.5632 85.724 44.2403L85.3706 42.2717ZM78.6833 42.718C75.9448 42.718 73.623 42.5656 71.709 42.2679L71.4016 44.2441C73.4476 44.5624 75.8778 44.718 78.6833 44.718V42.718ZM71.7124 42.2684C69.8858 41.9778 68.459 41.4277 67.3845 40.6603L66.2221 42.2877C67.6116 43.2803 69.3528 43.9182 71.3982 44.2436L71.7124 42.2684ZM67.3845 40.6603C66.3494 39.9209 65.5596 38.8309 65.0435 37.3223L63.1511 37.9697C63.779 39.8051 64.7932 41.2671 66.2221 42.2877L67.3845 40.6603ZM65.0509 37.3449C64.5661 35.8099 64.3053 33.7019 64.3053 30.98H62.3053C62.3053 33.8021 62.5724 36.1381 63.1437 37.9471L65.0509 37.3449ZM64.3053 30.98C64.3053 28.1151 64.5012 25.7676 64.879 23.9204L62.9196 23.5196C62.5054 25.5444 62.3053 28.0369 62.3053 30.98H64.3053ZM64.8744 23.9416C65.282 22.1482 65.9967 20.8211 66.9684 19.8868L65.5822 18.4452C64.2659 19.7108 63.3966 21.4198 62.9242 23.4984L64.8744 23.9416ZM66.9547 19.8998C67.9745 18.9555 69.4662 18.2246 71.5103 17.7657L71.0723 15.8143C68.8044 16.3234 66.9521 17.1765 65.5959 18.4322L66.9547 19.8998ZM71.5103 17.7657C73.5657 17.3043 76.3002 17.064 79.7393 17.064V15.064C76.2264 15.064 73.3289 15.3077 71.0723 15.8143L71.5103 17.7657ZM79.7393 17.064C82.8787 17.064 85.5134 17.2168 87.6526 17.5163L87.9299 15.5357C85.6692 15.2192 82.9359 15.064 79.7393 15.064V17.064ZM87.6526 17.5163C89.7364 17.8081 91.3469 18.4228 92.5415 19.3091L93.7331 17.7029C92.1997 16.5652 90.2462 15.8599 87.9299 15.5357L87.6526 17.5163ZM92.5585 19.3215C93.6941 20.1274 94.6031 21.4539 95.2188 23.4243L97.1278 22.8277C96.4235 20.5741 95.3085 18.8206 93.716 17.6905L92.5585 19.3215ZM95.2271 23.4497C95.7609 25.01 96.125 27.0499 96.2976 29.5956L98.293 29.4604C98.1136 26.8141 97.7297 24.586 97.1195 22.8023L95.2271 23.4497ZM96.2977 29.5968C96.4716 32.1185 96.5593 35.1961 96.5593 38.834H98.5593C98.5593 35.1679 98.471 32.0415 98.2929 29.4592L96.2977 29.5968ZM96.5593 38.834C96.5593 41.3694 96.4937 43.6577 96.3633 45.7003L98.3593 45.8277C98.4929 43.7343 98.5593 41.4026 98.5593 38.834H96.5593ZM96.3622 45.7215C96.2758 47.7527 96.0819 49.5514 95.7847 51.1221L97.7499 51.4939C98.0687 49.8086 98.2708 47.9113 98.3604 45.8065L96.3622 45.7215ZM95.7809 51.1436C95.5274 52.6646 95.1501 54.02 94.6553 55.2156L96.5033 55.9804C97.0645 54.6241 97.4792 53.1194 97.7537 51.4724L95.7809 51.1436ZM94.6556 55.215C93.9696 56.8694 93.0001 58.1198 91.7617 59.01L92.9289 60.634C94.5065 59.5002 95.693 57.9346 96.503 55.981L94.6556 55.215ZM91.7495 59.0189C90.5386 59.9173 88.9325 60.5743 86.8847 60.9505L87.2459 62.9175C89.5101 62.5017 91.424 61.7507 92.9411 60.6251L91.7495 59.0189ZM86.881 60.9511C84.8496 61.332 82.3196 61.528 79.2773 61.528V63.528C82.395 63.528 85.057 63.328 87.2496 62.9169L86.881 60.9511ZM80.2673 39.834C82.8881 39.834 85.02 39.7014 86.6403 39.4236L86.3023 37.4524C84.8426 37.7026 82.8385 37.834 80.2673 37.834V39.834ZM86.6403 39.4236C88.2428 39.1489 89.5662 38.6927 90.4679 37.9601L89.2067 36.4079C88.7004 36.8193 87.7798 37.1991 86.3023 37.4524L86.6403 39.4236ZM90.473 37.9559C91.3856 37.2044 91.9905 36.2462 92.2621 35.1056L90.3165 34.6424C90.1481 35.3498 89.785 35.9316 89.2016 36.4121L90.473 37.9559ZM92.2621 35.1056C92.5056 34.0828 92.6193 32.8782 92.6193 31.508H90.6193C90.6193 32.7778 90.513 33.8172 90.3165 34.6424L92.2621 35.1056ZM92.6193 31.508C92.6193 29.0479 92.4196 27.03 91.988 25.4953L90.0626 26.0367C90.423 27.318 90.6193 29.1281 90.6193 31.508H92.6193ZM91.9954 25.5235C91.609 23.9776 90.9297 22.7108 89.8874 21.8331L88.5992 23.3629C89.2289 23.8932 89.7376 24.7383 90.0552 26.0085L91.9954 25.5235ZM89.8874 21.8331C88.8551 20.9637 87.4813 20.4753 85.8621 20.2848L85.6285 22.2711C87.0013 22.4327 87.9595 22.8243 88.5992 23.3629L89.8874 21.8331ZM85.8951 20.2893C84.3756 20.0591 82.4954 19.948 80.2673 19.948V21.948C82.4392 21.948 84.2109 22.0569 85.5955 22.2667L85.8951 20.2893ZM80.2673 19.948C77.9149 19.948 75.9582 20.0365 74.4085 20.2188L74.6421 22.2051C76.0844 22.0355 77.9557 21.948 80.2673 21.948V19.948ZM74.405 20.2193C72.848 20.408 71.5202 20.8433 70.5001 21.5949L71.6865 23.2051C72.3384 22.7247 73.2986 22.368 74.6456 22.2047L74.405 20.2193ZM70.5286 21.5747C69.4734 22.2967 68.7615 23.3606 68.3555 24.6799L70.2671 25.2681C70.5651 24.2994 71.0412 23.6473 71.658 23.2253L70.5286 21.5747ZM68.3457 24.714C68.0043 25.9818 67.8493 27.6668 67.8493 29.726H69.8493C69.8493 27.7372 70.0022 26.2542 70.2769 25.234L68.3457 24.714ZM67.8493 29.726C67.8493 31.8735 68.0046 33.6383 68.3412 34.9845L70.2814 34.4995C70.002 33.3817 69.8493 31.8025 69.8493 29.726H67.8493ZM68.3498 35.0167C68.7439 36.396 69.4125 37.5249 70.4134 38.3034L71.6412 36.7246C71.0581 36.2711 70.5827 35.552 70.2728 34.4673L68.3498 35.0167ZM70.4418 38.3247C71.4271 39.0363 72.761 39.4431 74.3425 39.6292L74.5761 37.6428C73.1656 37.4769 72.2115 37.1357 71.6128 36.7033L70.4418 38.3247ZM74.3714 39.6321C75.9083 39.7677 77.8767 39.834 80.2673 39.834V37.834C77.9059 37.834 76.0023 37.7683 74.5472 37.6399L74.3714 39.6321Z" fill="#F4871F"/>
</g>
<defs>
<filter id="filter0_d_0_3333" x="0.0159988" y="0.0639954" width="117.543" height="86.464" filterUnits="userSpaceOnUse" color-interpolation-filters="sRGB">
<feFlood flood-opacity="0" result="BackgroundImageFix"/>
<feColorMatrix in="SourceAlpha" type="matrix" values="0 0 0 0 0 0 0 0 0 0 0 0 0 0 0 0 0 0 127 0" result="hardAlpha"/>
<feOffset dy="4"/>
<feGaussianBlur stdDeviation="10"/>
<feComposite in2="hardAlpha" operator="out"/>
<feColorMatrix type="matrix" values="0 0 0 0 0.956863 0 0 0 0 0.529412 0 0 0 0 0.121569 0 0 0 1 0"/>
<feBlend mode="normal" in2="BackgroundImageFix" result="effect1_dropShadow_0_3333"/>
<feBlend mode="normal" in="SourceGraphic" in2="effect1_dropShadow_0_3333" result="shape"/>
</filter>
</defs>
</svg>
