<svg width="249" height="81" viewBox="0 0 249 81" fill="none" xmlns="http://www.w3.org/2000/svg">
<g clip-path="url(#clip0_0_1169)">
<path d="M86.1897 70.5542C86.193 70.6963 86.1663 70.8376 86.1114 70.9687C86.0564 71.0998 85.9744 71.2178 85.8708 71.315C85.7731 71.4142 85.6564 71.4927 85.5278 71.5457C85.3991 71.5988 85.2611 71.6253 85.122 71.6237H70.8446C70.6916 71.6258 70.5413 71.6641 70.4059 71.7357C70.2706 71.8072 70.1542 71.9099 70.0661 72.0353C69.8543 72.2879 69.7376 72.607 69.7364 72.9369C69.7343 73.0846 69.7619 73.2313 69.8176 73.368C69.8734 73.5048 69.956 73.6289 70.0607 73.733C70.1599 73.8405 70.2803 73.9261 70.4144 73.9844C70.5484 74.0427 70.6931 74.0723 70.8392 74.0714H83.0029C83.8888 74.0505 84.7483 74.3747 85.4004 74.9758C85.7198 75.2615 85.9733 75.6134 86.1432 76.0071C86.3131 76.4008 86.3954 76.8269 86.3843 77.2557C86.3847 77.7006 86.2975 78.1412 86.1277 78.5524C85.9579 78.9635 85.7088 79.337 85.3947 79.6516C85.0806 79.9663 84.7077 80.2158 84.2973 80.3859C83.8869 80.556 83.447 80.6433 83.0029 80.643H68.1767C68.1305 80.6433 68.0847 80.6344 68.042 80.6167C67.9993 80.5991 67.9605 80.573 67.928 80.5401C67.8956 80.5079 67.87 80.4695 67.8528 80.4271C67.8357 80.3848 67.8272 80.3394 67.828 80.2937V79.4814C67.8258 79.339 67.8516 79.1975 67.904 79.0651C67.9564 78.9326 68.0344 78.8119 68.1335 78.7097C68.2311 78.6069 68.3491 78.5256 68.4799 78.4711C68.6107 78.4165 68.7514 78.3899 68.893 78.3929H83.1569C83.3042 78.3936 83.4502 78.3652 83.5866 78.3094C83.723 78.2536 83.847 78.1714 83.9517 78.0676C84.0564 77.9638 84.1396 77.8403 84.1966 77.7042C84.2537 77.5682 84.2834 77.4222 84.2841 77.2746C84.2857 77.1273 84.2573 76.9812 84.2006 76.8452C84.1439 76.7093 84.0601 76.5864 83.9543 76.484C83.8512 76.377 83.7271 76.2925 83.5899 76.2357C83.4528 76.1788 83.3054 76.1509 83.1569 76.1536H71.023C70.1316 76.179 69.2662 75.8511 68.6146 75.2412C68.2986 74.951 68.0483 74.5965 67.8804 74.2014C67.7126 73.8063 67.6311 73.3797 67.6415 72.9505C67.641 72.3393 67.7964 71.7381 68.0929 71.204C68.3832 70.6675 68.8068 70.2152 69.3228 69.8908C69.8304 69.5661 70.4207 69.395 71.023 69.398H85.841C85.9333 69.3987 86.0216 69.4357 86.0868 69.5011C86.1521 69.5664 86.189 69.6549 86.1897 69.7473V70.5542Z" fill="#492F90"/>
<path d="M89.0901 70.4511C89.0871 70.3096 89.1138 70.1691 89.1682 70.0385C89.2227 69.908 89.3038 69.7902 89.4063 69.6929C89.5042 69.594 89.6209 69.5157 89.7495 69.4627C89.8781 69.4096 90.016 69.383 90.1551 69.3843H107.454C107.504 69.3817 107.554 69.3896 107.6 69.4073C107.647 69.425 107.689 69.4522 107.725 69.4871C107.758 69.5188 107.784 69.5571 107.802 69.5995C107.82 69.6419 107.828 69.6876 107.827 69.7335V70.5458C107.831 70.6877 107.804 70.8287 107.75 70.9598C107.695 71.0908 107.614 71.209 107.511 71.3067C107.413 71.4057 107.297 71.484 107.168 71.537C107.039 71.59 106.902 71.6166 106.762 71.6154H99.6643C99.5562 71.6154 99.4994 71.6777 99.4994 71.7995V79.5624C99.5006 79.702 99.4731 79.8404 99.4187 79.9689C99.3643 80.0974 99.2841 80.2135 99.1832 80.3097C99.0844 80.4141 98.9653 80.497 98.8333 80.5533C98.7012 80.6097 98.5591 80.6383 98.4155 80.6374H97.7803C97.7153 80.6387 97.6514 80.6208 97.5965 80.5859C97.5434 80.5516 97.4983 80.5064 97.4641 80.4532C97.4313 80.4043 97.4135 80.3469 97.4127 80.2881V71.8076C97.4159 71.7825 97.4132 71.7569 97.4049 71.7329C97.3966 71.709 97.3829 71.6872 97.3648 71.6694C97.3468 71.6516 97.3249 71.6382 97.3009 71.6302C97.2768 71.6223 97.2513 71.62 97.2262 71.6235H89.436C89.3796 71.6229 89.324 71.609 89.2739 71.5829C89.2188 71.5549 89.1728 71.5116 89.1414 71.4583C89.1066 71.4034 89.0887 71.3393 89.0901 71.2742V70.4511Z" fill="#492F90"/>
<path d="M127.36 70.4514C127.357 70.3098 127.385 70.1692 127.439 70.0386C127.494 69.9081 127.576 69.7904 127.679 69.6933C127.78 69.5929 127.899 69.5138 128.031 69.4608C128.163 69.4078 128.304 69.3818 128.446 69.3846H129.082C129.131 69.3825 129.181 69.3906 129.227 69.4083C129.274 69.426 129.316 69.4529 129.352 69.4875C129.385 69.5194 129.411 69.5577 129.429 69.6001C129.446 69.6425 129.455 69.688 129.455 69.7339V75.2575C129.457 75.9639 129.32 76.6637 129.052 77.3169C128.784 77.9701 128.389 78.5637 127.891 79.0636C127.393 79.5636 126.801 79.96 126.15 80.2301C125.498 80.5003 124.8 80.6388 124.095 80.6377H116.091C115.385 80.6402 114.685 80.5027 114.033 80.2333C113.38 79.9638 112.787 79.5676 112.288 79.0675C111.788 78.5674 111.393 77.9733 111.124 77.3194C110.855 76.6655 110.717 75.9648 110.72 75.2575V70.4514C110.717 70.3097 110.744 70.1689 110.799 70.0382C110.854 69.9076 110.935 69.79 111.039 69.6933C111.136 69.5943 111.252 69.5159 111.381 69.4629C111.509 69.4098 111.646 69.3832 111.785 69.3846H112.442C112.542 69.3817 112.639 69.4187 112.712 69.4875C112.747 69.5183 112.775 69.5562 112.794 69.5987C112.813 69.6412 112.823 69.6873 112.823 69.7339V75.2792C112.818 75.6856 112.896 76.0889 113.051 76.4644C113.206 76.84 113.436 77.1802 113.726 77.4643C114.009 77.7595 114.349 77.9932 114.727 78.1507C115.104 78.3081 115.509 78.386 115.918 78.3795H124.281C125.1 78.3738 125.884 78.0453 126.462 77.465C127.041 76.8847 127.368 76.0994 127.373 75.2792L127.36 70.4514Z" fill="#492F90"/>
<path d="M146.743 69.3843C147.448 69.3818 148.146 69.5186 148.797 69.787C149.449 70.0553 150.041 70.4498 150.54 70.9479C151.039 71.4459 151.435 72.0378 151.705 72.6895C151.975 73.3412 152.114 74.0399 152.114 74.7455V75.2573C152.117 75.9645 151.979 76.6652 151.71 77.3191C151.441 77.973 151.046 78.5671 150.547 79.0672C150.047 79.5673 149.454 79.9635 148.802 80.233C148.149 80.5025 147.449 80.6399 146.743 80.6374H133.731C133.639 80.6367 133.55 80.5997 133.485 80.5343C133.42 80.469 133.383 80.3805 133.382 80.2881V74.2311C133.383 74.1386 133.42 74.0502 133.485 73.9848C133.55 73.9195 133.639 73.8825 133.731 73.8818H134.388C134.577 73.883 134.763 73.9324 134.928 74.0253C135.092 74.1176 135.228 74.2517 135.323 74.4139C135.418 74.5761 135.468 74.7606 135.469 74.9486V78.214C135.466 78.2362 135.468 78.2588 135.475 78.28C135.482 78.3013 135.494 78.3206 135.509 78.3366C135.525 78.3526 135.544 78.3647 135.565 78.3721C135.586 78.3795 135.609 78.3819 135.631 78.3792H146.924C147.744 78.3742 148.528 78.046 149.107 77.4657C149.687 76.8853 150.014 76.0996 150.019 75.2789V74.7374C150.021 73.9127 149.696 73.1211 149.116 72.5359C148.536 71.9507 147.748 71.6197 146.924 71.6154H134.447C134.308 71.6168 134.171 71.5902 134.043 71.5371C133.915 71.4841 133.798 71.4058 133.701 71.3068C133.597 71.2096 133.515 71.0916 133.46 70.9605C133.406 70.8293 133.379 70.6881 133.382 70.5459V69.7336C133.383 69.6412 133.42 69.5527 133.485 69.4874C133.55 69.422 133.639 69.385 133.731 69.3843H146.743Z" fill="#492F90"/>
<path d="M155.861 70.4511C155.858 70.3097 155.884 70.1692 155.939 70.0386C155.993 69.908 156.074 69.7903 156.177 69.693C156.275 69.594 156.391 69.5157 156.52 69.4627C156.649 69.4097 156.787 69.383 156.926 69.3843H157.582C157.677 69.3851 157.768 69.4219 157.836 69.4872C157.872 69.5175 157.901 69.5553 157.92 69.5979C157.94 69.6404 157.95 69.6867 157.95 69.7336V79.5706C157.951 79.7105 157.923 79.849 157.868 79.9776C157.814 80.1062 157.733 80.2221 157.631 80.3179C157.532 80.4213 157.413 80.503 157.281 80.558C157.148 80.613 157.006 80.64 156.863 80.6374H156.209C156.163 80.638 156.118 80.6292 156.076 80.6115C156.033 80.5938 155.995 80.5676 155.963 80.5345C155.93 80.5029 155.904 80.4646 155.886 80.4222C155.868 80.3798 155.86 80.3341 155.861 80.2881V70.4511Z" fill="#492F90"/>
<path d="M161.696 74.7455C161.696 74.0394 161.836 73.3403 162.106 72.6882C162.376 72.0362 162.773 71.4441 163.272 70.9459C163.772 70.4478 164.365 70.0534 165.017 69.7854C165.669 69.5174 166.368 69.3811 167.073 69.3843H175.065C176.006 69.3827 176.931 69.6284 177.747 70.0969C178.564 70.5654 179.243 71.2403 179.717 72.0541C180.194 72.8702 180.441 73.8001 180.434 74.7455V75.2573C180.436 75.9643 180.299 76.6648 180.03 77.3185C179.761 77.9722 179.366 78.5662 178.867 79.0663C178.368 79.5663 177.775 79.9626 177.123 80.2322C176.471 80.5019 175.771 80.6396 175.065 80.6374H167.073C166.367 80.6399 165.667 80.5025 165.014 80.233C164.362 79.9635 163.768 79.5673 163.269 79.0672C162.77 78.5671 162.374 77.973 162.105 77.3191C161.836 76.6653 161.699 75.9645 161.702 75.2573L161.696 74.7455ZM175.244 78.3792C176.063 78.3729 176.846 78.0442 177.425 77.4641C178.004 76.8841 178.333 76.0992 178.339 75.2789V74.7374C178.345 74.3261 178.268 73.9179 178.11 73.5379C177.953 73.1579 177.72 72.8142 177.425 72.5279C177.143 72.2345 176.804 72.0022 176.429 71.8452C176.054 71.6883 175.65 71.6101 175.244 71.6155H166.881C166.472 71.6086 166.067 71.6861 165.69 71.843C165.313 72 164.972 72.2332 164.689 72.5279C164.397 72.8159 164.166 73.1602 164.011 73.5399C163.856 73.9197 163.779 74.3271 163.786 74.7374V75.2789C163.781 75.6854 163.858 76.0886 164.014 76.4642C164.169 76.8398 164.398 77.1799 164.689 77.464C164.972 77.7593 165.312 77.9929 165.689 78.1504C166.067 78.3079 166.472 78.3858 166.881 78.3792H175.244Z" fill="#492F90"/>
<path d="M186.167 70.6841V72.9558H244.155C247.558 72.9558 248.975 70.6841 248.975 70.6841H186.167Z" fill="url(#paint0_radial_0_1169)"/>
<path d="M186.167 75.7989V78.0652H229.978C233.381 78.0652 234.797 75.7935 234.797 75.7935L186.167 75.7989Z" fill="url(#paint1_linear_0_1169)"/>
<path d="M62.8331 70.6841V72.9558H4.8449C1.44178 72.9558 0.0253906 70.6841 0.0253906 70.6841H62.8331Z" fill="url(#paint2_radial_0_1169)"/>
<path d="M62.8334 75.7989V78.0652H19.0226C15.6222 78.0652 14.2031 75.7935 14.2031 75.7935L62.8334 75.7989Z" fill="url(#paint3_linear_0_1169)"/>
<path d="M92.6639 36.8598V49.3015C92.6639 52.8757 90.9853 54.7412 86.5091 54.7412H80.5111L81.1166 49.9839L70.6855 60.4463H90.6718C98.1862 60.4463 101.214 56.8343 101.214 50.3277V33.5104H87.9417L92.6639 36.8598ZM155.742 27.4316H166.532C173.525 27.4316 177.207 23.8169 177.207 18.0333V9.88587C177.207 4.10498 173.525 0.490234 166.532 0.490234H155.742C148.746 0.490234 145.07 4.10498 145.07 9.88587V18.0279C145.07 23.8115 148.746 27.4316 155.742 27.4316ZM153.623 9.89129C153.623 7.18361 155.023 5.82977 157.902 5.82977H164.37C167.249 5.82977 168.646 7.19986 168.646 9.89129V17.6542C168.646 20.3619 167.249 21.7157 164.37 21.7157H157.902C155.023 21.7157 153.623 20.3483 153.623 17.6542V9.89129ZM239.274 10.4626H227.602C226.164 10.4626 225.645 10.0456 225.645 9.01671V7.26755C225.645 6.24134 226.164 5.82165 227.602 5.82165H240.355L247.15 0.495649H225.086C219.369 0.495649 217.09 2.58868 217.09 6.65832V10.2352C217.09 14.2967 219.369 16.3978 225.086 16.3978H236.757C238.195 16.3978 238.717 16.8175 238.717 17.8437V20.2806C238.717 21.3069 238.195 21.7238 236.757 21.7238H217.331V27.4316H239.274C244.991 27.4316 247.269 25.3386 247.269 21.269V16.6226C247.269 12.5394 244.991 10.4572 239.274 10.4572V10.4626ZM86.9092 5.81624H96.9807L103.617 0.490234H84.7494C77.754 0.490234 74.0779 4.10498 74.0779 9.88587V18.0279C74.0779 23.8115 77.754 27.4262 84.7494 27.4262H102.016V21.7184H86.9092C84.0304 21.7184 82.6303 20.351 82.6303 17.6569V9.88587C82.6303 7.18632 84.0304 5.81624 86.9092 5.81624ZM201.707 21.7184H182.278V27.4316H204.224C209.938 27.4316 212.216 25.3386 212.216 21.269V16.6226C212.216 12.5611 209.938 10.4572 204.224 10.4572H192.552C191.111 10.4572 190.592 10.0402 190.592 9.01129V7.26214C190.592 6.23593 191.111 5.81624 192.552 5.81624H205.302L212.097 0.490234H190.049C184.329 0.490234 182.053 2.58327 182.053 6.65291V10.2297C182.053 14.2913 184.329 16.3924 190.049 16.3924H201.72C203.156 16.3924 203.677 16.8121 203.677 17.8383V20.2752C203.664 21.3014 203.142 21.7184 201.707 21.7184ZM162.802 43.5938L153.088 33.5104H140.618L144.943 36.7081V60.4463H151.176V43.897L161.251 54.132L170.603 43.897V60.4463H179.253V33.5104H172.749L162.802 43.5938ZM128.506 36.7081V50.6689C128.506 53.3766 127.106 54.7304 124.23 54.7304H119.832C116.953 54.7304 115.556 53.3603 115.556 50.6689V33.5104H107.001V51.0507C107.001 56.8343 110.68 60.4463 117.675 60.4463H126.387C133.382 60.4463 137.061 56.8343 137.061 51.0507V33.5104H124.189L128.506 36.7081ZM110.271 27.4316H118.827V16.7742H123.184L132.415 27.4316H142.648L132.577 16.2462C138.491 15.1036 140.21 11.9843 140.21 6.0518V0.490234H105.955L110.28 3.68529L110.271 27.4316ZM118.827 5.82165H131.415V6.73414C131.415 10.5763 130.658 11.2235 124.822 11.2235H118.827V5.82165ZM187.313 36.7081V60.4463H195.866V49.7943H202.894C214.325 49.7943 217.244 46.8159 217.244 39.0665V33.5104H182.994L187.313 36.7081ZM195.866 38.8391H208.459V39.7516C208.459 43.5937 207.7 44.2409 201.861 44.2409H195.866V38.8391Z" fill="url(#paint4_radial_0_1169)"/>
<path d="M36.1295 21.4746H24.9903C23.9266 21.475 22.8735 21.6855 21.8912 22.0941C20.9089 22.5028 20.0167 23.1015 19.2657 23.8561C18.5147 24.6106 17.9197 25.5061 17.5147 26.4913C17.1097 27.4766 16.9027 28.5322 16.9055 29.5976V43.3418C16.9066 44.2132 17.0792 45.0758 17.4134 45.8803C17.7476 46.6848 18.2368 47.4154 18.8532 48.0303C19.4695 48.6451 20.2008 49.1323 21.0053 49.4637C21.8098 49.7952 22.6716 49.9646 23.5415 49.9621H43.8899L37.9189 60.3189L17.9165 60.0021C13.6884 59.9384 9.65172 58.2257 6.66419 55.228C3.67666 52.2303 1.97372 48.1838 1.91721 43.9483L1.73611 30.6103C1.70289 28.1961 2.1469 25.7991 3.04256 23.5575C3.93821 21.316 5.2678 19.2741 6.95473 17.5495C8.64166 15.8249 10.6526 14.4518 12.8716 13.5092C15.0907 12.5666 17.474 12.0731 19.8843 12.0573L50.4286 11.8569L36.262 28.7637L36.1295 21.4746Z" fill="url(#paint5_linear_0_1169)"/>
<path d="M44.8259 50.0435L39.0117 60.3056H58.2141V50.0435H44.8259Z" fill="url(#paint6_linear_0_1169)"/>
<path d="M35.2432 30.4428L34.6513 31.0358L18.9277 46.9704H53.4914C56.9898 46.9704 60.345 45.5783 62.8187 43.1003C65.2925 40.6223 66.6822 37.2614 66.6822 33.757V0.671875H31.7509L37.8246 10.0783H53.3319V31.1305C53.3322 32.9818 52.6065 34.759 51.3112 36.0794C50.0158 37.3997 48.2545 38.1575 46.4068 38.1894L34.2729 38.3952L35.2432 30.4428Z" fill="url(#paint7_linear_0_1169)"/>
<path d="M17.6631 0.671875V10.0729H36.7168L30.6944 0.671875H17.6631Z" fill="url(#paint8_linear_0_1169)"/>
</g>
<defs>
<radialGradient id="paint0_radial_0_1169" cx="0" cy="0" r="1" gradientUnits="userSpaceOnUse" gradientTransform="translate(195.901 65.8725) scale(69.5653 69.6849)">
<stop stop-color="#F4871F"/>
<stop offset="1" stop-color="#D61921"/>
</radialGradient>
<linearGradient id="paint1_linear_0_1169" x1="186.167" y1="76.9334" x2="234.797" y2="76.9334" gradientUnits="userSpaceOnUse">
<stop stop-color="#492F90"/>
<stop offset="1" stop-color="#00ACED"/>
</linearGradient>
<radialGradient id="paint2_radial_0_1169" cx="0" cy="0" r="1" gradientUnits="userSpaceOnUse" gradientTransform="translate(52.9265 65.8725) rotate(180) scale(69.5653 69.6849)">
<stop stop-color="#F4871F"/>
<stop offset="1" stop-color="#D61921"/>
</radialGradient>
<linearGradient id="paint3_linear_0_1169" x1="62.8334" y1="76.9334" x2="14.2031" y2="76.9334" gradientUnits="userSpaceOnUse">
<stop stop-color="#492F90"/>
<stop offset="1" stop-color="#00ACED"/>
</linearGradient>
<radialGradient id="paint4_radial_0_1169" cx="0" cy="0" r="1" gradientUnits="userSpaceOnUse" gradientTransform="translate(158.487 5.15285) scale(73.9489 70.5485)">
<stop stop-color="#F4871F"/>
<stop offset="1" stop-color="#D61921"/>
</radialGradient>
<linearGradient id="paint5_linear_0_1169" x1="19.095" y1="60.4218" x2="28.3593" y2="7.96061" gradientUnits="userSpaceOnUse">
<stop stop-color="#F4871F"/>
<stop offset="1" stop-color="#D61921"/>
</linearGradient>
<linearGradient id="paint6_linear_0_1169" x1="39.0117" y1="55.1745" x2="58.2141" y2="55.1745" gradientUnits="userSpaceOnUse">
<stop stop-color="#433998"/>
<stop offset="0.43" stop-color="#195DB1"/>
<stop offset="1" stop-color="#008DD4"/>
</linearGradient>
<linearGradient id="paint7_linear_0_1169" x1="38.5193" y1="-0.524918" x2="47.1436" y2="48.2976" gradientUnits="userSpaceOnUse">
<stop offset="0.07" stop-color="#D61921"/>
<stop offset="0.28" stop-color="#F17D1F"/>
<stop offset="1" stop-color="#D61921"/>
</linearGradient>
<linearGradient id="paint8_linear_0_1169" x1="17.6631" y1="5.3724" x2="36.7168" y2="5.3724" gradientUnits="userSpaceOnUse">
<stop stop-color="#433998"/>
<stop offset="0.43" stop-color="#195DB1"/>
<stop offset="1" stop-color="#008DD4"/>
</linearGradient>
<clipPath id="clip0_0_1169">
<rect width="248.949" height="80.1472" fill="white" transform="translate(0.0253906 0.490234)"/>
</clipPath>
</defs>
</svg>
